SplineFontDB: 3.0
FontName: Auvaiyar-Regular
FullName: Auvaiyar
FamilyName: Auvaiyar
Weight: Book
Copyright: Copyright (c) 1995-2015, NLCI (http://www.nlci.in/fonts/) Derived from TAM Auvaiyar Normal by ttfbuilder v0.33
Version: 1.0 Wed Feb 01 17:13:14 1995
ItalicAngle: 0
UnderlinePosition: -634.88
UnderlineWidth: 40.96
Ascent: 1638
Descent: 410
InvalidEm: 0
sfntRevision: 0x00010000
LayerCount: 2
Layer: 0 1 "Back" 1
Layer: 1 1 "Fore" 0
XUID: [1021 310 -580625116 10631503]
StyleMap: 0x0040
FSType: 0
OS2Version: 1
OS2_WeightWidthSlopeOnly: 0
OS2_UseTypoMetrics: 0
CreationTime: 1522121139
ModificationTime: 1522121178
PfmFamily: 17
TTFWeight: 400
TTFWidth: 5
LineGap: 0
VLineGap: 0
Panose: 2 0 0 3 0 0 0 0 0 0
OS2TypoAscent: 1536
OS2TypoAOffset: 0
OS2TypoDescent: -674
OS2TypoDOffset: 0
OS2TypoLinegap: 0
OS2WinAscent: 1536
OS2WinAOffset: 0
OS2WinDescent: 674
OS2WinDOffset: 0
HheadAscent: 1536
HheadAOffset: 0
HheadDescent: -674
HheadDOffset: 0
OS2SubXSize: 1434
OS2SubYSize: 1331
OS2SubXOff: 0
OS2SubYOff: 293
OS2SupXSize: 1434
OS2SupYSize: 1331
OS2SupXOff: 0
OS2SupYOff: 928
OS2StrikeYSize: 102
OS2StrikeYPos: 530
OS2Vendor: 'Alts'
OS2CodePages: 00000001.00000000
OS2UnicodeRanges: 80108003.02002000.00000000.00000000
Lookup: 260 0 0 "_holdAnchorsbase" { "_someAnchorsbase"  } []
DEI: 91125
ShortTable: maxp 16
  1
  0
  339
  246
  12
  340
  16
  1
  0
  0
  0
  0
  122
  0
  3
  2
EndShort

StartChar: .notdef
Encoding: 0 -1 0
Width: 1024
Flags: W
LayerCount: 2
Fore
SplineSet
63 0 m 1,0,-1
 63 1536 l 1,1,-1
 961 1536 l 1,2,-1
 961 0 l 1,3,-1
 63 0 l 1,0,-1
897 63 m 1,4,-1
 897 1473 l 1,5,-1
 127 1473 l 1,6,-1
 127 63 l 1,7,-1
 897 63 l 1,4,-1
EndSplineSet
EndChar

StartChar: exclam
Encoding: 4 33 4
Width: 692
Flags: W
LayerCount: 2
Fore
SplineSet
471 1274 m 0,0,1
 471 1268 471 1268 467.5 1225.5 c 0,2,3
 464 1183 464 1183 459 1118.5 c 0,4,5
 454 1054 454 1054 447.5 973.5 c 0,6,7
 441 893 441 893 434 810 c 0,8,9
 417 615 417 615 397 371 c 0,10,-1
 297 371 l 0,11,12
 276 615 276 615 259 810 c 0,13,14
 252 893 252 893 245 973.5 c 0,15,16
 238 1054 238 1054 233 1118.5 c 0,17,18
 228 1183 228 1183 224.5 1225.5 c 0,19,20
 221 1268 221 1268 221 1274 c 0,21,22
 221 1336 221 1336 251 1371.5 c 0,23,24
 281 1407 281 1407 346 1407 c 0,25,26
 411 1407 411 1407 441 1371.5 c 0,27,28
 471 1336 471 1336 471 1274 c 0,0,1
473 102 m 0,29,30
 473 77 473 77 463 54 c 0,31,32
 453 31 453 31 435.5 13.5 c 0,33,34
 418 -4 418 -4 395 -14.5 c 0,35,36
 372 -25 372 -25 346 -25 c 0,37,38
 320 -25 320 -25 297 -14.5 c 0,39,40
 274 -4 274 -4 257 13.5 c 0,41,42
 240 31 240 31 230.5 54 c 0,43,44
 221 77 221 77 221 102 c 0,45,46
 221 128 221 128 230.5 151 c 0,47,48
 240 174 240 174 257 191 c 0,49,50
 274 208 274 208 297 217.5 c 0,51,52
 320 227 320 227 346 227 c 0,53,54
 372 227 372 227 395 217.5 c 0,55,56
 418 208 418 208 435.5 191 c 0,57,58
 453 174 453 174 463 151 c 0,59,60
 473 128 473 128 473 102 c 0,29,30
EndSplineSet
EndChar

StartChar: quotedbl
Encoding: 5 34 5
Width: 682
Flags: W
LayerCount: 2
Fore
SplineSet
522 862 m 0,0,-1
 489 862 l 0,1,-1
 420 1362 l 0,2,3
 420 1410 420 1410 442 1436 c 0,4,5
 464 1462 464 1462 506 1462 c 0,6,7
 549 1462 549 1462 571.5 1436 c 0,8,9
 594 1410 594 1410 594 1362 c 0,10,-1
 522 862 l 0,0,-1
193 862 m 0,11,-1
 160 862 l 0,12,-1
 88 1362 l 0,13,14
 88 1410 88 1410 111 1436 c 0,15,16
 134 1462 134 1462 176 1462 c 0,17,18
 219 1462 219 1462 240.5 1436 c 0,19,20
 262 1410 262 1410 262 1362 c 0,21,-1
 193 862 l 0,11,-1
EndSplineSet
EndChar

StartChar: numbersign
Encoding: 6 35 6
Width: 1522
Flags: W
LayerCount: 2
Fore
SplineSet
1073 862 m 0,0,-1
 977 569 l 0,1,-1
 1307 569 l 0,2,-1
 1307 467 l 0,3,-1
 940 467 l 0,4,-1
 768 -47 l 0,5,-1
 666 -14 l 0,6,-1
 825 467 l 0,7,-1
 528 467 l 0,8,-1
 354 -47 l 0,9,-1
 254 -12 l 0,10,-1
 418 467 l 0,11,-1
 127 467 l 0,12,-1
 127 569 l 0,13,-1
 451 569 l 0,14,-1
 551 862 l 0,15,-1
 219 862 l 0,16,-1
 219 967 l 0,17,-1
 586 967 l 0,18,-1
 750 1450 l 0,19,-1
 854 1417 l 0,20,-1
 696 967 l 0,21,-1
 995 967 l 0,22,-1
 1157 1450 l 0,23,-1
 1266 1417 l 0,24,-1
 1110 967 l 0,25,-1
 1397 967 l 0,26,-1
 1397 862 l 0,27,-1
 1073 862 l 0,0,-1
664 862 m 0,28,-1
 563 569 l 0,29,-1
 860 569 l 0,30,-1
 961 862 l 0,31,-1
 664 862 l 0,28,-1
EndSplineSet
EndChar

StartChar: dollar
Encoding: 7 36 7
Width: 1153
Flags: W
LayerCount: 2
Fore
SplineSet
1034 389 m 0,0,1
 1034 326 1034 326 1013 273 c 0,2,3
 992 220 992 220 958.5 177.5 c 0,4,5
 925 135 925 135 881.5 103 c 0,6,7
 838 71 838 71 792.5 48.5 c 0,8,9
 747 26 747 26 704 14 c 0,10,11
 661 2 661 2 627 0 c 0,12,-1
 627 -211 l 0,13,-1
 532 -211 l 0,14,-1
 532 0 l 0,15,16
 494 2 494 2 444 5 c 0,17,18
 394 8 394 8 339.5 13.5 c 0,19,20
 285 19 285 19 228 28.5 c 0,21,22
 171 38 171 38 119 53 c 0,23,-1
 119 401 l 0,24,-1
 221 401 l 0,25,-1
 258 172 l 0,26,27
 272 155 272 155 300.5 141.5 c 0,28,29
 329 128 329 128 366.5 119 c 0,30,31
 404 110 404 110 447 105 c 0,32,33
 490 100 490 100 532 100 c 0,34,-1
 532 618 l 0,35,36
 465 633 465 633 397.5 660.5 c 0,37,38
 330 688 330 688 275.5 732 c 0,39,40
 221 776 221 776 186.5 839.5 c 0,41,42
 152 903 152 903 152 991 c 0,43,44
 152 1053 152 1053 169 1103.5 c 0,45,46
 186 1154 186 1154 215 1193.5 c 0,47,48
 244 1233 244 1233 282.5 1263 c 0,49,50
 321 1293 321 1293 363.5 1314 c 0,51,52
 406 1335 406 1335 450.5 1348.5 c 0,53,54
 495 1362 495 1362 535 1368 c 0,55,-1
 535 1522 l 0,56,-1
 629 1522 l 0,57,-1
 629 1374 l 0,58,59
 695 1374 695 1374 757.5 1366.5 c 0,60,61
 820 1359 820 1359 869 1350 c 0,62,63
 926 1339 926 1339 977 1327 c 0,64,-1
 977 1004 l 0,65,-1
 870 1004 l 0,66,-1
 840 1221 l 0,67,68
 792 1274 792 1274 629 1274 c 0,69,-1
 629 786 l 0,70,71
 673 773 673 773 720.5 758 c 0,72,73
 768 743 768 743 813 722 c 0,74,75
 858 701 858 701 898 673 c 0,76,77
 938 645 938 645 968.5 605 c 0,78,79
 999 565 999 565 1016.5 512 c 0,80,81
 1034 459 1034 459 1034 389 c 0,0,1
535 1266 m 0,82,83
 494 1257 494 1257 459 1238.5 c 0,84,85
 424 1220 424 1220 398 1191 c 0,86,87
 372 1162 372 1162 357 1122.5 c 0,88,89
 342 1083 342 1083 342 1032 c 0,90,91
 342 982 342 982 360.5 946 c 0,92,93
 379 910 379 910 407 884.5 c 0,94,95
 435 859 435 859 469 842 c 0,96,97
 503 825 503 825 535 813 c 0,98,-1
 535 1266 l 0,82,83
848 350 m 0,99,100
 848 406 848 406 830 446 c 0,101,102
 812 486 812 486 781 514.5 c 0,103,104
 750 543 750 543 710 561.5 c 0,105,106
 670 580 670 580 627 594 c 0,107,-1
 627 109 l 0,108,109
 670 116 670 116 710 134 c 0,110,111
 750 152 750 152 781 181.5 c 0,112,113
 812 211 812 211 830 253 c 0,114,115
 848 295 848 295 848 350 c 0,99,100
EndSplineSet
EndChar

StartChar: percent
Encoding: 8 37 8
Width: 1761
Flags: W
LayerCount: 2
Fore
SplineSet
1696 397 m 0,0,1
 1696 306 1696 306 1676.5 227.5 c 0,2,3
 1657 149 1657 149 1618 91 c 0,4,5
 1579 33 1579 33 1520 0 c 0,6,7
 1461 -33 1461 -33 1382 -33 c 0,8,9
 1303 -33 1303 -33 1244 0 c 0,10,11
 1185 33 1185 33 1145.5 91 c 0,12,13
 1106 149 1106 149 1086.5 227.5 c 0,14,15
 1067 306 1067 306 1067 397 c 0,16,17
 1067 488 1067 488 1086.5 567 c 0,18,19
 1106 646 1106 646 1145.5 703.5 c 0,20,21
 1185 761 1185 761 1244 794 c 0,22,23
 1303 827 1303 827 1382 827 c 0,24,25
 1461 827 1461 827 1520 794 c 0,26,27
 1579 761 1579 761 1618 703.5 c 0,28,29
 1657 646 1657 646 1676.5 567 c 0,30,31
 1696 488 1696 488 1696 397 c 0,0,1
512 0 m 0,32,-1
 383 0 l 0,33,-1
 1253 1374 l 0,34,-1
 1380 1374 l 0,35,-1
 512 0 l 0,32,-1
694 977 m 0,36,37
 694 885 694 885 675 806.5 c 0,38,39
 656 728 656 728 617 670.5 c 0,40,41
 578 613 578 613 519 580 c 0,42,43
 460 547 460 547 381 547 c 0,44,45
 302 547 302 547 243 580 c 0,46,47
 184 613 184 613 144.5 670.5 c 0,48,49
 105 728 105 728 85.5 806.5 c 0,50,51
 66 885 66 885 66 977 c 0,52,53
 66 1068 66 1068 85.5 1147 c 0,54,55
 105 1226 105 1226 144.5 1283.5 c 0,56,57
 184 1341 184 1341 243 1374 c 0,58,59
 302 1407 302 1407 381 1407 c 0,60,61
 460 1407 460 1407 519 1374 c 0,62,63
 578 1341 578 1341 617 1283.5 c 0,64,65
 656 1226 656 1226 675 1147 c 0,66,67
 694 1068 694 1068 694 977 c 0,36,37
1538 397 m 0,68,69
 1538 478 1538 478 1529 543 c 0,70,71
 1520 608 1520 608 1501.5 654 c 0,72,73
 1483 700 1483 700 1453.5 725 c 0,74,75
 1424 750 1424 750 1382 750 c 0,76,77
 1341 750 1341 750 1310.5 725 c 0,78,79
 1280 700 1280 700 1260 654 c 0,80,81
 1240 608 1240 608 1230.5 543 c 0,82,83
 1221 478 1221 478 1221 397 c 0,84,85
 1221 316 1221 316 1230.5 251 c 0,86,87
 1240 186 1240 186 1260 139.5 c 0,88,89
 1280 93 1280 93 1310.5 68 c 0,90,91
 1341 43 1341 43 1382 43 c 0,92,93
 1424 43 1424 43 1453.5 68 c 0,94,95
 1483 93 1483 93 1501.5 139.5 c 0,96,97
 1520 186 1520 186 1529 251 c 0,98,99
 1538 316 1538 316 1538 397 c 0,68,69
537 977 m 0,100,101
 537 1058 537 1058 528 1123 c 0,102,103
 519 1188 519 1188 500.5 1233.5 c 0,104,105
 482 1279 482 1279 452.5 1304 c 0,106,107
 423 1329 423 1329 381 1329 c 0,108,109
 339 1329 339 1329 308.5 1304 c 0,110,111
 278 1279 278 1279 258 1233.5 c 0,112,113
 238 1188 238 1188 228.5 1123 c 0,114,115
 219 1058 219 1058 219 977 c 0,116,117
 219 896 219 896 228.5 831 c 0,118,119
 238 766 238 766 258 720.5 c 0,120,121
 278 675 278 675 308.5 650 c 0,122,123
 339 625 339 625 381 625 c 0,124,125
 423 625 423 625 452.5 650 c 0,126,127
 482 675 482 675 500.5 720.5 c 0,128,129
 519 766 519 766 528 831 c 0,130,131
 537 896 537 896 537 977 c 0,100,101
EndSplineSet
EndChar

StartChar: ampersand
Encoding: 9 38 9
Width: 1432
Flags: W
LayerCount: 2
Fore
SplineSet
1014 0 m 0,0,-1
 1014 49 l 0,1,-1
 922 152 l 0,2,3
 882 120 882 120 839 88.5 c 0,4,5
 796 57 796 57 746 32 c 0,6,7
 696 7 696 7 637 -9 c 0,8,9
 578 -25 578 -25 506 -25 c 0,10,11
 418 -25 418 -25 340.5 5.5 c 0,12,13
 263 36 263 36 205 90 c 0,14,15
 147 144 147 144 113.5 218.5 c 0,16,17
 80 293 80 293 80 381 c 0,18,19
 80 448 80 448 100 503.5 c 0,20,21
 120 559 120 559 156.5 603.5 c 0,22,23
 193 648 193 648 243.5 682 c 0,24,25
 294 716 294 716 354 741 c 0,26,27
 337 758 337 758 308 787.5 c 0,28,29
 279 817 279 817 251 857 c 0,30,31
 223 897 223 897 202.5 947 c 0,32,33
 182 997 182 997 182 1055 c 0,34,35
 182 1132 182 1132 211.5 1195.5 c 0,36,37
 241 1259 241 1259 293.5 1305 c 0,38,39
 346 1351 346 1351 417 1376 c 0,40,41
 488 1401 488 1401 571 1401 c 0,42,43
 649 1401 649 1401 715 1377.5 c 0,44,45
 781 1354 781 1354 829 1313 c 0,46,47
 877 1272 877 1272 904.5 1215.5 c 0,48,49
 932 1159 932 1159 932 1092 c 0,50,51
 932 1017 932 1017 906 961 c 0,52,53
 880 905 880 905 837.5 863 c 0,54,55
 795 821 795 821 741 789.5 c 0,56,57
 687 758 687 758 631 733 c 0,58,-1
 975 362 l 0,59,60
 991 383 991 383 1009.5 412 c 0,61,62
 1028 441 1028 441 1044.5 473 c 0,63,64
 1061 505 1061 505 1073.5 538.5 c 0,65,66
 1086 572 1086 572 1090 602 c 0,67,68
 1091 611 1091 611 1079.5 625 c 0,69,70
 1068 639 1068 639 1055 641 c 0,71,-1
 944 657 l 0,72,-1
 944 743 l 0,73,-1
 1364 743 l 0,74,-1
 1364 657 l 0,75,-1
 1217 635 l 0,76,77
 1202 583 1202 583 1181.5 534 c 0,78,79
 1161 485 1161 485 1137.5 440.5 c 0,80,81
 1114 396 1114 396 1089 358 c 0,82,83
 1064 320 1064 320 1042 289 c 0,84,-1
 1208 98 l 0,85,-1
 1391 88 l 0,86,-1
 1391 0 l 0,87,-1
 1014 0 l 0,0,-1
743 1079 m 0,88,89
 743 1123 743 1123 731.5 1163 c 0,90,91
 720 1203 720 1203 696 1233.5 c 0,92,93
 672 1264 672 1264 636 1282 c 0,94,95
 600 1300 600 1300 551 1300 c 0,96,97
 509 1300 509 1300 475 1285 c 0,98,99
 441 1270 441 1270 417 1244 c 0,100,101
 393 1218 393 1218 380 1183 c 0,102,103
 367 1148 367 1148 367 1108 c 0,104,105
 367 1057 367 1057 386.5 1012.5 c 0,106,107
 406 968 406 968 434.5 930.5 c 0,108,109
 463 893 463 893 496 861.5 c 0,110,111
 529 830 529 830 557 803 c 0,112,113
 602 825 602 825 636.5 851.5 c 0,114,115
 671 878 671 878 694.5 911.5 c 0,116,117
 718 945 718 945 730.5 986.5 c 0,118,119
 743 1028 743 1028 743 1079 c 0,88,89
434 682 m 0,120,121
 403 661 403 661 376.5 635.5 c 0,122,123
 350 610 350 610 330 579.5 c 0,124,125
 310 549 310 549 298.5 511.5 c 0,126,127
 287 474 287 474 287 428 c 0,128,129
 287 359 287 359 310 300.5 c 0,130,131
 333 242 333 242 373 199.5 c 0,132,133
 413 157 413 157 467.5 133 c 0,134,135
 522 109 522 109 584 109 c 0,136,137
 631 109 631 109 669.5 118.5 c 0,138,139
 708 128 708 128 740.5 144 c 0,140,141
 773 160 773 160 801.5 180.5 c 0,142,143
 830 201 830 201 856 223 c 0,144,-1
 434 682 l 0,120,121
EndSplineSet
EndChar

StartChar: quotesingle
Encoding: 10 39 10
Width: 350
Flags: W
LayerCount: 2
Fore
SplineSet
193 862 m 0,0,-1
 160 862 l 0,1,-1
 88 1362 l 0,2,3
 88 1410 88 1410 110 1436 c 0,4,5
 132 1462 132 1462 174 1462 c 0,6,7
 217 1462 217 1462 239.5 1436 c 0,8,9
 262 1410 262 1410 262 1362 c 0,10,-1
 193 862 l 0,0,-1
EndSplineSet
EndChar

StartChar: parenleft
Encoding: 11 40 11
Width: 770
Flags: W
LayerCount: 2
Fore
SplineSet
702 -291 m 0,0,1
 595 -279 595 -279 510.5 -240.5 c 0,2,3
 426 -202 426 -202 361.5 -141 c 0,4,5
 297 -80 297 -80 251 -0.5 c 0,6,7
 205 79 205 79 176.5 173 c 0,8,9
 148 267 148 267 134.5 372.5 c 0,10,11
 121 478 121 478 121 590 c 0,12,13
 121 757 121 757 151.5 908.5 c 0,14,15
 182 1060 182 1060 251 1178.5 c 0,16,17
 320 1297 320 1297 430.5 1373.5 c 0,18,19
 541 1450 541 1450 702 1468 c 0,20,-1
 702 1378 l 0,21,22
 594 1360 594 1360 519.5 1298.5 c 0,23,24
 445 1237 445 1237 398.5 1136.5 c 0,25,26
 352 1036 352 1036 331.5 898 c 0,27,28
 311 760 311 760 311 590 c 0,29,30
 311 419 311 419 331.5 281 c 0,31,32
 352 143 352 143 398.5 41.5 c 0,33,34
 445 -60 445 -60 519.5 -121.5 c 0,35,36
 594 -183 594 -183 702 -201 c 0,37,-1
 702 -291 l 0,0,1
EndSplineSet
EndChar

StartChar: parenright
Encoding: 12 41 12
Width: 770
Flags: W
LayerCount: 2
Fore
SplineSet
651 590 m 0,0,1
 651 478 651 478 637.5 372.5 c 0,2,3
 624 267 624 267 595.5 173 c 0,4,5
 567 79 567 79 521 -0.5 c 0,6,7
 475 -80 475 -80 410.5 -141 c 0,8,9
 346 -202 346 -202 261.5 -240.5 c 0,10,11
 177 -279 177 -279 70 -291 c 0,12,-1
 70 -201 l 0,13,14
 178 -183 178 -183 252.5 -121.5 c 0,15,16
 327 -60 327 -60 372.5 41.5 c 0,17,18
 418 143 418 143 438.5 281 c 0,19,20
 459 419 459 419 459 590 c 0,21,22
 459 760 459 760 438.5 898 c 0,23,24
 418 1036 418 1036 372.5 1136.5 c 0,25,26
 327 1237 327 1237 252.5 1298.5 c 0,27,28
 178 1360 178 1360 70 1378 c 0,29,-1
 70 1468 l 0,30,31
 230 1450 230 1450 341 1373.5 c 0,32,33
 452 1297 452 1297 521 1178.5 c 0,34,35
 590 1060 590 1060 620.5 908.5 c 0,36,37
 651 757 651 757 651 590 c 0,0,1
EndSplineSet
EndChar

StartChar: asterisk
Encoding: 13 42 13
Width: 1024
Flags: W
LayerCount: 2
Fore
SplineSet
823 1051 m 0,0,-1
 559 1036 l 0,1,-1
 549 1065 l 0,2,-1
 770 1210 l 0,3,-1
 915 1167 l 0,4,-1
 823 1051 l 0,0,-1
526 1085 m 0,5,-1
 498 1085 l 0,6,-1
 428 1341 l 0,7,-1
 512 1466 l 0,8,-1
 598 1341 l 0,9,-1
 526 1085 l 0,5,-1
618 743 m 0,10,-1
 524 989 l 0,11,-1
 549 1008 l 0,12,-1
 756 842 l 0,13,-1
 760 690 l 0,14,-1
 618 743 l 0,10,-1
467 1036 m 0,15,-1
 201 1051 l 0,16,-1
 109 1167 l 0,17,-1
 254 1210 l 0,18,-1
 475 1065 l 0,19,-1
 467 1036 l 0,15,-1
406 743 m 0,20,-1
 264 690 l 0,21,-1
 268 842 l 0,22,-1
 475 1008 l 0,23,-1
 500 989 l 0,24,-1
 406 743 l 0,20,-1
EndSplineSet
EndChar

StartChar: plus
Encoding: 14 43 14
Width: 2048
Flags: W
LayerCount: 2
Fore
SplineSet
1087 551 m 0,0,-1
 1087 0 l 0,1,-1
 961 0 l 0,2,-1
 961 551 l 0,3,-1
 410 551 l 0,4,-1
 410 678 l 0,5,-1
 961 678 l 0,6,-1
 961 1229 l 0,7,-1
 1087 1229 l 0,8,-1
 1087 678 l 0,9,-1
 1638 678 l 0,10,-1
 1638 551 l 0,11,-1
 1087 551 l 0,0,-1
EndSplineSet
EndChar

StartChar: comma
Encoding: 15 44 15
Width: 573
Flags: W
LayerCount: 2
Fore
SplineSet
422 20 m 0,0,1
 422 -57 422 -57 392.5 -121.5 c 0,2,3
 363 -186 363 -186 313.5 -234.5 c 0,4,5
 264 -283 264 -283 200 -312.5 c 0,6,7
 136 -342 136 -342 66 -348 c 0,8,-1
 66 -274 l 0,9,10
 120 -262 120 -262 162.5 -241.5 c 0,11,12
 205 -221 205 -221 233.5 -187.5 c 0,13,14
 262 -154 262 -154 277 -105 c 0,15,16
 292 -56 292 -56 291 14 c 0,17,-1
 162 14 l 0,18,19
 160 16 160 16 154 23.5 c 0,20,21
 148 31 148 31 141.5 43 c 0,22,23
 135 55 135 55 130 71.5 c 0,24,25
 125 88 125 88 125 109 c 0,26,27
 125 136 125 136 134.5 161 c 0,28,29
 144 186 144 186 161 206 c 0,30,31
 178 226 178 226 201 238 c 0,32,33
 224 250 224 250 252 250 c 0,34,35
 296 250 296 250 328 232.5 c 0,36,37
 360 215 360 215 381 184.5 c 0,38,39
 402 154 402 154 412 111.5 c 0,40,41
 422 69 422 69 422 20 c 0,0,1
EndSplineSet
EndChar

StartChar: hyphen
Encoding: 16 45 16
Width: 655
Flags: W
LayerCount: 2
Fore
SplineSet
90 416 m 0,0,-1
 90 569 l 0,1,-1
 565 569 l 0,2,-1
 565 416 l 0,3,-1
 90 416 l 0,0,-1
EndSplineSet
EndChar

StartChar: period
Encoding: 17 46 17
Width: 573
Flags: W
LayerCount: 2
Fore
SplineSet
401 113 m 0,0,1
 401 84 401 84 390 59 c 0,2,3
 379 34 379 34 360 15.5 c 0,4,5
 341 -3 341 -3 315.5 -14 c 0,6,7
 290 -25 290 -25 262 -25 c 0,8,9
 233 -25 233 -25 208.5 -14 c 0,10,11
 184 -3 184 -3 165 15.5 c 0,12,13
 146 34 146 34 135.5 59 c 0,14,15
 125 84 125 84 125 113 c 0,16,17
 125 141 125 141 135.5 166 c 0,18,19
 146 191 146 191 165 209.5 c 0,20,21
 184 228 184 228 208.5 239 c 0,22,23
 233 250 233 250 262 250 c 0,24,25
 290 250 290 250 315.5 239 c 0,26,27
 341 228 341 228 360 209.5 c 0,28,29
 379 191 379 191 390 166 c 0,30,31
 401 141 401 141 401 113 c 0,0,1
EndSplineSet
EndChar

StartChar: slash
Encoding: 18 47 18
Width: 1004
Flags: W
LayerCount: 2
Fore
SplineSet
131 -190 m 0,0,-1
 0 -190 l 0,1,-1
 872 1374 l 0,2,-1
 1004 1374 l 0,3,-1
 131 -190 l 0,0,-1
EndSplineSet
EndChar

StartChar: zero
Encoding: 19 48 19
Width: 1153
Flags: W
LayerCount: 2
Fore
SplineSet
1071 686 m 0,0,1
 1071 539 1071 539 1040.5 408.5 c 0,2,3
 1010 278 1010 278 948.5 180 c 0,4,5
 887 82 887 82 793.5 24.5 c 0,6,7
 700 -33 700 -33 575 -33 c 0,8,9
 450 -33 450 -33 357.5 24.5 c 0,10,11
 265 82 265 82 203.5 180 c 0,12,13
 142 278 142 278 112 408.5 c 0,14,15
 82 539 82 539 82 686 c 0,16,17
 82 784 82 784 95.5 875.5 c 0,18,19
 109 967 109 967 136 1047 c 0,20,21
 163 1127 163 1127 203.5 1193 c 0,22,23
 244 1259 244 1259 299 1306.5 c 0,24,25
 354 1354 354 1354 423 1380.5 c 0,26,27
 492 1407 492 1407 575 1407 c 0,28,29
 658 1407 658 1407 727.5 1380.5 c 0,30,31
 797 1354 797 1354 852 1306.5 c 0,32,33
 907 1259 907 1259 948 1193 c 0,34,35
 989 1127 989 1127 1016.5 1047 c 0,36,37
 1044 967 1044 967 1057.5 875.5 c 0,38,39
 1071 784 1071 784 1071 686 c 0,0,1
854 686 m 0,40,41
 854 763 854 763 848.5 838.5 c 0,42,43
 843 914 843 914 830 983 c 0,44,45
 817 1052 817 1052 796 1111 c 0,46,47
 775 1170 775 1170 744 1213 c 0,48,49
 713 1256 713 1256 671 1280.5 c 0,50,51
 629 1305 629 1305 575 1305 c 0,52,53
 521 1305 521 1305 479 1280.5 c 0,54,55
 437 1256 437 1256 406.5 1213 c 0,56,57
 376 1170 376 1170 355 1111 c 0,58,59
 334 1052 334 1052 321 983 c 0,60,61
 308 914 308 914 302.5 838.5 c 0,62,63
 297 763 297 763 297 686 c 0,64,65
 297 609 297 609 302.5 533.5 c 0,66,67
 308 458 308 458 321 389.5 c 0,68,69
 334 321 334 321 355 262.5 c 0,70,71
 376 204 376 204 406.5 161.5 c 0,72,73
 437 119 437 119 479 94.5 c 0,74,75
 521 70 521 70 575 70 c 0,76,77
 629 70 629 70 671 94.5 c 0,78,79
 713 119 713 119 744 161.5 c 0,80,81
 775 204 775 204 796 262.5 c 0,82,83
 817 321 817 321 830 389.5 c 0,84,85
 843 458 843 458 848.5 533.5 c 0,86,87
 854 609 854 609 854 686 c 0,40,41
EndSplineSet
EndChar

StartChar: one
Encoding: 20 49 20
Width: 1153
Flags: W
LayerCount: 2
Fore
SplineSet
221 0 m 0,0,-1
 221 92 l 0,1,-1
 428 100 l 0,2,3
 447 100 447 100 460 113.5 c 0,4,5
 473 127 473 127 473 145 c 0,6,-1
 473 1233 l 0,7,-1
 156 1178 l 0,8,-1
 156 1270 l 0,9,-1
 598 1407 l 0,10,-1
 676 1407 l 0,11,-1
 676 145 l 0,12,13
 676 127 676 127 689 113.5 c 0,14,15
 702 100 702 100 721 100 c 0,16,-1
 913 92 l 0,17,-1
 913 0 l 0,18,-1
 221 0 l 0,0,-1
EndSplineSet
EndChar

StartChar: two
Encoding: 21 50 21
Width: 1153
Flags: W
LayerCount: 2
Fore
SplineSet
96 0 m 0,0,-1
 96 137 l 0,1,2
 252 266 252 266 383 374.5 c 0,3,4
 514 483 514 483 609.5 583.5 c 0,5,6
 705 684 705 684 758 781.5 c 0,7,8
 811 879 811 879 811 987 c 0,9,10
 811 1061 811 1061 787.5 1118.5 c 0,11,12
 764 1176 764 1176 724.5 1215.5 c 0,13,14
 685 1255 685 1255 631.5 1275.5 c 0,15,16
 578 1296 578 1296 518 1296 c 0,17,18
 482 1296 482 1296 452.5 1288 c 0,19,20
 423 1280 423 1280 401 1270 c 0,21,22
 379 1260 379 1260 365.5 1252 c 0,23,24
 352 1244 352 1244 348 1243 c 0,25,-1
 348 1016 l 0,26,27
 337 1006 337 1006 322 998 c 0,28,29
 309 991 309 991 290 986 c 0,30,31
 271 981 271 981 248 981 c 0,32,33
 224 981 224 981 202 988.5 c 0,34,35
 180 996 180 996 162.5 1011 c 0,36,37
 145 1026 145 1026 135 1048.5 c 0,38,39
 125 1071 125 1071 125 1102 c 0,40,41
 125 1166 125 1166 161.5 1222 c 0,42,43
 198 1278 198 1278 260 1319 c 0,44,45
 322 1360 322 1360 403.5 1383.5 c 0,46,47
 485 1407 485 1407 575 1407 c 0,48,49
 675 1407 675 1407 759 1378 c 0,50,51
 843 1349 843 1349 903.5 1296.5 c 0,52,53
 964 1244 964 1244 998 1170.5 c 0,54,55
 1032 1097 1032 1097 1032 1008 c 0,56,57
 1032 936 1032 936 1004.5 866 c 0,58,59
 977 796 977 796 927.5 727.5 c 0,60,61
 878 659 878 659 810.5 591 c 0,62,63
 743 523 743 523 663.5 454 c 0,64,65
 584 385 584 385 494.5 315 c 0,66,67
 405 245 405 245 313 172 c 0,68,-1
 920 172 l 0,69,-1
 956 348 l 0,70,-1
 1057 348 l 0,71,-1
 1057 0 l 0,72,-1
 96 0 l 0,0,-1
EndSplineSet
EndChar

StartChar: three
Encoding: 22 51 22
Width: 1153
Flags: W
LayerCount: 2
Fore
SplineSet
1057 391 m 0,0,1
 1057 298 1057 298 1014.5 220 c 0,2,3
 972 142 972 142 899 86 c 0,4,5
 826 30 826 30 728.5 -1.5 c 0,6,7
 631 -33 631 -33 520 -33 c 0,8,9
 416 -33 416 -33 337 -9.5 c 0,10,11
 258 14 258 14 204.5 50 c 0,12,13
 151 86 151 86 123.5 128.5 c 0,14,15
 96 171 96 171 96 209 c 0,16,17
 96 230 96 230 103.5 249.5 c 0,18,19
 111 269 111 269 126 284.5 c 0,20,21
 141 300 141 300 163.5 309.5 c 0,22,23
 186 319 186 319 217 319 c 0,24,25
 229 319 229 319 251.5 316.5 c 0,26,27
 274 314 274 314 287 305 c 0,28,-1
 348 123 l 0,29,30
 388 100 388 100 432.5 85 c 0,31,32
 477 70 477 70 526 70 c 0,33,34
 598 70 598 70 657 97 c 0,35,36
 716 124 716 124 758 169 c 0,37,38
 800 214 800 214 823 271.5 c 0,39,40
 846 329 846 329 846 391 c 0,41,42
 846 466 846 466 817 515.5 c 0,43,44
 788 565 788 565 743 594.5 c 0,45,46
 698 624 698 624 644 636.5 c 0,47,48
 590 649 590 649 539 649 c 0,49,50
 512 649 512 649 489 648 c 0,51,52
 466 647 466 647 449 645 c 0,53,54
 430 643 430 643 414 641 c 0,55,-1
 414 768 l 0,56,57
 417 768 417 768 434 767 c 0,58,59
 451 766 451 766 467 766 c 0,60,61
 531 766 531 766 590.5 781.5 c 0,62,63
 650 797 650 797 695.5 828.5 c 0,64,65
 741 860 741 860 768 909 c 0,66,67
 795 958 795 958 795 1026 c 0,68,69
 795 1090 795 1090 772.5 1140 c 0,70,71
 750 1190 750 1190 713 1224.5 c 0,72,73
 676 1259 676 1259 627 1276.5 c 0,74,75
 578 1294 578 1294 526 1294 c 0,76,77
 485 1294 485 1294 451 1285 c 0,78,79
 417 1276 417 1276 393 1265 c 0,80,81
 364 1253 364 1253 342 1237 c 0,82,-1
 342 1032 l 0,83,84
 336 1029 336 1029 312 1017.5 c 0,85,86
 288 1006 288 1006 250 1006 c 0,87,88
 232 1006 232 1006 211 1011.5 c 0,89,90
 190 1017 190 1017 172 1030 c 0,91,92
 154 1043 154 1043 142.5 1065 c 0,93,94
 131 1087 131 1087 131 1120 c 0,95,96
 131 1178 131 1178 167 1230.5 c 0,97,98
 203 1283 203 1283 265 1322 c 0,99,100
 327 1361 327 1361 409.5 1384 c 0,101,102
 492 1407 492 1407 584 1407 c 0,103,104
 673 1407 673 1407 749.5 1382 c 0,105,106
 826 1357 826 1357 882.5 1311 c 0,107,108
 939 1265 939 1265 971.5 1199.5 c 0,109,110
 1004 1134 1004 1134 1004 1053 c 0,111,112
 1004 937 1004 937 922.5 851.5 c 0,113,114
 841 766 841 766 688 723 c 0,115,116
 752 720 752 720 818 699.5 c 0,117,118
 884 679 884 679 937 638.5 c 0,119,120
 990 598 990 598 1023.5 536.5 c 0,121,122
 1057 475 1057 475 1057 391 c 0,0,1
EndSplineSet
EndChar

StartChar: four
Encoding: 23 52 23
Width: 1153
Flags: W
LayerCount: 2
Fore
SplineSet
897 408 m 0,0,-1
 897 -33 l 0,1,-1
 705 -33 l 0,2,-1
 705 408 l 0,3,-1
 82 408 l 0,4,-1
 82 549 l 0,5,-1
 754 1407 l 0,6,-1
 897 1407 l 0,7,-1
 897 547 l 0,8,-1
 1071 547 l 0,9,-1
 1071 408 l 0,10,-1
 897 408 l 0,0,-1
705 1145 m 0,11,-1
 244 547 l 0,12,-1
 705 547 l 0,13,-1
 705 1145 l 0,11,-1
EndSplineSet
EndChar

StartChar: five
Encoding: 24 53 24
Width: 1153
Flags: W
LayerCount: 2
Fore
SplineSet
1059 444 m 0,0,1
 1059 340 1059 340 1021.5 252.5 c 0,2,3
 984 165 984 165 911 101.5 c 0,4,5
 838 38 838 38 730 2.5 c 0,6,7
 622 -33 622 -33 481 -33 c 0,8,9
 401 -33 401 -33 330.5 -10 c 0,10,11
 260 13 260 13 207 48 c 0,12,13
 154 83 154 83 123 126 c 0,14,15
 92 169 92 169 92 209 c 0,16,17
 92 265 92 265 128.5 294.5 c 0,18,19
 165 324 165 324 221 324 c 0,20,21
 238 324 238 324 254 320.5 c 0,22,23
 270 317 270 317 276 315 c 0,24,-1
 354 127 l 0,25,26
 366 115 366 115 386 104.5 c 0,27,28
 406 94 406 94 428 86 c 0,29,30
 450 78 450 78 472 73 c 0,31,32
 494 68 494 68 512 68 c 0,33,34
 593 68 593 68 656 98.5 c 0,35,36
 719 129 719 129 762 177 c 0,37,38
 805 225 805 225 827.5 283 c 0,39,40
 850 341 850 341 850 395 c 0,41,42
 850 481 850 481 823 544.5 c 0,43,44
 796 608 796 608 749 650 c 0,45,46
 702 692 702 692 638 712.5 c 0,47,48
 574 733 574 733 500 733 c 0,49,50
 449 733 449 733 392.5 722 c 0,51,52
 336 711 336 711 287 698 c 0,53,54
 230 683 230 683 174 664 c 0,55,-1
 174 1374 l 0,56,-1
 965 1374 l 0,57,-1
 965 1200 l 0,58,-1
 319 1200 l 0,59,-1
 319 811 l 0,60,61
 321 811 321 811 345 819.5 c 0,62,63
 369 828 369 828 408 837.5 c 0,64,65
 447 847 447 847 496 855.5 c 0,66,67
 545 864 545 864 596 864 c 0,68,69
 703 864 703 864 788.5 835.5 c 0,70,71
 874 807 874 807 934 753 c 0,72,73
 994 699 994 699 1026.5 621 c 0,74,75
 1059 543 1059 543 1059 444 c 0,0,1
EndSplineSet
EndChar

StartChar: six
Encoding: 25 54 25
Width: 1153
Flags: W
LayerCount: 2
Fore
SplineSet
1071 469 m 0,0,1
 1071 357 1071 357 1032 264.5 c 0,2,3
 993 172 993 172 925.5 106 c 0,4,5
 858 40 858 40 767.5 3.5 c 0,6,7
 677 -33 677 -33 573 -33 c 0,8,9
 469 -33 469 -33 379.5 1 c 0,10,11
 290 35 290 35 224 109 c 0,12,13
 158 183 158 183 120 301.5 c 0,14,15
 82 420 82 420 82 588 c 0,16,17
 82 771 82 771 137 922 c 0,18,19
 192 1073 192 1073 296.5 1181 c 0,20,21
 401 1289 401 1289 553.5 1348 c 0,22,23
 706 1407 706 1407 901 1407 c 0,24,-1
 901 1280 l 0,25,-1
 831 1282 l 0,26,27
 733 1285 733 1285 644.5 1250.5 c 0,28,29
 556 1216 556 1216 485.5 1149 c 0,30,31
 415 1082 415 1082 367 985 c 0,32,33
 319 888 319 888 303 766 c 0,34,35
 388 839 388 839 473.5 867 c 0,36,37
 559 895 559 895 645 895 c 0,38,39
 742 895 742 895 820.5 862.5 c 0,40,41
 899 830 899 830 954.5 773 c 0,42,43
 1010 716 1010 716 1040.5 638 c 0,44,45
 1071 560 1071 560 1071 469 c 0,0,1
862 442 m 0,46,47
 862 517 862 517 842.5 576.5 c 0,48,49
 823 636 823 636 785.5 677.5 c 0,50,51
 748 719 748 719 694.5 740.5 c 0,52,53
 641 762 641 762 573 762 c 0,54,55
 540 762 540 762 504 754.5 c 0,56,57
 468 747 468 747 432 733.5 c 0,58,59
 396 720 396 720 361.5 701 c 0,60,61
 327 682 327 682 297 659 c 0,62,63
 294 627 294 627 293.5 598.5 c 0,64,65
 293 570 293 570 293 547 c 0,66,67
 293 442 293 442 309 355 c 0,68,69
 325 268 325 268 359.5 205.5 c 0,70,71
 394 143 394 143 446.5 108.5 c 0,72,73
 499 74 499 74 573 74 c 0,74,75
 647 74 647 74 701.5 103 c 0,76,77
 756 132 756 132 791.5 181.5 c 0,78,79
 827 231 827 231 844.5 298 c 0,80,81
 862 365 862 365 862 442 c 0,46,47
EndSplineSet
EndChar

StartChar: seven
Encoding: 26 55 26
Width: 1153
Flags: W
LayerCount: 2
Fore
SplineSet
395 35 m 0,0,-1
 395 -33 l 0,1,-1
 178 -33 l 0,2,-1
 854 1200 l 0,3,-1
 223 1200 l 0,4,-1
 190 1014 l 0,5,-1
 86 1014 l 0,6,-1
 86 1374 l 0,7,-1
 1067 1374 l 0,8,-1
 1067 1260 l 0,9,-1
 395 35 l 0,0,-1
EndSplineSet
EndChar

StartChar: eight
Encoding: 27 56 27
Width: 1153
Flags: W
LayerCount: 2
Fore
SplineSet
1069 373 m 0,0,1
 1069 285 1069 285 1031.5 210.5 c 0,2,3
 994 136 994 136 928 82 c 0,4,5
 862 28 862 28 771.5 -2.5 c 0,6,7
 681 -33 681 -33 575 -33 c 0,8,9
 462 -33 462 -33 371 -3 c 0,10,11
 280 27 280 27 215.5 81 c 0,12,13
 151 135 151 135 116.5 208.5 c 0,14,15
 82 282 82 282 82 369 c 0,16,17
 82 439 82 439 106.5 493 c 0,18,19
 131 547 131 547 171.5 588 c 0,20,21
 212 629 212 629 265 659 c 0,22,23
 318 689 318 689 375 711 c 0,24,25
 333 728 333 728 290.5 756 c 0,26,27
 248 784 248 784 214 823 c 0,28,29
 180 862 180 862 158.5 911.5 c 0,30,31
 137 961 137 961 137 1022 c 0,32,33
 137 1110 137 1110 168.5 1181 c 0,34,35
 200 1252 200 1252 257.5 1302.5 c 0,36,37
 315 1353 315 1353 396 1380 c 0,38,39
 477 1407 477 1407 575 1407 c 0,40,41
 669 1407 669 1407 749 1380 c 0,42,43
 829 1353 829 1353 888 1305.5 c 0,44,45
 947 1258 947 1258 980.5 1193.5 c 0,46,47
 1014 1129 1014 1129 1014 1055 c 0,48,49
 1014 990 1014 990 989.5 937 c 0,50,51
 965 884 965 884 928 843 c 0,52,53
 891 802 891 802 847 772 c 0,54,55
 803 742 803 742 764 723 c 0,56,57
 813 705 813 705 867 677.5 c 0,58,59
 921 650 921 650 966 608 c 0,60,61
 1011 566 1011 566 1040 508.5 c 0,62,63
 1069 451 1069 451 1069 373 c 0,0,1
825 1036 m 0,64,65
 825 1099 825 1099 805 1148.5 c 0,66,67
 785 1198 785 1198 751 1232.5 c 0,68,69
 717 1267 717 1267 671.5 1285 c 0,70,71
 626 1303 626 1303 575 1303 c 0,72,73
 523 1303 523 1303 479.5 1283.5 c 0,74,75
 436 1264 436 1264 405 1232 c 0,76,77
 374 1200 374 1200 357 1157.5 c 0,78,79
 340 1115 340 1115 340 1069 c 0,80,81
 340 1015 340 1015 363 971.5 c 0,82,83
 386 928 386 928 429 891 c 0,84,85
 472 854 472 854 534.5 822.5 c 0,86,87
 597 791 597 791 676 762 c 0,88,89
 707 785 707 785 734.5 813 c 0,90,91
 762 841 762 841 782 875 c 0,92,93
 802 909 802 909 813.5 949 c 0,94,95
 825 989 825 989 825 1036 c 0,64,65
862 340 m 0,96,97
 862 404 862 404 835 448.5 c 0,98,99
 808 493 808 493 756 528.5 c 0,100,101
 704 564 704 564 629 595.5 c 0,102,103
 554 627 554 627 457 666 c 0,104,105
 418 645 418 645 384.5 619 c 0,106,107
 351 593 351 593 326 559.5 c 0,108,109
 301 526 301 526 286.5 483 c 0,110,111
 272 440 272 440 272 385 c 0,112,113
 272 319 272 319 291.5 263 c 0,114,115
 311 207 311 207 349 165.5 c 0,116,117
 387 124 387 124 444 101 c 0,118,119
 501 78 501 78 575 78 c 0,120,121
 641 78 641 78 694.5 99.5 c 0,122,123
 748 121 748 121 785 157.5 c 0,124,125
 822 194 822 194 842 241.5 c 0,126,127
 862 289 862 289 862 340 c 0,96,97
EndSplineSet
EndChar

StartChar: nine
Encoding: 28 57 28
Width: 1153
Flags: W
LayerCount: 2
Fore
SplineSet
1071 786 m 0,0,1
 1071 603 1071 603 1016 452 c 0,2,3
 961 301 961 301 855.5 193 c 0,4,5
 750 85 750 85 597.5 26 c 0,6,7
 445 -33 445 -33 250 -33 c 0,8,-1
 250 94 l 0,9,-1
 319 92 l 0,10,11
 417 89 417 89 506 123.5 c 0,12,13
 595 158 595 158 666 225 c 0,14,15
 737 292 737 292 785.5 389 c 0,16,17
 834 486 834 486 850 608 c 0,18,19
 808 571 808 571 765 546.5 c 0,20,21
 722 522 722 522 679.5 507 c 0,22,23
 637 492 637 492 594 485.5 c 0,24,25
 551 479 551 479 508 479 c 0,26,27
 411 479 411 479 332.5 511 c 0,28,29
 254 543 254 543 198.5 599.5 c 0,30,31
 143 656 143 656 112.5 733.5 c 0,32,33
 82 811 82 811 82 903 c 0,34,35
 82 1015 82 1015 120.5 1108 c 0,36,37
 159 1201 159 1201 226 1267.5 c 0,38,39
 293 1334 293 1334 383.5 1370.5 c 0,40,41
 474 1407 474 1407 578 1407 c 0,42,43
 681 1407 681 1407 771 1373 c 0,44,45
 861 1339 861 1339 928 1265 c 0,46,47
 995 1191 995 1191 1033 1072.5 c 0,48,49
 1071 954 1071 954 1071 786 c 0,0,1
858 827 m 0,50,51
 858 932 858 932 842 1019 c 0,52,53
 826 1106 826 1106 791.5 1168.5 c 0,54,55
 757 1231 757 1231 704 1265.5 c 0,56,57
 651 1300 651 1300 578 1300 c 0,58,59
 504 1300 504 1300 449.5 1271.5 c 0,60,61
 395 1243 395 1243 359.5 1193 c 0,62,63
 324 1143 324 1143 306.5 1076 c 0,64,65
 289 1009 289 1009 289 932 c 0,66,67
 289 857 289 857 308.5 797.5 c 0,68,69
 328 738 328 738 365.5 696.5 c 0,70,71
 403 655 403 655 456.5 633.5 c 0,72,73
 510 612 510 612 578 612 c 0,74,75
 611 612 611 612 647 619.5 c 0,76,77
 683 627 683 627 719 640.5 c 0,78,79
 755 654 755 654 789.5 673 c 0,80,81
 824 692 824 692 854 715 c 0,82,83
 857 747 857 747 857.5 775.5 c 0,84,85
 858 804 858 804 858 827 c 0,50,51
EndSplineSet
EndChar

StartChar: colon
Encoding: 29 58 29
Width: 573
Flags: W
LayerCount: 2
Fore
SplineSet
401 874 m 0,0,1
 401 846 401 846 390 821 c 0,2,3
 379 796 379 796 360 777.5 c 0,4,5
 341 759 341 759 315.5 748 c 0,6,7
 290 737 290 737 262 737 c 0,8,9
 233 737 233 737 208.5 748 c 0,10,11
 184 759 184 759 165 777.5 c 0,12,13
 146 796 146 796 135.5 821 c 0,14,15
 125 846 125 846 125 874 c 0,16,17
 125 902 125 902 135.5 927.5 c 0,18,19
 146 953 146 953 165 971.5 c 0,20,21
 184 990 184 990 208.5 1001 c 0,22,23
 233 1012 233 1012 262 1012 c 0,24,25
 290 1012 290 1012 315.5 1001 c 0,26,27
 341 990 341 990 360 971.5 c 0,28,29
 379 953 379 953 390 927.5 c 0,30,31
 401 902 401 902 401 874 c 0,0,1
401 113 m 0,32,33
 401 84 401 84 390 59 c 0,34,35
 379 34 379 34 360 15.5 c 0,36,37
 341 -3 341 -3 315.5 -14 c 0,38,39
 290 -25 290 -25 262 -25 c 0,40,41
 233 -25 233 -25 208.5 -14 c 0,42,43
 184 -3 184 -3 165 15.5 c 0,44,45
 146 34 146 34 135.5 59 c 0,46,47
 125 84 125 84 125 113 c 0,48,49
 125 141 125 141 135.5 166 c 0,50,51
 146 191 146 191 165 209.5 c 0,52,53
 184 228 184 228 208.5 239 c 0,54,55
 233 250 233 250 262 250 c 0,56,57
 290 250 290 250 315.5 239 c 0,58,59
 341 228 341 228 360 209.5 c 0,60,61
 379 191 379 191 390 166 c 0,62,63
 401 141 401 141 401 113 c 0,32,33
EndSplineSet
EndChar

StartChar: semicolon
Encoding: 30 59 30
Width: 573
Flags: W
LayerCount: 2
Fore
SplineSet
399 874 m 0,0,1
 399 846 399 846 388.5 821 c 0,2,3
 378 796 378 796 359 777.5 c 0,4,5
 340 759 340 759 315 748 c 0,6,7
 290 737 290 737 262 737 c 0,8,9
 233 737 233 737 208.5 748 c 0,10,11
 184 759 184 759 165 777.5 c 0,12,13
 146 796 146 796 135.5 821 c 0,14,15
 125 846 125 846 125 874 c 0,16,17
 125 902 125 902 136 927.5 c 0,18,19
 147 953 147 953 166 971.5 c 0,20,21
 185 990 185 990 210 1001 c 0,22,23
 235 1012 235 1012 264 1012 c 0,24,25
 292 1012 292 1012 317 1001 c 0,26,27
 342 990 342 990 360 971.5 c 0,28,29
 378 953 378 953 388.5 927.5 c 0,30,31
 399 902 399 902 399 874 c 0,0,1
422 20 m 0,32,33
 422 -57 422 -57 392.5 -121.5 c 0,34,35
 363 -186 363 -186 313.5 -234.5 c 0,36,37
 264 -283 264 -283 200 -312.5 c 0,38,39
 136 -342 136 -342 66 -348 c 0,40,-1
 66 -274 l 0,41,42
 120 -262 120 -262 162.5 -241.5 c 0,43,44
 205 -221 205 -221 233.5 -187.5 c 0,45,46
 262 -154 262 -154 277 -105 c 0,47,48
 292 -56 292 -56 291 14 c 0,49,-1
 162 14 l 0,50,51
 160 16 160 16 154 23.5 c 0,52,53
 148 31 148 31 141.5 43 c 0,54,55
 135 55 135 55 130 71.5 c 0,56,57
 125 88 125 88 125 109 c 0,58,59
 125 136 125 136 134.5 161 c 0,60,61
 144 186 144 186 161 206 c 0,62,63
 178 226 178 226 201 238 c 0,64,65
 224 250 224 250 252 250 c 0,66,67
 296 250 296 250 328 232.5 c 0,68,69
 360 215 360 215 381 184.5 c 0,70,71
 402 154 402 154 412 111.5 c 0,72,73
 422 69 422 69 422 20 c 0,32,33
EndSplineSet
EndChar

StartChar: less
Encoding: 31 60 31
Width: 2048
Flags: W
LayerCount: 2
Fore
SplineSet
410 551 m 0,0,-1
 410 678 l 0,1,-1
 1638 1149 l 0,2,-1
 1638 1022 l 0,3,-1
 541 614 l 0,4,-1
 1638 207 l 0,5,-1
 1638 80 l 0,6,-1
 410 551 l 0,0,-1
EndSplineSet
EndChar

StartChar: equal
Encoding: 32 61 32
Width: 2048
Flags: W
LayerCount: 2
Fore
SplineSet
410 737 m 0,0,-1
 410 864 l 0,1,-1
 1638 864 l 0,2,-1
 1638 737 l 0,3,-1
 410 737 l 0,0,-1
410 365 m 0,4,-1
 410 492 l 0,5,-1
 1638 492 l 0,6,-1
 1638 365 l 0,7,-1
 410 365 l 0,4,-1
EndSplineSet
EndChar

StartChar: greater
Encoding: 33 62 33
Width: 2048
Flags: W
LayerCount: 2
Fore
SplineSet
410 80 m 0,0,-1
 410 207 l 0,1,-1
 1507 614 l 0,2,-1
 410 1022 l 0,3,-1
 410 1149 l 0,4,-1
 1638 678 l 0,5,-1
 1638 551 l 0,6,-1
 410 80 l 0,0,-1
EndSplineSet
EndChar

StartChar: question
Encoding: 34 63 34
Width: 995
Flags: W
LayerCount: 2
Fore
SplineSet
537 100 m 0,0,1
 537 74 537 74 527 51.5 c 0,2,3
 517 29 517 29 499.5 12 c 0,4,5
 482 -5 482 -5 459 -15 c 0,6,7
 436 -25 436 -25 410 -25 c 0,8,9
 384 -25 384 -25 361 -15 c 0,10,11
 338 -5 338 -5 321 12.5 c 0,12,13
 304 30 304 30 294.5 53 c 0,14,15
 285 76 285 76 285 102 c 0,16,17
 285 128 285 128 294.5 151 c 0,18,19
 304 174 304 174 321 191 c 0,20,21
 338 208 338 208 361 217.5 c 0,22,23
 384 227 384 227 410 227 c 0,24,25
 437 227 437 227 460 217 c 0,26,27
 483 207 483 207 500 189.5 c 0,28,29
 517 172 517 172 527 149 c 0,30,31
 537 126 537 126 537 100 c 0,0,1
854 1040 m 0,32,33
 854 975 854 975 836 921.5 c 0,34,35
 818 868 818 868 788 824.5 c 0,36,37
 758 781 758 781 718.5 746.5 c 0,38,39
 679 712 679 712 636 684.5 c 0,40,41
 593 657 593 657 548.5 635 c 0,42,43
 504 613 504 613 465 596 c 0,44,-1
 465 369 l 0,45,-1
 350 369 l 0,46,-1
 350 666 l 0,47,48
 398 682 398 682 450.5 711.5 c 0,49,50
 503 741 503 741 546.5 785 c 0,51,52
 590 829 590 829 618.5 888.5 c 0,53,54
 647 948 647 948 647 1024 c 0,55,56
 647 1167 647 1167 571 1237 c 0,57,58
 495 1307 495 1307 354 1307 c 0,59,-1
 270 1098 l 0,60,61
 261 1097 261 1097 254 1097 c 0,62,63
 248 1096 248 1096 243 1096 c 0,64,-1
 236 1096 l 0,65,66
 208 1096 208 1096 183.5 1102 c 0,67,68
 159 1108 159 1108 141 1121.5 c 0,69,70
 123 1135 123 1135 112.5 1156 c 0,71,72
 102 1177 102 1177 102 1206 c 0,73,74
 102 1242 102 1242 121.5 1278 c 0,75,76
 141 1314 141 1314 181.5 1342.5 c 0,77,78
 222 1371 222 1371 283 1389 c 0,79,80
 344 1407 344 1407 428 1407 c 0,81,82
 519 1407 519 1407 597 1381 c 0,83,84
 675 1355 675 1355 732 1307.5 c 0,85,86
 789 1260 789 1260 821.5 1192 c 0,87,88
 854 1124 854 1124 854 1040 c 0,32,33
EndSplineSet
EndChar

StartChar: at
Encoding: 35 64 35
Width: 1917
Flags: W
LayerCount: 2
Fore
SplineSet
1769 764 m 0,0,1
 1769 660 1769 660 1746.5 571.5 c 0,2,3
 1724 483 1724 483 1685.5 411 c 0,4,5
 1647 339 1647 339 1596.5 283.5 c 0,6,7
 1546 228 1546 228 1490.5 190.5 c 0,8,9
 1435 153 1435 153 1378 134 c 0,10,11
 1321 115 1321 115 1270 115 c 0,12,13
 1185 115 1185 115 1147.5 157.5 c 0,14,15
 1110 200 1110 200 1110 285 c 0,16,17
 1030 204 1030 204 957.5 160.5 c 0,18,19
 885 117 885 117 813 117 c 0,20,21
 757 117 757 117 710 140.5 c 0,22,23
 663 164 663 164 629 207.5 c 0,24,25
 595 251 595 251 576 312.5 c 0,26,27
 557 374 557 374 557 451 c 0,28,29
 557 568 557 568 600.5 670 c 0,30,31
 644 772 644 772 715.5 847 c 0,32,33
 787 922 787 922 878.5 965 c 0,34,35
 970 1008 970 1008 1067 1008 c 0,36,37
 1089 1008 1089 1008 1115 1004 c 0,38,39
 1141 1000 1141 1000 1167.5 992.5 c 0,40,41
 1194 985 1194 985 1219.5 974.5 c 0,42,43
 1245 964 1245 964 1268 952 c 0,44,-1
 1305 999 l 0,45,-1
 1419 999 l 0,46,47
 1417 993 1417 993 1410 963.5 c 0,48,49
 1403 934 1403 934 1393 890.5 c 0,50,51
 1383 847 1383 847 1370.5 792.5 c 0,52,53
 1358 738 1358 738 1346 683 c 0,54,55
 1316 553 1316 553 1280 391 c 0,56,57
 1271 356 1271 356 1271 326.5 c 0,58,59
 1271 297 1271 297 1280 276 c 0,60,61
 1289 255 1289 255 1308 243 c 0,62,63
 1327 231 1327 231 1356 231 c 0,64,65
 1401 231 1401 231 1456 268 c 0,66,67
 1511 305 1511 305 1558 374 c 0,68,69
 1605 443 1605 443 1637 541.5 c 0,70,71
 1669 640 1669 640 1669 762 c 0,72,73
 1669 906 1669 906 1620 1012 c 0,74,75
 1571 1118 1571 1118 1490.5 1187.5 c 0,76,77
 1410 1257 1410 1257 1307 1291 c 0,78,79
 1204 1325 1204 1325 1096 1325 c 0,80,81
 979 1325 979 1325 874.5 1297.5 c 0,82,83
 770 1270 770 1270 681.5 1219.5 c 0,84,85
 593 1169 593 1169 521.5 1097 c 0,86,87
 450 1025 450 1025 400.5 936 c 0,88,89
 351 847 351 847 324 743.5 c 0,90,91
 297 640 297 640 297 526 c 0,92,93
 297 370 297 370 345.5 235 c 0,94,95
 394 100 394 100 486 1 c 0,96,97
 578 -98 578 -98 711 -154.5 c 0,98,99
 844 -211 844 -211 1014 -211 c 0,100,101
 1104 -211 1104 -211 1182 -197 c 0,102,103
 1260 -183 1260 -183 1327 -161 c 0,104,105
 1394 -139 1394 -139 1450.5 -112 c 0,106,107
 1507 -85 1507 -85 1554 -59 c 0,108,-1
 1583 -133 l 0,109,110
 1514 -170 1514 -170 1442 -202.5 c 0,111,112
 1370 -235 1370 -235 1293.5 -259.5 c 0,113,114
 1217 -284 1217 -284 1135.5 -298.5 c 0,115,116
 1054 -313 1054 -313 965 -313 c 0,117,118
 855 -313 855 -313 752 -288 c 0,119,120
 649 -263 649 -263 558.5 -215.5 c 0,121,122
 468 -168 468 -168 393 -98.5 c 0,123,124
 318 -29 318 -29 264 60 c 0,125,126
 210 149 210 149 180 257 c 0,127,128
 150 365 150 365 150 489 c 0,129,130
 150 641 150 641 186.5 768.5 c 0,131,132
 223 896 223 896 287 999 c 0,133,134
 351 1102 351 1102 438.5 1180 c 0,135,136
 526 1258 526 1258 628 1310 c 0,137,138
 730 1362 730 1362 842.5 1388.5 c 0,139,140
 955 1415 955 1415 1069 1415 c 0,141,142
 1221 1415 1221 1415 1349.5 1372.5 c 0,143,144
 1478 1330 1478 1330 1571 1247.5 c 0,145,146
 1664 1165 1664 1165 1716.5 1043.5 c 0,147,148
 1769 922 1769 922 1769 764 c 0,0,1
1196 805 m 0,149,150
 1199 818 1199 818 1191 838 c 0,151,152
 1183 858 1183 858 1166.5 876.5 c 0,153,154
 1150 895 1150 895 1126.5 908.5 c 0,155,156
 1103 922 1103 922 1075 922 c 0,157,158
 999 922 999 922 938 886.5 c 0,159,160
 877 851 877 851 834 789.5 c 0,161,162
 791 728 791 728 768 645.5 c 0,163,164
 745 563 745 563 745 469 c 0,165,166
 745 358 745 358 786.5 303 c 0,167,168
 828 248 828 248 905 248 c 0,169,170
 939 248 939 248 970 261.5 c 0,171,172
 1001 275 1001 275 1027.5 295 c 0,173,174
 1054 315 1054 315 1076 338 c 0,175,176
 1098 361 1098 361 1114 381 c 0,177,-1
 1196 805 l 0,149,150
EndSplineSet
EndChar

StartChar: A
Encoding: 36 65 36
Width: 1380
Flags: W
LayerCount: 2
Fore
SplineSet
883 0 m 0,0,-1
 883 88 l 0,1,-1
 1001 98 l 0,2,3
 1011 98 1011 98 1018 111.5 c 0,4,5
 1025 125 1025 125 1022 133 c 0,6,-1
 881 508 l 0,7,-1
 408 508 l 0,8,-1
 272 139 l 0,9,10
 270 133 270 133 272 126 c 0,11,12
 274 119 274 119 279 112.5 c 0,13,14
 284 106 284 106 290 102 c 0,15,16
 296 98 296 98 301 98 c 0,17,-1
 422 88 l 0,18,-1
 422 0 l 0,19,-1
 10 0 l 0,20,-1
 10 88 l 0,21,-1
 129 113 l 0,22,-1
 606 1407 l 0,23,-1
 760 1407 l 0,24,-1
 1235 143 l 0,25,26
 1242 122 1242 122 1248.5 115 c 0,27,28
 1255 108 1255 108 1278 104 c 0,29,-1
 1370 88 l 0,30,-1
 1370 0 l 0,31,-1
 883 0 l 0,0,-1
643 1143 m 0,32,-1
 444 606 l 0,33,-1
 844 606 l 0,34,-1
 643 1143 l 0,32,-1
EndSplineSet
EndChar

StartChar: B
Encoding: 37 66 37
Width: 1239
Flags: W
LayerCount: 2
Fore
SplineSet
854 1030 m 0,0,1
 854 1151 854 1151 776 1215.5 c 0,2,3
 698 1280 698 1280 539 1280 c 0,4,5
 523 1280 523 1280 504.5 1279 c 0,6,7
 486 1278 486 1278 469.5 1277 c 0,8,9
 453 1276 453 1276 440 1275 c 0,10,11
 427 1274 427 1274 422 1274 c 0,12,-1
 422 756 l 0,13,14
 436 755 436 755 450 755 c 0,15,16
 462 754 462 754 474 754 c 0,17,-1
 496 754 l 0,18,19
 596 754 596 754 664.5 772.5 c 0,20,21
 733 791 733 791 775 826 c 0,22,23
 817 861 817 861 835.5 912.5 c 0,24,25
 854 964 854 964 854 1030 c 0,0,1
936 389 m 0,26,27
 936 529 936 529 853 594 c 0,28,29
 770 659 770 659 606 659 c 0,30,31
 581 659 581 659 550.5 657 c 0,32,33
 520 655 520 655 493 653 c 0,34,35
 466 651 466 651 446 649 c 0,36,37
 426 647 426 647 422 647 c 0,38,-1
 422 106 l 0,39,40
 447 104 447 104 471 103 c 0,41,42
 491 101 491 101 512.5 100.5 c 0,43,44
 534 100 534 100 549 100 c 0,45,46
 657 100 657 100 730.5 118 c 0,47,48
 804 136 804 136 850 172 c 0,49,50
 896 208 896 208 916 262 c 0,51,52
 936 316 936 316 936 389 c 0,26,27
1159 406 m 0,53,54
 1159 323 1159 323 1135.5 260.5 c 0,55,56
 1112 198 1112 198 1072 153 c 0,57,58
 1032 108 1032 108 979.5 78.5 c 0,59,60
 927 49 927 49 869.5 31.5 c 0,61,62
 812 14 812 14 752.5 7 c 0,63,64
 693 0 693 0 639 0 c 0,65,-1
 66 0 l 0,66,-1
 66 88 l 0,67,-1
 174 96 l 0,68,69
 196 98 196 98 206.5 112 c 0,70,71
 217 126 217 126 217 141 c 0,72,-1
 217 1233 l 0,73,74
 217 1248 217 1248 206.5 1262 c 0,75,76
 196 1276 196 1276 174 1278 c 0,77,-1
 66 1286 l 0,78,-1
 66 1374 l 0,79,-1
 614 1374 l 0,80,81
 736 1374 736 1374 823.5 1351.5 c 0,82,83
 911 1329 911 1329 967 1286 c 0,84,85
 1023 1243 1023 1243 1049 1182 c 0,86,87
 1075 1121 1075 1121 1075 1044 c 0,88,89
 1075 967 1075 967 1046 913 c 0,90,91
 1017 859 1017 859 973 822 c 0,92,93
 929 785 929 785 877 763 c 0,94,95
 825 741 825 741 780 729 c 0,96,97
 849 729 849 729 916.5 712.5 c 0,98,99
 984 696 984 696 1038 658 c 0,100,101
 1092 620 1092 620 1125.5 558 c 0,102,103
 1159 496 1159 496 1159 406 c 0,53,54
EndSplineSet
EndChar

StartChar: C
Encoding: 38 67 38
Width: 1284
Flags: W
LayerCount: 2
Fore
SplineSet
1204 47 m 0,0,1
 1200 45 1200 45 1165 32.5 c 0,2,3
 1130 20 1130 20 1074 5.5 c 0,4,5
 1018 -9 1018 -9 945.5 -21 c 0,6,7
 873 -33 873 -33 795 -33 c 0,8,9
 680 -33 680 -33 582.5 -5.5 c 0,10,11
 485 22 485 22 405.5 71 c 0,12,13
 326 120 326 120 265.5 188 c 0,14,15
 205 256 205 256 163.5 336 c 0,16,17
 122 416 122 416 101 506 c 0,18,19
 80 596 80 596 80 690 c 0,20,21
 80 849 80 849 132 981 c 0,22,23
 184 1113 184 1113 278 1207.5 c 0,24,25
 372 1302 372 1302 504 1354.5 c 0,26,27
 636 1407 636 1407 797 1407 c 0,28,29
 847 1407 847 1407 893.5 1401.5 c 0,30,31
 940 1396 940 1396 988 1386 c 0,32,33
 1036 1376 1036 1376 1089 1361 c 0,34,35
 1142 1346 1142 1346 1204 1327 c 0,36,-1
 1204 1006 l 0,37,-1
 1081 1006 l 0,38,-1
 1051 1192 l 0,39,40
 1049 1206 1049 1206 1037 1220 c 0,41,42
 1025 1234 1025 1234 1016 1239 c 0,43,44
 1004 1244 1004 1244 984.5 1253 c 0,45,46
 965 1262 965 1262 938 1270.5 c 0,47,48
 911 1279 911 1279 878 1285.5 c 0,49,50
 845 1292 845 1292 807 1292 c 0,51,52
 702 1292 702 1292 612 1253 c 0,53,54
 522 1214 522 1214 456 1138 c 0,55,56
 390 1062 390 1062 352.5 949.5 c 0,57,58
 315 837 315 837 315 690 c 0,59,60
 315 547 315 547 350.5 434 c 0,61,62
 386 321 386 321 453 242 c 0,63,64
 520 163 520 163 616 121.5 c 0,65,66
 712 80 712 80 834 80 c 0,67,68
 870 80 870 80 899.5 85 c 0,69,70
 929 90 929 90 951 96.5 c 0,71,72
 973 103 973 103 985 108.5 c 0,73,74
 997 114 997 114 999 115 c 0,75,76
 1015 121 1015 121 1025 132 c 0,77,78
 1035 143 1035 143 1038 156 c 0,79,-1
 1085 379 l 0,80,-1
 1204 379 l 0,81,-1
 1204 47 l 0,0,1
EndSplineSet
EndChar

StartChar: D
Encoding: 39 68 39
Width: 1425
Flags: W
LayerCount: 2
Fore
SplineSet
1346 690 m 0,0,1
 1346 600 1346 600 1329 514.5 c 0,2,3
 1312 429 1312 429 1276 352 c 0,4,5
 1240 275 1240 275 1183.5 210.5 c 0,6,7
 1127 146 1127 146 1048 99 c 0,8,9
 969 52 969 52 866.5 26 c 0,10,11
 764 0 764 0 635 0 c 0,12,-1
 66 0 l 0,13,-1
 66 88 l 0,14,-1
 174 96 l 0,15,16
 196 98 196 98 207.5 112 c 0,17,18
 219 126 219 126 219 141 c 0,19,-1
 219 1233 l 0,20,21
 219 1248 219 1248 207.5 1262 c 0,22,23
 196 1276 196 1276 174 1278 c 0,24,-1
 66 1286 l 0,25,-1
 66 1374 l 0,26,-1
 594 1374 l 0,27,28
 755 1374 755 1374 893 1333.5 c 0,29,30
 1031 1293 1031 1293 1131.5 1209 c 0,31,32
 1232 1125 1232 1125 1289 996 c 0,33,34
 1346 867 1346 867 1346 690 c 0,0,1
1114 686 m 0,35,36
 1114 847 1114 847 1076.5 959.5 c 0,37,38
 1039 1072 1039 1072 969.5 1142.5 c 0,39,40
 900 1213 900 1213 801.5 1244.5 c 0,41,42
 703 1276 703 1276 582 1276 c 0,43,-1
 426 1276 l 0,44,-1
 426 98 l 0,45,-1
 592 100 l 0,46,47
 710 101 710 101 806.5 133.5 c 0,48,49
 903 166 903 166 971 236 c 0,50,51
 1039 306 1039 306 1076.5 417 c 0,52,53
 1114 528 1114 528 1114 686 c 0,35,36
EndSplineSet
EndChar

StartChar: E
Encoding: 40 69 40
Width: 1194
Flags: W
LayerCount: 2
Fore
SplineSet
66 0 m 0,0,-1
 66 88 l 0,1,-1
 172 96 l 0,2,3
 194 98 194 98 205.5 112 c 0,4,5
 217 126 217 126 217 141 c 0,6,-1
 217 1233 l 0,7,8
 217 1248 217 1248 205.5 1262 c 0,9,10
 194 1276 194 1276 172 1278 c 0,11,-1
 66 1286 l 0,12,-1
 66 1374 l 0,13,-1
 1061 1374 l 0,14,-1
 1061 1069 l 0,15,-1
 938 1069 l 0,16,-1
 907 1237 l 0,17,18
 905 1252 905 1252 894.5 1264 c 0,19,20
 884 1276 884 1276 870 1276 c 0,21,-1
 426 1276 l 0,22,-1
 426 766 l 0,23,-1
 733 766 l 0,24,25
 747 766 747 766 758.5 778 c 0,26,27
 770 790 770 790 770 801 c 0,28,-1
 791 942 l 0,29,-1
 895 942 l 0,30,-1
 895 485 l 0,31,-1
 791 485 l 0,32,-1
 770 627 l 0,33,34
 770 638 770 638 758 651 c 0,35,36
 746 664 746 664 733 664 c 0,37,-1
 426 664 l 0,38,-1
 426 100 l 0,39,-1
 944 100 l 0,40,41
 957 100 957 100 968 114 c 0,42,43
 979 128 979 128 981 139 c 0,44,-1
 1018 342 l 0,45,-1
 1128 342 l 0,46,-1
 1128 0 l 0,47,-1
 66 0 l 0,0,-1
EndSplineSet
EndChar

StartChar: F
Encoding: 41 70 41
Width: 1108
Flags: W
LayerCount: 2
Fore
SplineSet
926 1049 m 0,0,-1
 897 1237 l 0,1,2
 894 1252 894 1252 885 1263 c 0,3,4
 876 1274 876 1274 862 1274 c 0,5,-1
 426 1274 l 0,6,-1
 426 741 l 0,7,-1
 739 741 l 0,8,9
 753 741 753 741 763.5 754 c 0,10,11
 774 767 774 767 776 778 c 0,12,-1
 795 922 l 0,13,-1
 897 922 l 0,14,-1
 897 461 l 0,15,-1
 795 461 l 0,16,-1
 776 604 l 0,17,18
 774 615 774 615 763 628 c 0,19,20
 752 641 752 641 739 641 c 0,21,-1
 426 641 l 0,22,-1
 426 141 l 0,23,24
 426 126 426 126 436.5 112 c 0,25,26
 447 98 447 98 469 96 c 0,27,-1
 606 88 l 0,28,-1
 606 0 l 0,29,-1
 68 0 l 0,30,-1
 68 88 l 0,31,-1
 176 96 l 0,32,33
 198 98 198 98 208.5 112 c 0,34,35
 219 126 219 126 219 141 c 0,36,-1
 219 1233 l 0,37,38
 219 1248 219 1248 208.5 1262 c 0,39,40
 198 1276 198 1276 176 1278 c 0,41,-1
 51 1286 l 0,42,-1
 51 1374 l 0,43,-1
 1047 1374 l 0,44,-1
 1047 1049 l 0,45,-1
 926 1049 l 0,0,-1
EndSplineSet
EndChar

StartChar: G
Encoding: 42 71 42
Width: 1423
Flags: W
LayerCount: 2
Fore
SplineSet
1268 565 m 0,0,1
 1246 563 1246 563 1235.5 550.5 c 0,2,3
 1225 538 1225 538 1225 522 c 0,4,-1
 1225 49 l 0,5,6
 1163 26 1163 26 1093 8 c 0,7,8
 1033 -8 1033 -8 955.5 -20.5 c 0,9,10
 878 -33 878 -33 795 -33 c 0,11,12
 681 -33 681 -33 583.5 -6 c 0,13,14
 486 21 486 21 406.5 70 c 0,15,16
 327 119 327 119 266 186.5 c 0,17,18
 205 254 205 254 163.5 334 c 0,19,20
 122 414 122 414 101 504.5 c 0,21,22
 80 595 80 595 80 690 c 0,23,24
 80 851 80 851 131 983.5 c 0,25,26
 182 1116 182 1116 278 1210 c 0,27,28
 374 1304 374 1304 511.5 1355.5 c 0,29,30
 649 1407 649 1407 821 1407 c 0,31,32
 879 1407 879 1407 931.5 1400.5 c 0,33,34
 984 1394 984 1394 1033 1384 c 0,35,36
 1082 1374 1082 1374 1129 1361.5 c 0,37,38
 1176 1349 1176 1349 1223 1337 c 0,39,-1
 1223 1006 l 0,40,-1
 1100 1006 l 0,41,-1
 1067 1190 l 0,42,43
 1064 1208 1064 1208 1052 1220.5 c 0,44,45
 1040 1233 1040 1233 1026 1239 c 0,46,47
 1011 1245 1011 1245 989.5 1254 c 0,48,49
 968 1263 968 1263 941 1271.5 c 0,50,51
 914 1280 914 1280 881.5 1286 c 0,52,53
 849 1292 849 1292 813 1292 c 0,54,55
 702 1292 702 1292 610 1253 c 0,56,57
 518 1214 518 1214 452 1139 c 0,58,59
 386 1064 386 1064 349.5 953.5 c 0,60,61
 313 843 313 843 313 700 c 0,62,63
 313 553 313 553 350 438 c 0,64,65
 387 323 387 323 455.5 244 c 0,66,67
 524 165 524 165 621 123.5 c 0,68,69
 718 82 718 82 838 82 c 0,70,71
 872 82 872 82 903 87 c 0,72,73
 934 92 934 92 958 97.5 c 0,74,75
 982 103 982 103 998 108 c 0,76,77
 1014 113 1014 113 1018 113 c 0,78,-1
 1018 522 l 0,79,80
 1018 538 1018 538 1007.5 550.5 c 0,81,82
 997 563 997 563 975 565 c 0,83,-1
 838 575 l 0,84,-1
 838 664 l 0,85,-1
 1372 664 l 0,86,-1
 1372 575 l 0,87,-1
 1268 565 l 0,0,1
EndSplineSet
EndChar

StartChar: H
Encoding: 43 72 43
Width: 1522
Flags: W
LayerCount: 2
Fore
SplineSet
938 0 m 0,0,-1
 938 88 l 0,1,-1
 1055 96 l 0,2,3
 1076 98 1076 98 1087 112 c 0,4,5
 1098 126 1098 126 1098 141 c 0,6,-1
 1098 670 l 0,7,-1
 424 670 l 0,8,-1
 424 141 l 0,9,10
 424 126 424 126 434.5 112 c 0,11,12
 445 98 445 98 467 96 c 0,13,-1
 584 88 l 0,14,-1
 584 0 l 0,15,-1
 66 0 l 0,16,-1
 66 88 l 0,17,-1
 172 96 l 0,18,19
 194 98 194 98 205.5 112 c 0,20,21
 217 126 217 126 217 141 c 0,22,-1
 217 1233 l 0,23,24
 217 1248 217 1248 205.5 1261 c 0,25,26
 194 1274 194 1274 172 1276 c 0,27,-1
 66 1284 l 0,28,-1
 66 1374 l 0,29,-1
 584 1374 l 0,30,-1
 584 1284 l 0,31,-1
 467 1276 l 0,32,33
 445 1274 445 1274 434.5 1261 c 0,34,35
 424 1248 424 1248 424 1233 c 0,36,-1
 424 772 l 0,37,-1
 1098 772 l 0,38,-1
 1098 1233 l 0,39,40
 1098 1248 1098 1248 1087 1261 c 0,41,42
 1076 1274 1076 1274 1055 1276 c 0,43,-1
 938 1284 l 0,44,-1
 938 1374 l 0,45,-1
 1456 1374 l 0,46,-1
 1456 1284 l 0,47,-1
 1350 1276 l 0,48,49
 1328 1274 1328 1274 1316.5 1261 c 0,50,51
 1305 1248 1305 1248 1305 1233 c 0,52,-1
 1305 141 l 0,53,54
 1305 126 1305 126 1316.5 112 c 0,55,56
 1328 98 1328 98 1350 96 c 0,57,-1
 1456 88 l 0,58,-1
 1456 0 l 0,59,-1
 938 0 l 0,0,-1
EndSplineSet
EndChar

StartChar: I
Encoding: 44 73 44
Width: 676
Flags: W
LayerCount: 2
Fore
SplineSet
68 0 m 0,0,-1
 68 88 l 0,1,-1
 190 96 l 0,2,3
 212 98 212 98 222.5 112 c 0,4,5
 233 126 233 126 233 141 c 0,6,-1
 233 1233 l 0,7,8
 233 1248 233 1248 222.5 1261 c 0,9,10
 212 1274 212 1274 190 1276 c 0,11,-1
 68 1284 l 0,12,-1
 68 1374 l 0,13,-1
 608 1374 l 0,14,-1
 608 1284 l 0,15,-1
 483 1276 l 0,16,17
 462 1274 462 1274 451 1261 c 0,18,19
 440 1248 440 1248 440 1233 c 0,20,-1
 440 141 l 0,21,22
 440 126 440 126 451 112 c 0,23,24
 462 98 462 98 483 96 c 0,25,-1
 608 88 l 0,26,-1
 608 0 l 0,27,-1
 68 0 l 0,0,-1
EndSplineSet
EndChar

StartChar: J
Encoding: 45 74 45
Width: 993
Flags: W
LayerCount: 2
Fore
SplineSet
821 1278 m 0,0,1
 800 1276 800 1276 789 1262 c 0,2,3
 778 1248 778 1248 778 1233 c 0,4,-1
 778 518 l 0,5,6
 778 390 778 390 754 288 c 0,7,8
 730 186 730 186 677 115 c 0,9,10
 624 44 624 44 538 5.5 c 0,11,12
 452 -33 452 -33 328 -33 c 0,13,14
 278 -33 278 -33 230 -24.5 c 0,15,16
 182 -16 182 -16 144 -5.5 c 0,17,18
 106 5 106 5 80.5 14 c 0,19,20
 55 23 55 23 51 25 c 0,21,-1
 51 375 l 0,22,-1
 174 375 l 0,23,-1
 219 125 l 0,24,25
 222 110 222 110 231.5 99.5 c 0,26,27
 241 89 241 89 254 83 c 0,28,29
 267 77 267 77 282.5 74.5 c 0,30,31
 298 72 298 72 313 72 c 0,32,33
 383 72 383 72 432 99 c 0,34,35
 481 126 481 126 512 180 c 0,36,37
 543 234 543 234 557 315 c 0,38,39
 571 396 571 396 571 504 c 0,40,-1
 571 1233 l 0,41,42
 571 1248 571 1248 560.5 1262 c 0,43,44
 550 1276 550 1276 528 1278 c 0,45,-1
 399 1286 l 0,46,-1
 399 1374 l 0,47,-1
 940 1374 l 0,48,-1
 940 1286 l 0,49,-1
 821 1278 l 0,0,1
EndSplineSet
EndChar

StartChar: K
Encoding: 46 75 46
Width: 1307
Flags: W
LayerCount: 2
Fore
SplineSet
948 0 m 0,0,-1
 948 63 l 0,1,-1
 567 610 l 0,2,-1
 424 610 l 0,3,-1
 424 141 l 0,4,5
 424 126 424 126 435.5 112 c 0,6,7
 447 98 447 98 469 96 c 0,8,-1
 586 88 l 0,9,-1
 586 0 l 0,10,-1
 66 0 l 0,11,-1
 66 88 l 0,12,-1
 174 96 l 0,13,14
 196 98 196 98 206.5 112 c 0,15,16
 217 126 217 126 217 141 c 0,17,-1
 217 1233 l 0,18,19
 217 1248 217 1248 206.5 1262 c 0,20,21
 196 1276 196 1276 174 1278 c 0,22,-1
 66 1286 l 0,23,-1
 66 1374 l 0,24,-1
 586 1374 l 0,25,-1
 586 1286 l 0,26,-1
 469 1278 l 0,27,28
 447 1276 447 1276 435.5 1262 c 0,29,30
 424 1248 424 1248 424 1233 c 0,31,-1
 424 696 l 0,32,-1
 498 696 l 0,33,-1
 944 1241 l 0,34,35
 951 1250 951 1250 944.5 1262 c 0,36,37
 938 1274 938 1274 928 1276 c 0,38,-1
 823 1286 l 0,39,-1
 823 1374 l 0,40,-1
 1257 1374 l 0,41,-1
 1257 1286 l 0,42,43
 1221 1283 1221 1283 1192 1279 c 0,44,45
 1167 1276 1167 1276 1145 1273.5 c 0,46,47
 1123 1271 1123 1271 1118 1270 c 0,48,-1
 700 770 l 0,49,-1
 1159 98 l 0,50,-1
 1307 88 l 0,51,-1
 1307 0 l 0,52,-1
 948 0 l 0,0,-1
EndSplineSet
EndChar

StartChar: L
Encoding: 47 76 47
Width: 1087
Flags: W
LayerCount: 2
Fore
SplineSet
55 0 m 0,0,-1
 55 88 l 0,1,-1
 174 96 l 0,2,3
 196 98 196 98 206.5 112 c 0,4,5
 217 126 217 126 217 141 c 0,6,-1
 217 1233 l 0,7,8
 217 1248 217 1248 206.5 1262 c 0,9,10
 196 1276 196 1276 174 1278 c 0,11,-1
 55 1286 l 0,12,-1
 55 1374 l 0,13,-1
 578 1374 l 0,14,-1
 578 1286 l 0,15,-1
 469 1278 l 0,16,17
 447 1276 447 1276 435.5 1262 c 0,18,19
 424 1248 424 1248 424 1233 c 0,20,-1
 424 100 l 0,21,-1
 854 100 l 0,22,23
 868 100 868 100 882.5 110.5 c 0,24,25
 897 121 897 121 899 135 c 0,26,-1
 932 381 l 0,27,-1
 1051 381 l 0,28,-1
 1051 0 l 0,29,-1
 55 0 l 0,0,-1
EndSplineSet
EndChar

StartChar: M
Encoding: 48 77 48
Width: 1794
Flags: W
LayerCount: 2
Fore
SplineSet
1214 0 m 0,0,-1
 1214 88 l 0,1,-1
 1323 96 l 0,2,3
 1345 98 1345 98 1356.5 112 c 0,4,5
 1368 126 1368 126 1368 141 c 0,6,-1
 1368 1270 l 0,7,-1
 897 0 l 0,8,-1
 795 0 l 0,9,-1
 340 1251 l 0,10,-1
 340 141 l 0,11,12
 340 126 340 126 351.5 112 c 0,13,14
 363 98 363 98 385 96 c 0,15,-1
 502 88 l 0,16,-1
 502 0 l 0,17,-1
 59 0 l 0,18,-1
 59 88 l 0,19,-1
 176 96 l 0,20,21
 198 98 198 98 208.5 112 c 0,22,23
 219 126 219 126 219 141 c 0,24,-1
 219 1233 l 0,25,26
 219 1248 219 1248 208.5 1262 c 0,27,28
 198 1276 198 1276 176 1278 c 0,29,-1
 59 1286 l 0,30,-1
 59 1374 l 0,31,-1
 518 1374 l 0,32,-1
 518 1319 l 0,33,-1
 889 313 l 0,34,-1
 1260 1313 l 0,35,-1
 1260 1374 l 0,36,-1
 1731 1374 l 0,37,-1
 1731 1286 l 0,38,-1
 1620 1278 l 0,39,40
 1598 1276 1598 1276 1586.5 1262 c 0,41,42
 1575 1248 1575 1248 1575 1233 c 0,43,-1
 1575 141 l 0,44,45
 1575 126 1575 126 1586.5 112 c 0,46,47
 1598 98 1598 98 1620 96 c 0,48,-1
 1731 88 l 0,49,-1
 1731 0 l 0,50,-1
 1214 0 l 0,0,-1
EndSplineSet
EndChar

StartChar: N
Encoding: 49 78 49
Width: 1477
Flags: W
LayerCount: 2
Fore
SplineSet
1303 1278 m 0,0,1
 1281 1276 1281 1276 1270.5 1262 c 0,2,3
 1260 1248 1260 1248 1260 1233 c 0,4,-1
 1260 0 l 0,5,-1
 1100 0 l 0,6,-1
 338 1147 l 0,7,-1
 338 141 l 0,8,9
 338 126 338 126 348.5 112 c 0,10,11
 359 98 359 98 381 96 c 0,12,-1
 498 88 l 0,13,-1
 498 0 l 0,14,-1
 55 0 l 0,15,-1
 55 88 l 0,16,-1
 172 96 l 0,17,18
 194 98 194 98 205.5 112 c 0,19,20
 217 126 217 126 217 141 c 0,21,-1
 217 1233 l 0,22,23
 217 1248 217 1248 205.5 1262 c 0,24,25
 194 1276 194 1276 172 1278 c 0,26,-1
 51 1286 l 0,27,-1
 51 1374 l 0,28,-1
 457 1374 l 0,29,-1
 457 1323 l 0,30,-1
 1139 293 l 0,31,-1
 1139 1233 l 0,32,33
 1139 1248 1139 1248 1128 1262 c 0,34,35
 1117 1276 1117 1276 1096 1278 c 0,36,-1
 979 1286 l 0,37,-1
 979 1374 l 0,38,-1
 1417 1374 l 0,39,-1
 1417 1286 l 0,40,-1
 1303 1278 l 0,0,1
EndSplineSet
EndChar

StartChar: O
Encoding: 50 79 50
Width: 1497
Flags: W
LayerCount: 2
Fore
SplineSet
1417 686 m 0,0,1
 1417 537 1417 537 1369 406 c 0,2,3
 1321 275 1321 275 1233.5 177.5 c 0,4,5
 1146 80 1146 80 1023 23.5 c 0,6,7
 900 -33 900 -33 750 -33 c 0,8,9
 599 -33 599 -33 475.5 21.5 c 0,10,11
 352 76 352 76 264 173 c 0,12,13
 176 270 176 270 128 401.5 c 0,14,15
 80 533 80 533 80 688 c 0,16,17
 80 838 80 838 127 969 c 0,18,19
 174 1100 174 1100 261 1197.5 c 0,20,21
 348 1295 348 1295 471.5 1351 c 0,22,23
 595 1407 595 1407 748 1407 c 0,24,25
 900 1407 900 1407 1023.5 1350 c 0,26,27
 1147 1293 1147 1293 1234.5 1195 c 0,28,29
 1322 1097 1322 1097 1369.5 966 c 0,30,31
 1417 835 1417 835 1417 686 c 0,0,1
1180 684 m 0,32,33
 1180 809 1180 809 1153 919.5 c 0,34,35
 1126 1030 1126 1030 1072 1112.5 c 0,36,37
 1018 1195 1018 1195 937.5 1242.5 c 0,38,39
 857 1290 857 1290 750 1290 c 0,40,41
 639 1290 639 1290 557 1242 c 0,42,43
 475 1194 475 1194 421 1111.5 c 0,44,45
 367 1029 367 1029 341 919.5 c 0,46,47
 315 810 315 810 315 688 c 0,48,49
 315 565 315 565 341.5 454.5 c 0,50,51
 368 344 368 344 421.5 261 c 0,52,53
 475 178 475 178 555.5 129 c 0,54,55
 636 80 636 80 745 80 c 0,56,57
 856 80 856 80 937.5 129 c 0,58,59
 1019 178 1019 178 1073 260.5 c 0,60,61
 1127 343 1127 343 1153.5 452.5 c 0,62,63
 1180 562 1180 562 1180 684 c 0,32,33
EndSplineSet
EndChar

StartChar: P
Encoding: 51 80 51
Width: 1186
Flags: W
LayerCount: 2
Fore
SplineSet
1106 961 m 0,0,1
 1106 848 1106 848 1064 763.5 c 0,2,3
 1022 679 1022 679 949.5 623.5 c 0,4,5
 877 568 877 568 779.5 540.5 c 0,6,7
 682 513 682 513 571 514 c 0,8,9
 551 514 551 514 527.5 515 c 0,10,11
 504 516 504 516 482.5 517.5 c 0,12,13
 461 519 461 519 445.5 520 c 0,14,15
 430 521 430 521 426 522 c 0,16,-1
 426 141 l 0,17,18
 426 126 426 126 436.5 112 c 0,19,20
 447 98 447 98 469 96 c 0,21,-1
 604 88 l 0,22,-1
 604 0 l 0,23,-1
 66 0 l 0,24,-1
 66 88 l 0,25,-1
 174 96 l 0,26,27
 196 98 196 98 207.5 112 c 0,28,29
 219 126 219 126 219 141 c 0,30,-1
 219 1233 l 0,31,32
 219 1248 219 1248 207.5 1262 c 0,33,34
 196 1276 196 1276 174 1278 c 0,35,-1
 51 1286 l 0,36,-1
 51 1374 l 0,37,-1
 541 1374 l 0,38,39
 686 1374 686 1374 792.5 1352 c 0,40,41
 899 1330 899 1330 968.5 1281 c 0,42,43
 1038 1232 1038 1232 1072 1153.5 c 0,44,45
 1106 1075 1106 1075 1106 961 c 0,0,1
893 958 m 0,46,47
 893 1033 893 1033 873 1091.5 c 0,48,49
 853 1150 853 1150 809.5 1190.5 c 0,50,51
 766 1231 766 1231 697 1252.5 c 0,52,53
 628 1274 628 1274 530 1274 c 0,54,55
 516 1274 516 1274 498 1273.5 c 0,56,57
 480 1273 480 1273 464 1273 c 0,58,59
 446 1272 446 1272 426 1272 c 0,60,-1
 426 627 l 0,61,62
 428 627 428 627 441 625.5 c 0,63,64
 454 624 454 624 471 621.5 c 0,65,66
 488 619 488 619 507 617.5 c 0,67,68
 526 616 526 616 541 616 c 0,69,70
 622 615 622 615 687 635 c 0,71,72
 752 655 752 655 797.5 697 c 0,73,74
 843 739 843 739 868 804 c 0,75,76
 893 869 893 869 893 958 c 0,46,47
EndSplineSet
EndChar

StartChar: Q
Encoding: 52 81 52
Width: 1513
Flags: W
LayerCount: 2
Fore
SplineSet
1434 686 m 0,0,1
 1434 548 1434 548 1395.5 428 c 0,2,3
 1357 308 1357 308 1284 215 c 0,4,5
 1211 122 1211 122 1106 60.5 c 0,6,7
 1001 -1 1001 -1 868 -23 c 0,8,9
 870 -138 870 -138 939.5 -204 c 0,10,11
 1009 -270 1009 -270 1151 -270 c 0,12,13
 1188 -270 1188 -270 1221 -267 c 0,14,15
 1254 -264 1254 -264 1280 -260.5 c 0,16,17
 1306 -257 1306 -257 1323.5 -253.5 c 0,18,19
 1341 -250 1341 -250 1348 -248 c 0,20,-1
 1348 -336 l 0,21,22
 1337 -338 1337 -338 1308.5 -344 c 0,23,24
 1280 -350 1280 -350 1239 -356 c 0,25,26
 1198 -362 1198 -362 1148 -366.5 c 0,27,28
 1098 -371 1098 -371 1044 -371 c 0,29,30
 936 -371 936 -371 861 -347 c 0,31,32
 786 -323 786 -323 738.5 -278 c 0,33,34
 691 -233 691 -233 670 -169.5 c 0,35,36
 649 -106 649 -106 649 -27 c 0,37,38
 526 -9 526 -9 422 48 c 0,39,40
 318 105 318 105 242 196.5 c 0,41,42
 166 288 166 288 123 412 c 0,43,44
 80 536 80 536 80 686 c 0,45,46
 80 786 80 786 101.5 878.5 c 0,47,48
 123 971 123 971 163.5 1051 c 0,49,50
 204 1131 204 1131 263 1196.5 c 0,51,52
 322 1262 322 1262 397 1309 c 0,53,54
 472 1356 472 1356 562 1381.5 c 0,55,56
 652 1407 652 1407 754 1407 c 0,57,58
 910 1407 910 1407 1035.5 1351 c 0,59,60
 1161 1295 1161 1295 1249.5 1198 c 0,61,62
 1338 1101 1338 1101 1386 969 c 0,63,64
 1434 837 1434 837 1434 686 c 0,0,1
1192 686 m 0,65,66
 1192 807 1192 807 1166 916.5 c 0,67,68
 1140 1026 1140 1026 1086.5 1109.5 c 0,69,70
 1033 1193 1033 1193 951 1242.5 c 0,71,72
 869 1292 869 1292 756 1292 c 0,73,74
 644 1292 644 1292 561.5 1244 c 0,75,76
 479 1196 479 1196 425 1113.5 c 0,77,78
 371 1031 371 1031 345 921.5 c 0,79,80
 319 812 319 812 319 690 c 0,81,82
 319 570 319 570 346 459.5 c 0,83,84
 373 349 373 349 427.5 264.5 c 0,85,86
 482 180 482 180 564 130 c 0,87,88
 646 80 646 80 756 80 c 0,89,90
 867 80 867 80 949 129.5 c 0,91,92
 1031 179 1031 179 1085 262.5 c 0,93,94
 1139 346 1139 346 1165.5 456 c 0,95,96
 1192 566 1192 566 1192 686 c 0,65,66
EndSplineSet
EndChar

StartChar: R
Encoding: 53 82 53
Width: 1329
Flags: W
LayerCount: 2
Fore
SplineSet
1329 -6 m 0,0,1
 1322 -7 1322 -7 1309 -11 c 0,2,3
 1296 -15 1296 -15 1278 -20 c 0,4,5
 1260 -25 1260 -25 1238.5 -29 c 0,6,7
 1217 -33 1217 -33 1194 -33 c 0,8,9
 1102 -33 1102 -33 1045 -5.5 c 0,10,11
 988 22 988 22 952.5 67.5 c 0,12,13
 917 113 917 113 897 171 c 0,14,15
 877 229 877 229 860 289.5 c 0,16,17
 843 350 843 350 822.5 408 c 0,18,19
 802 466 802 466 765 511.5 c 0,20,21
 728 557 728 557 669 584.5 c 0,22,23
 610 612 610 612 516 612 c 0,24,25
 500 612 500 612 484 611.5 c 0,26,27
 468 611 468 611 455.5 610 c 0,28,29
 443 609 443 609 434 608.5 c 0,30,31
 425 608 425 608 424 608 c 0,32,-1
 424 141 l 0,33,34
 424 126 424 126 434.5 112 c 0,35,36
 445 98 445 98 467 96 c 0,37,-1
 575 88 l 0,38,-1
 575 0 l 0,39,-1
 66 0 l 0,40,-1
 66 88 l 0,41,-1
 172 96 l 0,42,43
 194 98 194 98 205.5 112 c 0,44,45
 217 126 217 126 217 141 c 0,46,-1
 217 1233 l 0,47,48
 217 1248 217 1248 205.5 1262 c 0,49,50
 194 1276 194 1276 172 1278 c 0,51,-1
 66 1286 l 0,52,-1
 66 1374 l 0,53,-1
 600 1374 l 0,54,55
 717 1374 717 1374 810 1355 c 0,56,57
 903 1336 903 1336 968 1293 c 0,58,59
 1033 1250 1033 1250 1067.5 1180.5 c 0,60,61
 1102 1111 1102 1111 1102 1010 c 0,62,63
 1102 929 1102 929 1074 871 c 0,64,65
 1046 813 1046 813 999.5 773 c 0,66,67
 953 733 953 733 892 708 c 0,68,69
 831 683 831 683 766 668 c 0,70,71
 849 648 849 648 899 612.5 c 0,72,73
 949 577 949 577 978 532 c 0,74,75
 1007 487 1007 487 1021 436.5 c 0,76,77
 1035 386 1035 386 1046 336.5 c 0,78,79
 1057 287 1057 287 1071 242 c 0,80,81
 1085 197 1085 197 1114.5 162 c 0,82,83
 1144 127 1144 127 1194.5 106.5 c 0,84,85
 1245 86 1245 86 1329 86 c 0,86,-1
 1329 -6 l 0,0,1
879 1001 m 0,87,88
 879 1067 879 1067 859 1117.5 c 0,89,90
 839 1168 839 1168 795.5 1203 c 0,91,92
 752 1238 752 1238 683.5 1256 c 0,93,94
 615 1274 615 1274 518 1274 c 0,95,-1
 424 1274 l 0,96,-1
 424 713 l 0,97,98
 426 713 426 713 438 712.5 c 0,99,100
 450 712 450 712 465.5 712 c 0,101,102
 481 712 481 712 497.5 711.5 c 0,103,104
 514 711 514 711 526 711 c 0,105,106
 611 711 611 711 677 725.5 c 0,107,108
 743 740 743 740 788 774 c 0,109,110
 833 808 833 808 856 863.5 c 0,111,112
 879 919 879 919 879 1001 c 0,87,88
EndSplineSet
EndChar

StartChar: S
Encoding: 54 83 54
Width: 1067
Flags: W
LayerCount: 2
Fore
SplineSet
987 385 m 0,0,1
 987 307 987 307 956.5 232 c 0,2,3
 926 157 926 157 860 98 c 0,4,5
 794 39 794 39 691 3 c 0,6,7
 588 -33 588 -33 444 -33 c 0,8,9
 360 -33 360 -33 293.5 -21 c 0,10,11
 227 -9 227 -9 179 5 c 0,12,13
 124 22 124 22 80 43 c 0,14,-1
 80 406 l 0,15,-1
 209 406 l 0,16,-1
 236 174 l 0,17,18
 238 162 238 162 248.5 148 c 0,19,20
 259 134 259 134 270 129 c 0,21,-1
 287 120 l 0,22,23
 302 113 302 113 328 104.5 c 0,24,25
 354 96 354 96 391.5 89 c 0,26,27
 429 82 429 82 477 82 c 0,28,29
 542 82 542 82 597.5 98.5 c 0,30,31
 653 115 653 115 693 146 c 0,32,33
 733 177 733 177 755.5 222 c 0,34,35
 778 267 778 267 778 324 c 0,36,37
 778 386 778 386 742.5 432.5 c 0,38,39
 707 479 707 479 653.5 515.5 c 0,40,41
 600 552 600 552 537 581 c 0,42,43
 474 610 474 610 418 637 c 0,44,45
 355 667 355 667 297.5 699 c 0,46,47
 240 731 240 731 196.5 773 c 0,48,49
 153 815 153 815 127.5 871.5 c 0,50,51
 102 928 102 928 102 1006 c 0,52,53
 102 1097 102 1097 138 1171 c 0,54,55
 174 1245 174 1245 237.5 1297.5 c 0,56,57
 301 1350 301 1350 387.5 1378.5 c 0,58,59
 474 1407 474 1407 575 1407 c 0,60,61
 633 1407 633 1407 684.5 1400 c 0,62,63
 736 1393 736 1393 780.5 1382.5 c 0,64,65
 825 1372 825 1372 863.5 1360 c 0,66,67
 902 1348 902 1348 936 1337 c 0,68,-1
 936 1018 l 0,69,-1
 819 1018 l 0,70,-1
 788 1214 l 0,71,72
 786 1224 786 1224 776.5 1234 c 0,73,74
 767 1244 767 1244 758 1249 c 0,75,76
 756 1250 756 1250 745 1258 c 0,77,78
 734 1266 734 1266 712.5 1274 c 0,79,80
 691 1282 691 1282 657.5 1289 c 0,81,82
 624 1296 624 1296 578 1296 c 0,83,84
 516 1296 516 1296 467 1278 c 0,85,86
 418 1260 418 1260 384 1227.5 c 0,87,88
 350 1195 350 1195 331.5 1151 c 0,89,90
 313 1107 313 1107 313 1055 c 0,91,92
 313 1008 313 1008 331.5 969.5 c 0,93,94
 350 931 350 931 386.5 898.5 c 0,95,96
 423 866 423 866 476 838 c 0,97,98
 529 810 529 810 598 784 c 0,99,100
 691 749 691 749 763.5 711 c 0,101,102
 836 673 836 673 885.5 626 c 0,103,104
 935 579 935 579 961 520.5 c 0,105,106
 987 462 987 462 987 385 c 0,0,1
EndSplineSet
EndChar

StartChar: T
Encoding: 55 84 55
Width: 1227
Flags: W
LayerCount: 2
Fore
SplineSet
1073 1047 m 0,0,-1
 1044 1239 l 0,1,2
 1041 1255 1041 1255 1032.5 1264.5 c 0,3,4
 1024 1274 1024 1274 1010 1274 c 0,5,-1
 717 1274 l 0,6,-1
 717 141 l 0,7,8
 717 126 717 126 727.5 112 c 0,9,10
 738 98 738 98 760 96 c 0,11,-1
 891 88 l 0,12,-1
 891 0 l 0,13,-1
 336 0 l 0,14,-1
 336 88 l 0,15,-1
 467 96 l 0,16,17
 489 98 489 98 499.5 112 c 0,18,19
 510 126 510 126 510 141 c 0,20,-1
 510 1274 l 0,21,-1
 215 1274 l 0,22,23
 201 1274 201 1274 191.5 1264.5 c 0,24,25
 182 1255 182 1255 180 1239 c 0,26,-1
 152 1047 l 0,27,-1
 33 1047 l 0,28,-1
 33 1374 l 0,29,-1
 1194 1374 l 0,30,-1
 1194 1047 l 0,31,-1
 1073 1047 l 0,0,-1
EndSplineSet
EndChar

StartChar: U
Encoding: 56 85 56
Width: 1458
Flags: W
LayerCount: 2
Fore
SplineSet
1284 1278 m 0,0,1
 1262 1276 1262 1276 1251.5 1262 c 0,2,3
 1241 1248 1241 1248 1241 1233 c 0,4,-1
 1241 455 l 0,5,6
 1241 329 1241 329 1207 237 c 0,7,8
 1173 145 1173 145 1106.5 85 c 0,9,10
 1040 25 1040 25 941.5 -4 c 0,11,12
 843 -33 843 -33 715 -33 c 0,13,14
 461 -33 461 -33 338 90 c 0,15,16
 215 213 215 213 215 455 c 0,17,-1
 215 1233 l 0,18,19
 215 1248 215 1248 204.5 1262 c 0,20,21
 194 1276 194 1276 172 1278 c 0,22,-1
 63 1286 l 0,23,-1
 63 1374 l 0,24,-1
 584 1374 l 0,25,-1
 584 1286 l 0,26,-1
 467 1278 l 0,27,28
 445 1276 445 1276 434.5 1262 c 0,29,30
 424 1248 424 1248 424 1233 c 0,31,-1
 424 508 l 0,32,33
 424 418 424 418 438 343.5 c 0,34,35
 452 269 452 269 490 216 c 0,36,37
 528 163 528 163 595.5 133.5 c 0,38,39
 663 104 663 104 770 104 c 0,40,41
 876 104 876 104 944 135 c 0,42,43
 1012 166 1012 166 1051 220.5 c 0,44,45
 1090 275 1090 275 1105 349 c 0,46,47
 1120 423 1120 423 1120 508 c 0,48,-1
 1120 1233 l 0,49,50
 1120 1248 1120 1248 1108.5 1262 c 0,51,52
 1097 1276 1097 1276 1075 1278 c 0,53,-1
 958 1286 l 0,54,-1
 958 1374 l 0,55,-1
 1403 1374 l 0,56,-1
 1403 1286 l 0,57,-1
 1284 1278 l 0,0,1
EndSplineSet
EndChar

StartChar: V
Encoding: 57 86 57
Width: 1364
Flags: W
LayerCount: 2
Fore
SplineSet
1225 1264 m 0,0,-1
 766 -33 l 0,1,-1
 610 -33 l 0,2,-1
 141 1266 l 0,3,-1
 20 1286 l 0,4,-1
 20 1374 l 0,5,-1
 510 1374 l 0,6,-1
 510 1286 l 0,7,-1
 389 1276 l 0,8,9
 378 1274 378 1274 373 1261 c 0,10,11
 368 1248 368 1248 371 1239 c 0,12,-1
 731 227 l 0,13,-1
 1077 1235 l 0,14,15
 1081 1247 1081 1247 1071.5 1260.5 c 0,16,17
 1062 1274 1062 1274 1049 1276 c 0,18,-1
 936 1286 l 0,19,-1
 936 1374 l 0,20,-1
 1343 1374 l 0,21,-1
 1343 1286 l 0,22,-1
 1225 1264 l 0,0,-1
EndSplineSet
EndChar

StartChar: W
Encoding: 58 87 58
Width: 1907
Flags: W
LayerCount: 2
Fore
SplineSet
1761 1262 m 0,0,-1
 1448 -33 l 0,1,-1
 1298 -33 l 0,2,-1
 956 1102 l 0,3,-1
 621 -33 l 0,4,-1
 473 -33 l 0,5,-1
 139 1262 l 0,6,-1
 20 1286 l 0,7,-1
 20 1374 l 0,8,-1
 489 1374 l 0,9,-1
 489 1286 l 0,10,-1
 367 1274 l 0,11,12
 353 1272 353 1272 348 1259.5 c 0,13,14
 343 1247 343 1247 346 1233 c 0,15,-1
 590 309 l 0,16,-1
 911 1374 l 0,17,-1
 1069 1374 l 0,18,-1
 1399 276 l 0,19,-1
 1626 1233 l 0,20,21
 1629 1247 1629 1247 1621 1259.5 c 0,22,23
 1613 1272 1613 1272 1597 1274 c 0,24,-1
 1468 1286 l 0,25,-1
 1468 1374 l 0,26,-1
 1886 1374 l 0,27,-1
 1886 1286 l 0,28,-1
 1761 1262 l 0,0,-1
EndSplineSet
EndChar

StartChar: X
Encoding: 59 88 59
Width: 1298
Flags: W
LayerCount: 2
Fore
SplineSet
752 0 m 0,0,-1
 752 88 l 0,1,-1
 870 100 l 0,2,3
 886 102 886 102 895 115 c 0,4,5
 904 128 904 128 895 143 c 0,6,-1
 623 571 l 0,7,-1
 307 137 l 0,8,9
 299 126 299 126 303 113 c 0,10,11
 307 100 307 100 332 98 c 0,12,-1
 455 88 l 0,13,-1
 455 0 l 0,14,-1
 20 0 l 0,15,-1
 20 88 l 0,16,-1
 143 113 l 0,17,-1
 555 678 l 0,18,-1
 182 1262 l 0,19,-1
 47 1286 l 0,20,-1
 47 1374 l 0,21,-1
 561 1374 l 0,22,-1
 561 1286 l 0,23,-1
 457 1276 l 0,24,25
 432 1274 432 1274 428 1260.5 c 0,26,27
 424 1247 424 1247 432 1235 c 0,28,-1
 682 850 l 0,29,-1
 958 1229 l 0,30,31
 969 1244 969 1244 960 1257 c 0,32,33
 951 1270 951 1270 936 1272 c 0,34,-1
 831 1286 l 0,35,-1
 831 1374 l 0,36,-1
 1260 1374 l 0,37,-1
 1260 1286 l 0,38,-1
 1128 1266 l 0,39,-1
 748 743 l 0,40,-1
 1151 113 l 0,41,-1
 1278 88 l 0,42,-1
 1278 0 l 0,43,-1
 752 0 l 0,0,-1
EndSplineSet
EndChar

StartChar: Y
Encoding: 60 89 60
Width: 1282
Flags: W
LayerCount: 2
Fore
SplineSet
1151 1266 m 0,0,-1
 739 584 l 0,1,-1
 739 141 l 0,2,3
 739 126 739 126 750 112 c 0,4,5
 761 98 761 98 782 96 c 0,6,-1
 913 88 l 0,7,-1
 913 0 l 0,8,-1
 360 0 l 0,9,-1
 360 88 l 0,10,-1
 487 96 l 0,11,12
 509 98 509 98 520.5 112 c 0,13,14
 532 126 532 126 532 141 c 0,15,-1
 532 553 l 0,16,-1
 139 1262 l 0,17,-1
 20 1286 l 0,18,-1
 20 1374 l 0,19,-1
 506 1374 l 0,20,-1
 506 1286 l 0,21,-1
 403 1276 l 0,22,23
 379 1273 379 1273 376 1260 c 0,24,25
 373 1247 373 1247 379 1235 c 0,26,-1
 668 700 l 0,27,-1
 985 1229 l 0,28,29
 994 1244 994 1244 985 1257 c 0,30,31
 976 1270 976 1270 961 1272 c 0,32,-1
 846 1286 l 0,33,-1
 846 1374 l 0,34,-1
 1262 1374 l 0,35,-1
 1262 1286 l 0,36,-1
 1151 1266 l 0,0,-1
EndSplineSet
EndChar

StartChar: Z
Encoding: 61 90 61
Width: 1178
Flags: W
LayerCount: 2
Fore
SplineSet
80 0 m 0,0,-1
 80 90 l 0,1,-1
 842 1272 l 0,2,-1
 309 1272 l 0,3,4
 295 1272 295 1272 286.5 1262 c 0,5,6
 278 1252 278 1252 274 1237 c 0,7,-1
 244 1047 l 0,8,-1
 123 1047 l 0,9,-1
 123 1374 l 0,10,-1
 1087 1374 l 0,11,-1
 1087 1280 l 0,12,-1
 324 104 l 0,13,-1
 907 104 l 0,14,15
 921 104 921 104 930 115 c 0,16,17
 939 126 939 126 942 141 c 0,18,-1
 977 379 l 0,19,-1
 1098 379 l 0,20,-1
 1098 0 l 0,21,-1
 80 0 l 0,0,-1
EndSplineSet
EndChar

StartChar: bracketleft
Encoding: 62 91 62
Width: 866
Flags: W
LayerCount: 2
Fore
SplineSet
279 -270 m 0,0,-1
 279 1450 l 0,1,-1
 776 1450 l 0,2,-1
 776 1358 l 0,3,-1
 457 1358 l 0,4,-1
 457 -176 l 0,5,-1
 776 -176 l 0,6,-1
 776 -270 l 0,7,-1
 279 -270 l 0,0,-1
EndSplineSet
EndChar

StartChar: backslash
Encoding: 63 92 63
Width: 1001
Flags: W
LayerCount: 2
Fore
SplineSet
870 -190 m 0,0,-1
 0 1374 l 0,1,-1
 131 1374 l 0,2,-1
 1001 -190 l 0,3,-1
 870 -190 l 0,0,-1
EndSplineSet
EndChar

StartChar: bracketright
Encoding: 64 93 64
Width: 866
Flags: W
LayerCount: 2
Fore
SplineSet
90 -270 m 0,0,-1
 90 -176 l 0,1,-1
 412 -176 l 0,2,-1
 412 1358 l 0,3,-1
 90 1358 l 0,4,-1
 90 1450 l 0,5,-1
 590 1450 l 0,6,-1
 590 -270 l 0,7,-1
 90 -270 l 0,0,-1
EndSplineSet
EndChar

StartChar: asciicircum
Encoding: 65 94 65
Width: 670
Flags: W
LayerCount: 2
Fore
SplineSet
547 1126 m 1,0,-1
 336 1329 l 1,1,-1
 123 1126 l 1,2,-1
 0 1126 l 1,3,-1
 256 1473 l 1,4,-1
 410 1473 l 1,5,-1
 666 1126 l 1,6,-1
 547 1126 l 1,0,-1
EndSplineSet
Refer: 360 770 N 1 0 0 1 892 0 2
EndChar

StartChar: underscore
Encoding: 66 95 66
Width: 686
Flags: W
LayerCount: 2
Fore
SplineSet
0 -305 m 0,0,-1
 0 -175 l 0,1,-1
 686 -175 l 0,2,-1
 686 -305 l 0,3,-1
 0 -305 l 0,0,-1
EndSplineSet
EndChar

StartChar: grave
Encoding: 67 96 67
Width: 717
Flags: W
LayerCount: 2
Fore
SplineSet
356 1126 m 1,0,-1
 47 1325 l 2,1,2
 27 1337 27 1337 14.5 1356.5 c 128,-1,3
 2 1376 2 1376 2 1403 c 0,4,5
 2 1417 2 1417 6 1433.5 c 128,-1,6
 10 1450 10 1450 20.5 1462.5 c 128,-1,7
 31 1475 31 1475 48.5 1483 c 128,-1,8
 66 1491 66 1491 90 1491 c 0,9,10
 110 1491 110 1491 124.5 1488 c 128,-1,11
 139 1485 139 1485 150.5 1479 c 128,-1,12
 162 1473 162 1473 171 1462.5 c 128,-1,13
 180 1452 180 1452 190 1440 c 2,14,-1
 463 1122 l 1,15,-1
 356 1126 l 1,0,-1
EndSplineSet
Refer: 358 768 N 1 0 0 1 851 0 2
EndChar

StartChar: a
Encoding: 68 97 68
Width: 1042
Flags: W
LayerCount: 2
Fore
SplineSet
705 0 m 0,0,-1
 678 121 l 0,1,2
 624 80 624 80 567 48 c 0,3,4
 542 34 542 34 514 21 c 0,5,6
 486 8 486 8 456.5 -2.5 c 0,7,8
 427 -13 427 -13 396.5 -19 c 0,9,10
 366 -25 366 -25 336 -25 c 0,11,12
 280 -25 280 -25 231.5 -6 c 0,13,14
 183 13 183 13 147 49 c 0,15,16
 111 85 111 85 90.5 136 c 0,17,18
 70 187 70 187 70 252 c 0,19,20
 70 290 70 290 77.5 324 c 0,21,22
 85 358 85 358 108 390 c 0,23,24
 131 422 131 422 172.5 451.5 c 0,25,26
 214 481 214 481 281.5 510 c 0,27,28
 349 539 349 539 446.5 567.5 c 0,29,30
 544 596 544 596 678 625 c 0,31,-1
 678 713 l 0,32,33
 678 816 678 816 632 865.5 c 0,34,35
 586 915 586 915 487 915 c 0,36,37
 433 915 433 915 395 905 c 0,38,39
 357 895 357 895 342 889 c 0,40,-1
 342 711 l 0,41,-1
 193 711 l 0,42,43
 179 711 179 711 165.5 713 c 0,44,45
 152 715 152 715 141 721.5 c 0,46,47
 130 728 130 728 123.5 739.5 c 0,48,49
 117 751 117 751 117 770 c 0,50,51
 117 833 117 833 155 878.5 c 0,52,53
 193 924 193 924 254 954 c 0,54,55
 315 984 315 984 391 998 c 0,56,57
 467 1012 467 1012 543 1012 c 0,58,59
 638 1012 638 1012 700.5 989 c 0,60,61
 763 966 763 966 799.5 925 c 0,62,63
 836 884 836 884 851 828 c 0,64,65
 866 772 866 772 866 705 c 0,66,-1
 866 131 l 0,67,68
 866 112 866 112 878.5 100 c 0,69,70
 891 88 891 88 909 86 c 0,71,-1
 1008 80 l 0,72,-1
 1008 0 l 0,73,-1
 705 0 l 0,0,-1
678 547 m 0,74,75
 540 512 540 512 459 478 c 0,76,77
 378 444 378 444 336.5 409.5 c 0,78,79
 295 375 295 375 283.5 339.5 c 0,80,81
 272 304 272 304 272 266 c 0,82,83
 272 234 272 234 282.5 203.5 c 0,84,85
 293 173 293 173 312.5 149 c 0,86,87
 332 125 332 125 360.5 110.5 c 0,88,89
 389 96 389 96 426 96 c 0,90,91
 467 96 467 96 511.5 111 c 0,92,93
 556 126 556 126 593 144 c 0,94,95
 636 165 636 165 678 193 c 0,96,-1
 678 547 l 0,74,75
EndSplineSet
EndChar

StartChar: b
Encoding: 69 98 69
Width: 1137
Flags: W
LayerCount: 2
Fore
SplineSet
858 500 m 0,0,1
 858 693 858 693 775.5 792 c 0,2,3
 693 891 693 891 545 891 c 0,4,5
 528 891 528 891 505 888 c 0,6,7
 482 885 482 885 458.5 880 c 0,8,9
 435 875 435 875 412.5 869 c 0,10,11
 390 863 390 863 375 858 c 0,12,-1
 375 98 l 0,13,14
 392 97 392 97 410 97 c 0,15,16
 425 96 425 96 442 96 c 0,17,-1
 475 96 l 0,18,19
 566 96 566 96 637 117 c 0,20,21
 708 138 708 138 757 186 c 0,22,23
 806 234 806 234 832 311 c 0,24,25
 858 388 858 388 858 500 c 0,0,1
1067 541 m 0,26,27
 1067 425 1067 425 1033 326.5 c 0,28,29
 999 228 999 228 927.5 155 c 0,30,31
 856 82 856 82 744.5 41 c 0,32,33
 633 0 633 0 479 0 c 0,34,-1
 184 0 l 0,35,-1
 184 1362 l 0,36,-1
 29 1362 l 0,37,-1
 29 1430 l 0,38,-1
 293 1509 l 0,39,-1
 375 1509 l 0,40,-1
 375 936 l 0,41,42
 393 944 393 944 422 957 c 0,43,44
 451 970 451 970 488.5 982 c 0,45,46
 526 994 526 994 569 1003 c 0,47,48
 612 1012 612 1012 657 1012 c 0,49,50
 758 1012 758 1012 834.5 974 c 0,51,52
 911 936 911 936 963 871 c 0,53,54
 1015 806 1015 806 1041 720.5 c 0,55,56
 1067 635 1067 635 1067 541 c 0,26,27
EndSplineSet
EndChar

StartChar: c
Encoding: 70 99 70
Width: 954
Flags: W
LayerCount: 2
Fore
SplineSet
885 76 m 0,0,1
 850 58 850 58 811.5 39.5 c 0,2,3
 773 21 773 21 729.5 7 c 0,4,5
 686 -7 686 -7 638.5 -16 c 0,6,7
 591 -25 591 -25 539 -25 c 0,8,9
 431 -25 431 -25 344.5 13.5 c 0,10,11
 258 52 258 52 197 120.5 c 0,12,13
 136 189 136 189 103 283 c 0,14,15
 70 377 70 377 70 487 c 0,16,17
 70 616 70 616 110 714 c 0,18,19
 150 812 150 812 218 878.5 c 0,20,21
 286 945 286 945 375.5 978.5 c 0,22,23
 465 1012 465 1012 563 1012 c 0,24,25
 630 1012 630 1012 688.5 998.5 c 0,26,27
 747 985 747 985 789.5 959 c 0,28,29
 832 933 832 933 856.5 895 c 0,30,31
 881 857 881 857 881 807 c 0,32,33
 881 777 881 777 870.5 754.5 c 0,34,35
 860 732 860 732 843 716.5 c 0,36,37
 826 701 826 701 804.5 693.5 c 0,38,39
 783 686 783 686 760 686 c 0,40,41
 726 686 726 686 701 697.5 c 0,42,43
 676 709 676 709 657 721 c 0,44,-1
 657 899 l 0,45,46
 636 911 636 911 613.5 918.5 c 0,47,48
 591 926 591 926 571 926 c 0,49,50
 503 926 503 926 448.5 895 c 0,51,52
 394 864 394 864 356.5 809 c 0,53,54
 319 754 319 754 299 678.5 c 0,55,56
 279 603 279 603 279 514 c 0,57,58
 279 429 279 429 300.5 354 c 0,59,60
 322 279 322 279 364.5 223.5 c 0,61,62
 407 168 407 168 470.5 136 c 0,63,64
 534 104 534 104 618 104 c 0,65,66
 690 104 690 104 754.5 126.5 c 0,67,68
 819 149 819 149 885 193 c 0,69,-1
 885 76 l 0,0,1
EndSplineSet
EndChar

StartChar: d
Encoding: 71 100 71
Width: 1155
Flags: W
LayerCount: 2
Fore
SplineSet
780 0 m 0,0,-1
 780 109 l 0,1,2
 745 82 745 82 707.5 57.5 c 0,3,4
 670 33 670 33 630.5 15 c 0,5,6
 591 -3 591 -3 549.5 -14 c 0,7,8
 508 -25 508 -25 463 -25 c 0,9,10
 360 -25 360 -25 285.5 19.5 c 0,11,12
 211 64 211 64 163 134.5 c 0,13,14
 115 205 115 205 92.5 292.5 c 0,15,16
 70 380 70 380 70 467 c 0,17,18
 70 571 70 571 102 669.5 c 0,19,20
 134 768 134 768 199 844 c 0,21,22
 264 920 264 920 362 966 c 0,23,24
 460 1012 460 1012 592 1012 c 0,25,26
 616 1012 616 1012 644 1009 c 0,27,28
 672 1006 672 1006 698.5 1002.5 c 0,29,30
 725 999 725 999 746.5 994.5 c 0,31,32
 768 990 768 990 780 987 c 0,33,-1
 780 1362 l 0,34,-1
 625 1362 l 0,35,-1
 625 1430 l 0,36,-1
 889 1509 l 0,37,-1
 971 1509 l 0,38,-1
 971 131 l 0,39,40
 971 112 971 112 983 100 c 0,41,42
 995 88 995 88 1014 86 c 0,43,-1
 1102 80 l 0,44,-1
 1102 0 l 0,45,-1
 780 0 l 0,0,-1
780 883 m 0,46,47
 767 887 767 887 746.5 892.5 c 0,48,49
 726 898 726 898 702.5 902.5 c 0,50,51
 679 907 679 907 653.5 910 c 0,52,53
 628 913 628 913 606 913 c 0,54,55
 530 913 530 913 468 883.5 c 0,56,57
 406 854 406 854 362.5 800.5 c 0,58,59
 319 747 319 747 295.5 671 c 0,60,61
 272 595 272 595 272 502 c 0,62,63
 272 418 272 418 292 347.5 c 0,64,65
 312 277 312 277 350 225 c 0,66,67
 388 173 388 173 443 144 c 0,68,69
 498 115 498 115 569 115 c 0,70,71
 600 115 600 115 629 121.5 c 0,72,73
 658 128 658 128 685 138.5 c 0,74,75
 712 149 712 149 736 161.5 c 0,76,77
 760 174 760 174 780 186 c 0,78,-1
 780 883 l 0,46,47
EndSplineSet
EndChar

StartChar: e
Encoding: 72 101 72
Width: 1004
Flags: W
LayerCount: 2
Fore
SplineSet
729 672 m 0,0,1
 729 723 729 723 717 766.5 c 0,2,3
 705 810 705 810 680.5 842 c 0,4,5
 656 874 656 874 618.5 892.5 c 0,6,7
 581 911 581 911 530 911 c 0,8,9
 479 911 479 911 435 891.5 c 0,10,11
 391 872 391 872 357.5 835 c 0,12,13
 324 798 324 798 303.5 745.5 c 0,14,15
 283 693 283 693 279 627 c 0,16,-1
 729 627 l 0,17,-1
 729 672 l 0,0,1
934 102 m 0,18,19
 891 75 891 75 844.5 52 c 0,20,21
 798 29 798 29 748.5 12 c 0,22,23
 699 -5 699 -5 648 -15 c 0,24,25
 597 -25 597 -25 545 -25 c 0,26,27
 452 -25 452 -25 366 6.5 c 0,28,29
 280 38 280 38 214.5 101 c 0,30,31
 149 164 149 164 109.5 259.5 c 0,32,33
 70 355 70 355 70 483 c 0,34,35
 70 603 70 603 106 700.5 c 0,36,37
 142 798 142 798 206 867.5 c 0,38,39
 270 937 270 937 358 974.5 c 0,40,41
 446 1012 446 1012 551 1012 c 0,42,43
 646 1012 646 1012 718 980.5 c 0,44,45
 790 949 790 949 838 893.5 c 0,46,47
 886 838 886 838 910 760.5 c 0,48,49
 934 683 934 683 934 592 c 0,50,-1
 934 565 l 0,51,52
 934 549 934 549 932 535 c 0,53,-1
 268 535 l 0,54,55
 268 457 268 457 284.5 379 c 0,56,57
 301 301 301 301 340 239 c 0,58,59
 379 177 379 177 445 138.5 c 0,60,61
 511 100 511 100 610 100 c 0,62,63
 654 100 654 100 697 111.5 c 0,64,65
 740 123 740 123 781.5 141 c 0,66,67
 823 159 823 159 861 181.5 c 0,68,69
 899 204 899 204 934 227 c 0,70,-1
 934 102 l 0,18,19
EndSplineSet
EndChar

StartChar: f
Encoding: 73 102 73
Width: 668
Flags: W
LayerCount: 2
Fore
SplineSet
797 1386 m 0,0,1
 797 1355 797 1355 784.5 1334.5 c 0,2,3
 772 1314 772 1314 755.5 1301.5 c 0,4,5
 739 1289 739 1289 723.5 1283 c 0,6,7
 708 1277 708 1277 702 1276 c 0,8,9
 700 1278 700 1278 685.5 1288.5 c 0,10,11
 671 1299 671 1299 650.5 1313.5 c 0,12,13
 630 1328 630 1328 606.5 1344 c 0,14,15
 583 1360 583 1360 563 1374.5 c 0,16,17
 543 1389 543 1389 529 1398.5 c 0,18,19
 515 1408 515 1408 514 1409 c 0,20,21
 492 1397 492 1397 470.5 1375 c 0,22,23
 449 1353 449 1353 431.5 1316 c 0,24,25
 414 1279 414 1279 403.5 1226.5 c 0,26,27
 393 1174 393 1174 393 1102 c 0,28,-1
 393 971 l 0,29,-1
 647 971 l 0,30,-1
 647 866 l 0,31,-1
 393 866 l 0,32,-1
 393 131 l 0,33,34
 393 112 393 112 405.5 100 c 0,35,36
 418 88 418 88 436 86 c 0,37,-1
 557 80 l 0,38,-1
 557 0 l 0,39,-1
 59 0 l 0,40,-1
 59 80 l 0,41,-1
 160 86 l 0,42,43
 178 88 178 88 190.5 100 c 0,44,45
 203 112 203 112 203 131 c 0,46,-1
 203 866 l 0,47,-1
 72 866 l 0,48,-1
 72 938 l 0,49,-1
 203 975 l 0,50,51
 203 1026 203 1026 206.5 1066.5 c 0,52,53
 210 1107 210 1107 218.5 1142.5 c 0,54,55
 227 1178 227 1178 240 1211.5 c 0,56,57
 253 1245 253 1245 272 1282 c 0,58,59
 302 1340 302 1340 341.5 1382.5 c 0,60,61
 381 1425 381 1425 426.5 1453 c 0,62,63
 472 1481 472 1481 521.5 1495 c 0,64,65
 571 1509 571 1509 621 1509 c 0,66,67
 664 1509 664 1509 697 1499 c 0,68,69
 730 1489 730 1489 752.5 1472 c 0,70,71
 775 1455 775 1455 786 1433 c 0,72,73
 797 1411 797 1411 797 1386 c 0,0,1
EndSplineSet
EndChar

StartChar: g
Encoding: 74 103 74
Width: 1075
Flags: W
LayerCount: 2
Fore
SplineSet
836 850 m 0,0,1
 859 813 859 813 875 769.5 c 0,2,3
 891 726 891 726 891 666 c 0,4,5
 891 585 891 585 854 522 c 0,6,7
 817 459 817 459 755.5 417 c 0,8,9
 694 375 694 375 614.5 355.5 c 0,10,11
 535 336 535 336 449 342 c 0,12,13
 437 322 437 322 432.5 299 c 0,14,15
 428 276 428 276 427.5 256 c 0,16,17
 427 236 427 236 429 221.5 c 0,18,19
 431 207 431 207 432 205 c 0,20,21
 478 200 478 200 537 194 c 0,22,23
 596 188 596 188 657.5 176.5 c 0,24,25
 719 165 719 165 778.5 146 c 0,26,27
 838 127 838 127 884 96.5 c 0,28,29
 930 66 930 66 958.5 22.5 c 0,30,31
 987 -21 987 -21 987 -82 c 0,32,33
 987 -155 987 -155 945.5 -224.5 c 0,34,35
 904 -294 904 -294 832 -348.5 c 0,36,37
 760 -403 760 -403 663 -436 c 0,38,39
 566 -469 566 -469 455 -469 c 0,40,41
 363 -469 363 -469 291.5 -447 c 0,42,43
 220 -425 220 -425 171 -386 c 0,44,45
 122 -347 122 -347 96 -293.5 c 0,46,47
 70 -240 70 -240 70 -178 c 0,48,49
 70 -133 70 -133 83 -92.5 c 0,50,51
 96 -52 96 -52 123 -19.5 c 0,52,53
 150 13 150 13 190.5 36.5 c 0,54,55
 231 60 231 60 287 70 c 0,56,57
 281 86 281 86 277 96.5 c 0,58,59
 273 107 273 107 270.5 116.5 c 0,60,61
 268 126 268 126 267 136.5 c 0,62,63
 266 147 266 147 266 164 c 0,64,65
 266 204 266 204 290.5 252.5 c 0,66,67
 315 301 315 301 369 356 c 0,68,69
 318 368 318 368 272 394 c 0,70,71
 226 420 226 420 191 459.5 c 0,72,73
 156 499 156 499 135.5 550.5 c 0,74,75
 115 602 115 602 115 664 c 0,76,77
 115 745 115 745 145 809.5 c 0,78,79
 175 874 175 874 229 919 c 0,80,81
 283 964 283 964 358.5 988 c 0,82,83
 434 1012 434 1012 526 1012 c 0,84,85
 562 1012 562 1012 596.5 1006 c 0,86,87
 631 1000 631 1000 661.5 990.5 c 0,88,89
 692 981 692 981 718 970 c 0,90,91
 744 959 744 959 764 950 c 0,92,-1
 1040 950 l 0,93,-1
 1040 850 l 0,94,-1
 836 850 l 0,0,1
696 678 m 0,95,96
 696 726 696 726 683.5 771.5 c 0,97,98
 671 817 671 817 647 851.5 c 0,99,100
 623 886 623 886 587.5 907 c 0,101,102
 552 928 552 928 506 928 c 0,103,104
 463 928 463 928 427 911 c 0,105,106
 391 894 391 894 365.5 861.5 c 0,107,108
 340 829 340 829 325.5 782 c 0,109,110
 311 735 311 735 311 676 c 0,111,112
 311 625 311 625 323.5 579.5 c 0,113,114
 336 534 336 534 360.5 500 c 0,115,116
 385 466 385 466 421.5 446 c 0,117,118
 458 426 458 426 506 426 c 0,119,120
 552 426 552 426 587.5 446 c 0,121,122
 623 466 623 466 647 500 c 0,123,124
 671 534 671 534 683.5 580 c 0,125,126
 696 626 696 626 696 678 c 0,95,96
811 -137 m 0,127,128
 811 -95 811 -95 790 -65.5 c 0,129,130
 769 -36 769 -36 734.5 -17 c 0,131,132
 700 2 700 2 656.5 13.5 c 0,133,134
 613 25 613 25 568.5 32.5 c 0,135,136
 524 40 524 40 482 44.5 c 0,137,138
 440 49 440 49 410 55 c 0,139,140
 365 39 365 39 335 16.5 c 0,141,142
 305 -6 305 -6 287 -32 c 0,143,144
 269 -58 269 -58 261.5 -85 c 0,145,146
 254 -112 254 -112 254 -137 c 0,147,148
 254 -174 254 -174 270 -216 c 0,149,150
 286 -258 286 -258 319 -293 c 0,151,152
 352 -328 352 -328 402.5 -351.5 c 0,153,154
 453 -375 453 -375 522 -375 c 0,155,156
 595 -375 595 -375 649.5 -351.5 c 0,157,158
 704 -328 704 -328 740 -293 c 0,159,160
 776 -258 776 -258 793.5 -216 c 0,161,162
 811 -174 811 -174 811 -137 c 0,127,128
EndSplineSet
EndChar

StartChar: h
Encoding: 75 104 75
Width: 1176
Flags: W
LayerCount: 2
Fore
SplineSet
672 0 m 0,0,-1
 672 80 l 0,1,-1
 756 86 l 0,2,3
 774 88 774 88 787.5 100 c 0,4,5
 801 112 801 112 801 131 c 0,6,-1
 801 659 l 0,7,8
 801 703 801 703 791.5 740 c 0,9,10
 782 777 782 777 758.5 804 c 0,11,12
 735 831 735 831 696 846.5 c 0,13,14
 657 862 657 862 598 862 c 0,15,16
 571 862 571 862 541 857.5 c 0,17,18
 511 853 511 853 481.5 845 c 0,19,20
 452 837 452 837 424.5 826 c 0,21,22
 397 815 397 815 375 803 c 0,23,-1
 375 131 l 0,24,25
 375 112 375 112 386 100 c 0,26,27
 397 88 397 88 416 86 c 0,28,-1
 504 80 l 0,29,-1
 504 0 l 0,30,-1
 43 0 l 0,31,-1
 43 80 l 0,32,-1
 141 86 l 0,33,34
 160 88 160 88 172 100 c 0,35,36
 184 112 184 112 184 131 c 0,37,-1
 184 1362 l 0,38,-1
 31 1362 l 0,39,-1
 31 1430 l 0,40,-1
 293 1509 l 0,41,-1
 375 1509 l 0,42,-1
 375 885 l 0,43,44
 403 902 403 902 444 924 c 0,45,46
 485 946 485 946 531.5 965.5 c 0,47,48
 578 985 578 985 625.5 998.5 c 0,49,50
 673 1012 673 1012 713 1012 c 0,51,52
 772 1012 772 1012 822.5 993 c 0,53,54
 873 974 873 974 910.5 936 c 0,55,56
 948 898 948 898 969.5 839.5 c 0,57,58
 991 781 991 781 991 702 c 0,59,-1
 991 131 l 0,60,61
 991 112 991 112 1004.5 100 c 0,62,63
 1018 88 1018 88 1036 86 c 0,64,-1
 1128 80 l 0,65,-1
 1128 0 l 0,66,-1
 672 0 l 0,0,-1
EndSplineSet
EndChar

StartChar: i
Encoding: 76 105 76
Width: 621
Flags: W
LayerCount: 2
Fore
SplineSet
446 1325 m 0,0,1
 446 1299 446 1299 436.5 1275.5 c 0,2,3
 427 1252 427 1252 410 1235 c 0,4,5
 393 1218 393 1218 370.5 1208 c 0,6,7
 348 1198 348 1198 322 1198 c 0,8,9
 296 1198 296 1198 272.5 1208 c 0,10,11
 249 1218 249 1218 232 1235 c 0,12,13
 215 1252 215 1252 205 1275.5 c 0,14,15
 195 1299 195 1299 195 1325 c 0,16,17
 195 1351 195 1351 205 1374 c 0,18,19
 215 1397 215 1397 232 1414 c 0,20,21
 249 1431 249 1431 272.5 1440.5 c 0,22,23
 296 1450 296 1450 322 1450 c 0,24,25
 348 1450 348 1450 370.5 1440.5 c 0,26,27
 393 1431 393 1431 410 1414 c 0,28,29
 427 1397 427 1397 436.5 1374 c 0,30,31
 446 1351 446 1351 446 1325 c 0,0,1
70 0 m 0,32,-1
 70 80 l 0,33,-1
 170 86 l 0,34,35
 189 88 189 88 201 100 c 0,36,37
 213 112 213 112 213 131 c 0,38,-1
 213 862 l 0,39,-1
 72 862 l 0,40,-1
 72 934 l 0,41,-1
 322 1012 l 0,42,-1
 403 1012 l 0,43,-1
 403 131 l 0,44,45
 403 112 403 112 415.5 100 c 0,46,47
 428 88 428 88 446 86 c 0,48,-1
 551 80 l 0,49,-1
 551 0 l 0,50,-1
 70 0 l 0,32,-1
EndSplineSet
EndChar

StartChar: j
Encoding: 77 106 77
Width: 598
Flags: W
LayerCount: 2
Fore
SplineSet
436 1325 m 0,0,1
 436 1299 436 1299 426.5 1275.5 c 0,2,3
 417 1252 417 1252 400 1235 c 0,4,5
 383 1218 383 1218 360 1208 c 0,6,7
 337 1198 337 1198 311 1198 c 0,8,9
 285 1198 285 1198 262 1208 c 0,10,11
 239 1218 239 1218 221.5 1235 c 0,12,13
 204 1252 204 1252 194 1275.5 c 0,14,15
 184 1299 184 1299 184 1325 c 0,16,17
 184 1351 184 1351 194 1374 c 0,18,19
 204 1397 204 1397 221.5 1414 c 0,20,21
 239 1431 239 1431 262 1440.5 c 0,22,23
 285 1450 285 1450 311 1450 c 0,24,25
 337 1450 337 1450 360 1440.5 c 0,26,27
 383 1431 383 1431 400 1414 c 0,28,29
 417 1397 417 1397 426.5 1374 c 0,30,31
 436 1351 436 1351 436 1325 c 0,0,1
414 131 m 0,32,33
 414 85 414 85 411 30.5 c 0,34,35
 408 -24 408 -24 399.5 -79 c 0,36,37
 391 -134 391 -134 375.5 -186 c 0,38,39
 360 -238 360 -238 334 -279 c 0,40,41
 271 -376 271 -376 181 -422.5 c 0,42,43
 91 -469 91 -469 -6 -469 c 0,44,45
 -38 -469 -38 -469 -66 -462.5 c 0,46,47
 -94 -456 -94 -456 -115.5 -442 c 0,48,49
 -137 -428 -137 -428 -149.5 -406.5 c 0,50,51
 -162 -385 -162 -385 -162 -356 c 0,52,53
 -162 -330 -162 -330 -154 -310.5 c 0,54,55
 -146 -291 -146 -291 -133.5 -276.5 c 0,56,57
 -121 -262 -121 -262 -105 -252.5 c 0,58,59
 -89 -243 -89 -243 -74 -238 c 0,60,-1
 125 -375 l 0,61,62
 153 -359 153 -359 172 -327.5 c 0,63,64
 191 -296 191 -296 202.5 -252.5 c 0,65,66
 214 -209 214 -209 218.5 -155.5 c 0,67,68
 223 -102 223 -102 223 -43 c 0,69,-1
 223 866 l 0,70,-1
 78 866 l 0,71,-1
 78 934 l 0,72,-1
 330 1012 l 0,73,-1
 414 1012 l 0,74,-1
 414 131 l 0,32,33
EndSplineSet
EndChar

StartChar: k
Encoding: 78 107 78
Width: 1094
Flags: W
LayerCount: 2
Fore
SplineSet
745 0 m 0,0,-1
 745 80 l 0,1,-1
 489 465 l 0,2,-1
 375 465 l 0,3,-1
 375 131 l 0,4,5
 375 112 375 112 387 100 c 0,6,7
 399 88 399 88 418 86 c 0,8,-1
 506 80 l 0,9,-1
 506 0 l 0,10,-1
 41 0 l 0,11,-1
 41 80 l 0,12,-1
 141 86 l 0,13,14
 160 88 160 88 172 100 c 0,15,16
 184 112 184 112 184 131 c 0,17,-1
 184 1362 l 0,18,-1
 29 1362 l 0,19,-1
 29 1430 l 0,20,-1
 291 1509 l 0,21,-1
 375 1509 l 0,22,-1
 375 524 l 0,23,-1
 416 524 l 0,24,-1
 717 864 l 0,25,26
 725 874 725 874 719.5 885.5 c 0,27,28
 714 897 714 897 700 899 c 0,29,-1
 616 907 l 0,30,-1
 616 987 l 0,31,-1
 1014 987 l 0,32,-1
 1014 907 l 0,33,-1
 883 893 l 0,34,-1
 612 604 l 0,35,-1
 965 92 l 0,36,-1
 1073 80 l 0,37,-1
 1073 0 l 0,38,-1
 745 0 l 0,0,-1
EndSplineSet
EndChar

StartChar: l
Encoding: 79 108 79
Width: 608
Flags: W
LayerCount: 2
Fore
SplineSet
55 0 m 0,0,-1
 55 80 l 0,1,-1
 164 86 l 0,2,3
 178 86 178 86 193.5 100.5 c 0,4,5
 209 115 209 115 209 129 c 0,6,-1
 209 1362 l 0,7,-1
 53 1362 l 0,8,-1
 53 1430 l 0,9,-1
 315 1509 l 0,10,-1
 399 1509 l 0,11,-1
 399 129 l 0,12,13
 399 115 399 115 413.5 100.5 c 0,14,15
 428 86 428 86 442 86 c 0,16,-1
 553 80 l 0,17,-1
 553 0 l 0,18,-1
 55 0 l 0,0,-1
EndSplineSet
EndChar

StartChar: m
Encoding: 80 109 80
Width: 1741
Flags: W
LayerCount: 2
Fore
SplineSet
1237 0 m 0,0,-1
 1237 80 l 0,1,-1
 1323 86 l 0,2,3
 1342 88 1342 88 1354 100 c 0,4,5
 1366 112 1366 112 1366 131 c 0,6,-1
 1366 653 l 0,7,8
 1366 701 1366 701 1357 739.5 c 0,9,10
 1348 778 1348 778 1326.5 805 c 0,11,12
 1305 832 1305 832 1270 847 c 0,13,14
 1235 862 1235 862 1184 862 c 0,15,16
 1158 862 1158 862 1129.5 857.5 c 0,17,18
 1101 853 1101 853 1072.5 845.5 c 0,19,20
 1044 838 1044 838 1016.5 827.5 c 0,21,22
 989 817 989 817 965 805 c 0,23,-1
 965 131 l 0,24,25
 965 112 965 112 977 100 c 0,26,27
 989 88 989 88 1008 86 c 0,28,-1
 1094 80 l 0,29,-1
 1094 0 l 0,30,-1
 645 0 l 0,31,-1
 645 80 l 0,32,-1
 731 86 l 0,33,34
 750 88 750 88 762 100 c 0,35,36
 774 112 774 112 774 131 c 0,37,-1
 774 666 l 0,38,39
 774 709 774 709 764.5 745.5 c 0,40,41
 755 782 755 782 733.5 807.5 c 0,42,43
 712 833 712 833 677.5 847.5 c 0,44,45
 643 862 643 862 594 862 c 0,46,47
 565 862 565 862 533.5 856.5 c 0,48,49
 502 851 502 851 473 842.5 c 0,50,51
 444 834 444 834 418.5 823.5 c 0,52,53
 393 813 393 813 375 803 c 0,54,-1
 375 131 l 0,55,56
 375 112 375 112 387 100 c 0,57,58
 399 88 399 88 418 86 c 0,59,-1
 504 80 l 0,60,-1
 504 0 l 0,61,-1
 41 0 l 0,62,-1
 41 80 l 0,63,-1
 141 86 l 0,64,65
 160 88 160 88 172 100 c 0,66,67
 184 112 184 112 184 131 c 0,68,-1
 184 842 l 0,69,-1
 43 842 l 0,70,-1
 43 909 l 0,71,-1
 291 987 l 0,72,-1
 375 987 l 0,73,-1
 375 885 l 0,74,75
 409 906 409 906 450.5 928 c 0,76,77
 492 950 492 950 536 969 c 0,78,79
 580 988 580 988 624.5 1000 c 0,80,81
 669 1012 669 1012 709 1012 c 0,82,83
 753 1012 753 1012 789 999.5 c 0,84,85
 825 987 825 987 852.5 966.5 c 0,86,87
 880 946 880 946 900.5 920.5 c 0,88,89
 921 895 921 895 934 870 c 0,90,91
 965 889 965 889 1009 914 c 0,92,93
 1053 939 1053 939 1102 960.5 c 0,94,95
 1151 982 1151 982 1200 997 c 0,96,97
 1249 1012 1249 1012 1290 1012 c 0,98,99
 1371 1012 1371 1012 1422 982.5 c 0,100,101
 1473 953 1473 953 1502.5 907.5 c 0,102,103
 1532 862 1532 862 1543 806 c 0,104,105
 1554 750 1554 750 1554 698 c 0,106,-1
 1554 131 l 0,107,108
 1554 112 1554 112 1566.5 100 c 0,109,110
 1579 88 1579 88 1597 86 c 0,111,-1
 1696 80 l 0,112,-1
 1696 0 l 0,113,-1
 1237 0 l 0,0,-1
EndSplineSet
EndChar

StartChar: n
Encoding: 81 110 81
Width: 1161
Flags: W
LayerCount: 2
Fore
SplineSet
668 0 m 0,0,-1
 668 80 l 0,1,-1
 754 86 l 0,2,3
 772 88 772 88 784.5 100 c 0,4,5
 797 112 797 112 797 131 c 0,6,-1
 797 664 l 0,7,8
 797 761 797 761 752 811.5 c 0,9,10
 707 862 707 862 600 862 c 0,11,12
 541 862 541 862 484 845.5 c 0,13,14
 427 829 427 829 375 803 c 0,15,-1
 375 131 l 0,16,17
 375 112 375 112 387 100 c 0,18,19
 399 88 399 88 418 86 c 0,20,-1
 504 80 l 0,21,-1
 504 0 l 0,22,-1
 41 0 l 0,23,-1
 41 80 l 0,24,-1
 141 86 l 0,25,26
 160 88 160 88 172 100 c 0,27,28
 184 112 184 112 184 131 c 0,29,-1
 184 842 l 0,30,-1
 41 842 l 0,31,-1
 41 909 l 0,32,-1
 291 987 l 0,33,-1
 375 987 l 0,34,-1
 375 885 l 0,35,36
 418 909 418 909 462.5 932 c 0,37,38
 507 955 507 955 551 973 c 0,39,40
 595 991 595 991 636 1001.5 c 0,41,42
 677 1012 677 1012 713 1012 c 0,43,44
 847 1012 847 1012 917 929 c 0,45,46
 987 846 987 846 987 696 c 0,47,-1
 987 131 l 0,48,49
 987 112 987 112 999.5 100 c 0,50,51
 1012 88 1012 88 1030 86 c 0,52,-1
 1120 80 l 0,53,-1
 1120 0 l 0,54,-1
 668 0 l 0,0,-1
EndSplineSet
EndChar

StartChar: o
Encoding: 82 111 82
Width: 1114
Flags: W
LayerCount: 2
Fore
SplineSet
1044 492 m 0,0,1
 1044 383 1044 383 1009.5 288.5 c 0,2,3
 975 194 975 194 911.5 124.5 c 0,4,5
 848 55 848 55 757.5 15 c 0,6,7
 667 -25 667 -25 555 -25 c 0,8,9
 443 -25 443 -25 353 14.5 c 0,10,11
 263 54 263 54 200 123 c 0,12,13
 137 192 137 192 103.5 286.5 c 0,14,15
 70 381 70 381 70 492 c 0,16,17
 70 601 70 601 104 696 c 0,18,19
 138 791 138 791 202 861.5 c 0,20,21
 266 932 266 932 356.5 972 c 0,22,23
 447 1012 447 1012 561 1012 c 0,24,25
 675 1012 675 1012 765 971 c 0,26,27
 855 930 855 930 917 859.5 c 0,28,29
 979 789 979 789 1011.5 694.5 c 0,30,31
 1044 600 1044 600 1044 492 c 0,0,1
831 494 m 0,32,33
 831 578 831 578 814.5 655 c 0,34,35
 798 732 798 732 764 791 c 0,36,37
 730 850 730 850 679 885 c 0,38,39
 628 920 628 920 559 920 c 0,40,41
 488 920 488 920 436 885 c 0,42,43
 384 850 384 850 350.5 791 c 0,44,45
 317 732 317 732 301 655 c 0,46,47
 285 578 285 578 285 494 c 0,48,49
 285 411 285 411 301.5 334 c 0,50,51
 318 257 318 257 352 198 c 0,52,53
 386 139 386 139 437 103.5 c 0,54,55
 488 68 488 68 557 68 c 0,56,57
 627 68 627 68 679 103 c 0,58,59
 731 138 731 138 764.5 197 c 0,60,61
 798 256 798 256 814.5 333 c 0,62,63
 831 410 831 410 831 494 c 0,32,33
EndSplineSet
EndChar

StartChar: p
Encoding: 83 112 83
Width: 1145
Flags: W
LayerCount: 2
Fore
SplineSet
1075 508 m 0,0,1
 1075 387 1075 387 1039.5 288.5 c 0,2,3
 1004 190 1004 190 937.5 120.5 c 0,4,5
 871 51 871 51 774.5 13 c 0,6,7
 678 -25 678 -25 557 -25 c 0,8,9
 529 -25 529 -25 497 -22.5 c 0,10,11
 465 -20 465 -20 438 -16 c 0,12,13
 406 -12 406 -12 375 -6 c 0,14,-1
 375 -311 l 0,15,16
 375 -330 375 -330 388 -341 c 0,17,18
 401 -352 401 -352 420 -354 c 0,19,-1
 541 -367 l 0,20,-1
 541 -446 l 0,21,-1
 43 -446 l 0,22,-1
 43 -367 l 0,23,-1
 141 -354 l 0,24,25
 160 -352 160 -352 172 -341 c 0,26,27
 184 -330 184 -330 184 -311 c 0,28,-1
 184 842 l 0,29,-1
 43 842 l 0,30,-1
 43 909 l 0,31,-1
 295 987 l 0,32,-1
 375 987 l 0,33,-1
 375 885 l 0,34,35
 419 920 419 920 469 948 c 0,36,37
 512 972 512 972 568 992 c 0,38,39
 624 1012 624 1012 684 1012 c 0,40,41
 763 1012 763 1012 834 976 c 0,42,43
 905 940 905 940 958.5 874 c 0,44,45
 1012 808 1012 808 1043.5 715 c 0,46,47
 1075 622 1075 622 1075 508 c 0,0,1
870 479 m 0,48,49
 870 558 870 558 851.5 628.5 c 0,50,51
 833 699 833 699 797 752.5 c 0,52,53
 761 806 761 806 707.5 837 c 0,54,55
 654 868 654 868 584 868 c 0,56,57
 545 868 545 868 507.5 858 c 0,58,59
 470 848 470 848 441 837 c 0,60,61
 407 824 407 824 375 807 c 0,62,-1
 375 102 l 0,63,64
 399 93 399 93 426 86 c 0,65,66
 449 80 449 80 479 75 c 0,67,68
 509 70 509 70 541 70 c 0,69,70
 625 70 625 70 687 104 c 0,71,72
 749 138 749 138 789.5 194.5 c 0,73,74
 830 251 830 251 850 325 c 0,75,76
 870 399 870 399 870 479 c 0,48,49
EndSplineSet
EndChar

StartChar: q
Encoding: 84 113 84
Width: 1124
Flags: W
LayerCount: 2
Fore
SplineSet
598 -446 m 0,0,-1
 598 -369 l 0,1,-1
 719 -358 l 0,2,3
 737 -356 737 -356 749.5 -345 c 0,4,5
 762 -334 762 -334 762 -315 c 0,6,-1
 762 55 l 0,7,8
 733 41 733 41 698 27 c 0,9,10
 663 13 663 13 624.5 1.5 c 0,11,12
 586 -10 586 -10 547.5 -17.5 c 0,13,14
 509 -25 509 -25 475 -25 c 0,15,16
 380 -25 380 -25 305 14 c 0,17,18
 230 53 230 53 178 120 c 0,19,20
 126 187 126 187 98 277 c 0,21,22
 70 367 70 367 70 469 c 0,23,24
 70 594 70 594 110 694.5 c 0,25,26
 150 795 150 795 226 865.5 c 0,27,28
 302 936 302 936 412 974 c 0,29,30
 522 1012 522 1012 662 1012 c 0,31,32
 690 1012 690 1012 727 1009.5 c 0,33,34
 764 1007 764 1007 803 1003 c 0,35,36
 842 999 842 999 881 992.5 c 0,37,38
 920 986 920 986 952 979 c 0,39,-1
 952 -315 l 0,40,41
 952 -334 952 -334 964.5 -344.5 c 0,42,43
 977 -355 977 -355 995 -358 c 0,44,-1
 1094 -369 l 0,45,-1
 1094 -446 l 0,46,-1
 598 -446 l 0,0,-1
762 895 m 0,47,48
 734 901 734 901 698.5 909.5 c 0,49,50
 663 918 663 918 621 918 c 0,51,52
 537 918 537 918 472.5 888 c 0,53,54
 408 858 408 858 364.5 803.5 c 0,55,56
 321 749 321 749 298.5 672.5 c 0,57,58
 276 596 276 596 276 502 c 0,59,60
 276 423 276 423 293.5 349.5 c 0,61,62
 311 276 311 276 348.5 220 c 0,63,64
 386 164 386 164 444.5 130 c 0,65,66
 503 96 503 96 586 96 c 0,67,68
 605 96 605 96 628.5 98.5 c 0,69,70
 652 101 652 101 676 105 c 0,71,72
 700 109 700 109 722.5 114.5 c 0,73,74
 745 120 745 120 762 125 c 0,75,-1
 762 895 l 0,47,48
EndSplineSet
EndChar

StartChar: r
Encoding: 85 114 85
Width: 801
Flags: W
LayerCount: 2
Fore
SplineSet
700 778 m 0,0,1
 680 801 680 801 654 817.5 c 0,2,3
 628 834 628 834 590 834 c 0,4,5
 540 834 540 834 489 800.5 c 0,6,7
 438 767 438 767 385 707 c 0,8,-1
 385 131 l 0,9,10
 385 112 385 112 397 100 c 0,11,12
 409 88 409 88 428 86 c 0,13,-1
 563 80 l 0,14,-1
 563 0 l 0,15,-1
 51 0 l 0,16,-1
 51 78 l 0,17,-1
 152 86 l 0,18,19
 170 88 170 88 182.5 100 c 0,20,21
 195 112 195 112 195 131 c 0,22,-1
 195 842 l 0,23,-1
 47 842 l 0,24,-1
 47 909 l 0,25,-1
 301 987 l 0,26,-1
 385 987 l 0,27,-1
 385 805 l 0,28,29
 407 829 407 829 438.5 864.5 c 0,30,31
 470 900 470 900 506 933 c 0,32,33
 542 966 542 966 580.5 989 c 0,34,35
 619 1012 619 1012 655 1012 c 0,36,37
 671 1012 671 1012 689 1009 c 0,38,39
 707 1006 707 1006 724 1001.5 c 0,40,41
 741 997 741 997 755.5 991.5 c 0,42,43
 770 986 770 986 780 981 c 0,44,-1
 780 778 l 0,45,-1
 700 778 l 0,0,1
EndSplineSet
EndChar

StartChar: s
Encoding: 86 115 86
Width: 815
Flags: W
LayerCount: 2
Fore
SplineSet
745 297 m 0,0,1
 745 222 745 222 718 162 c 0,2,3
 691 102 691 102 641 60.5 c 0,4,5
 591 19 591 19 518 -3 c 0,6,7
 445 -25 445 -25 354 -25 c 0,8,9
 307 -25 307 -25 262.5 -19.5 c 0,10,11
 218 -14 218 -14 180.5 -5.5 c 0,12,13
 143 3 143 3 114 12 c 0,14,15
 85 21 85 21 70 27 c 0,16,-1
 70 299 l 0,17,-1
 174 299 l 0,18,-1
 199 125 l 0,19,20
 230 105 230 105 275.5 86.5 c 0,21,22
 321 68 321 68 381 68 c 0,23,24
 425 68 425 68 459 81.5 c 0,25,26
 493 95 493 95 516.5 117 c 0,27,28
 540 139 540 139 552.5 167.5 c 0,29,30
 565 196 565 196 565 227 c 0,31,32
 565 270 565 270 548 300.5 c 0,33,34
 531 331 531 331 499 355.5 c 0,35,36
 467 380 467 380 420.5 403 c 0,37,38
 374 426 374 426 315 455 c 0,39,40
 259 482 259 482 216 508.5 c 0,41,42
 173 535 173 535 143.5 565.5 c 0,43,44
 114 596 114 596 99 632.5 c 0,45,46
 84 669 84 669 84 715 c 0,47,48
 84 783 84 783 108.5 838 c 0,49,50
 133 893 133 893 180 931.5 c 0,51,52
 227 970 227 970 295.5 991 c 0,53,54
 364 1012 364 1012 453 1012 c 0,55,56
 498 1012 498 1012 539 1007 c 0,57,58
 580 1002 580 1002 614 995 c 0,59,60
 648 988 648 988 674 980 c 0,61,62
 700 972 700 972 715 965 c 0,63,-1
 715 723 l 0,64,-1
 608 723 l 0,65,-1
 592 866 l 0,66,67
 570 883 570 883 527 898 c 0,68,69
 484 913 484 913 436 913 c 0,70,71
 351 913 351 913 310.5 874.5 c 0,72,73
 270 836 270 836 270 776 c 0,74,75
 270 741 270 741 281.5 715 c 0,76,77
 293 689 293 689 319.5 666 c 0,78,79
 346 643 346 643 389.5 619 c 0,80,81
 433 595 433 595 498 565 c 0,82,83
 552 541 552 541 597 515 c 0,84,85
 642 489 642 489 675 457 c 0,86,87
 708 425 708 425 726.5 386 c 0,88,89
 745 347 745 347 745 297 c 0,0,1
EndSplineSet
EndChar

StartChar: t
Encoding: 87 116 87
Width: 696
Flags: W
LayerCount: 2
Fore
SplineSet
682 43 m 0,0,1
 644 24 644 24 599 9 c 0,2,3
 561 -4 561 -4 511 -14.5 c 0,4,5
 461 -25 461 -25 406 -25 c 0,6,7
 290 -25 290 -25 238 29 c 0,8,9
 186 83 186 83 186 205 c 0,10,-1
 186 885 l 0,11,-1
 55 885 l 0,12,-1
 55 952 l 0,13,-1
 195 1018 l 0,14,-1
 287 1235 l 0,15,-1
 377 1235 l 0,16,-1
 377 987 l 0,17,-1
 666 987 l 0,18,-1
 666 885 l 0,19,-1
 377 885 l 0,20,-1
 377 313 l 0,21,22
 377 252 377 252 387.5 209.5 c 0,23,24
 398 167 398 167 418.5 140.5 c 0,25,26
 439 114 439 114 469.5 102 c 0,27,28
 500 90 500 90 541 90 c 0,29,30
 571 90 571 90 596.5 95 c 0,31,32
 622 100 622 100 641 107 c 0,33,34
 663 115 663 115 682 125 c 0,35,-1
 682 43 l 0,0,1
EndSplineSet
EndChar

StartChar: u
Encoding: 88 117 88
Width: 1165
Flags: W
LayerCount: 2
Fore
SplineSet
795 0 m 0,0,-1
 795 117 l 0,1,2
 769 97 769 97 731.5 72 c 0,3,4
 694 47 694 47 650.5 25.5 c 0,5,6
 607 4 607 4 559.5 -10.5 c 0,7,8
 512 -25 512 -25 467 -25 c 0,9,10
 401 -25 401 -25 348.5 -5.5 c 0,11,12
 296 14 296 14 259.5 54.5 c 0,13,14
 223 95 223 95 203.5 157.5 c 0,15,16
 184 220 184 220 184 307 c 0,17,-1
 184 862 l 0,18,-1
 41 862 l 0,19,-1
 41 932 l 0,20,-1
 293 1012 l 0,21,-1
 375 1012 l 0,22,-1
 375 346 l 0,23,24
 375 292 375 292 385.5 249 c 0,25,26
 396 206 396 206 419.5 176 c 0,27,28
 443 146 443 146 481 130.5 c 0,29,30
 519 115 519 115 573 115 c 0,31,32
 604 115 604 115 636 121 c 0,33,34
 668 127 668 127 697 136.5 c 0,35,36
 726 146 726 146 751.5 156.5 c 0,37,38
 777 167 777 167 795 176 c 0,39,-1
 795 862 l 0,40,-1
 651 862 l 0,41,-1
 651 932 l 0,42,-1
 901 1012 l 0,43,-1
 985 1012 l 0,44,-1
 985 131 l 0,45,46
 985 112 985 112 998.5 100 c 0,47,48
 1012 88 1012 88 1030 86 c 0,49,-1
 1120 80 l 0,50,-1
 1120 0 l 0,51,-1
 795 0 l 0,0,-1
EndSplineSet
EndChar

StartChar: v
Encoding: 89 118 89
Width: 1083
Flags: W
LayerCount: 2
Fore
SplineSet
954 895 m 0,0,-1
 596 0 l 0,1,-1
 463 0 l 0,2,-1
 133 895 l 0,3,-1
 20 907 l 0,4,-1
 20 987 l 0,5,-1
 473 987 l 0,6,-1
 473 907 l 0,7,-1
 375 901 l 0,8,9
 358 899 358 899 348 886 c 0,10,11
 338 873 338 873 344 856 c 0,12,-1
 573 215 l 0,13,-1
 825 856 l 0,14,15
 832 872 832 872 823 885.5 c 0,16,17
 814 899 814 899 797 901 c 0,18,-1
 705 907 l 0,19,-1
 705 987 l 0,20,-1
 1063 987 l 0,21,-1
 1063 907 l 0,22,-1
 954 895 l 0,0,-1
EndSplineSet
EndChar

StartChar: w
Encoding: 90 119 90
Width: 1604
Flags: W
LayerCount: 2
Fore
SplineSet
1479 895 m 0,0,-1
 1198 0 l 0,1,-1
 1053 0 l 0,2,-1
 811 766 l 0,3,-1
 541 0 l 0,4,-1
 395 0 l 0,5,-1
 133 895 l 0,6,-1
 20 907 l 0,7,-1
 20 987 l 0,8,-1
 469 987 l 0,9,-1
 469 907 l 0,10,-1
 373 901 l 0,11,12
 356 899 356 899 346.5 886 c 0,13,14
 337 873 337 873 342 856 c 0,15,-1
 512 219 l 0,16,-1
 776 987 l 0,17,-1
 922 987 l 0,18,-1
 1159 219 l 0,19,-1
 1348 856 l 0,20,21
 1353 872 1353 872 1344.5 885.5 c 0,22,23
 1336 899 1336 899 1319 901 c 0,24,-1
 1225 907 l 0,25,-1
 1225 987 l 0,26,-1
 1583 987 l 0,27,-1
 1583 907 l 0,28,-1
 1479 895 l 0,0,-1
EndSplineSet
EndChar

StartChar: x
Encoding: 91 120 91
Width: 1044
Flags: W
LayerCount: 2
Fore
SplineSet
584 0 m 0,0,-1
 584 80 l 0,1,-1
 653 88 l 0,2,3
 667 90 667 90 672.5 102 c 0,4,5
 678 114 678 114 672 125 c 0,6,-1
 496 387 l 0,7,-1
 295 125 l 0,8,9
 287 116 287 116 290 103 c 0,10,11
 293 90 293 90 307 88 c 0,12,-1
 410 80 l 0,13,-1
 410 0 l 0,14,-1
 20 0 l 0,15,-1
 20 80 l 0,16,-1
 137 96 l 0,17,-1
 430 477 l 0,18,-1
 152 889 l 0,19,-1
 31 907 l 0,20,-1
 31 987 l 0,21,-1
 481 987 l 0,22,-1
 481 907 l 0,23,-1
 410 897 l 0,24,25
 396 895 396 895 389.5 883 c 0,26,27
 383 871 383 871 389 860 c 0,28,-1
 551 631 l 0,29,-1
 729 860 l 0,30,31
 737 869 737 869 733 882 c 0,32,33
 729 895 729 895 715 897 c 0,34,-1
 627 907 l 0,35,-1
 627 987 l 0,36,-1
 995 987 l 0,37,-1
 995 907 l 0,38,-1
 885 889 l 0,39,-1
 610 539 l 0,40,-1
 913 96 l 0,41,-1
 1024 80 l 0,42,-1
 1024 0 l 0,43,-1
 584 0 l 0,0,-1
EndSplineSet
EndChar

StartChar: y
Encoding: 92 121 92
Width: 1085
Flags: W
LayerCount: 2
Fore
SplineSet
958 895 m 0,0,-1
 565 -63 l 0,1,2
 555 -88 555 -88 537 -130 c 0,3,4
 519 -172 519 -172 494.5 -219.5 c 0,5,6
 470 -267 470 -267 440.5 -313 c 0,7,8
 411 -359 411 -359 379 -391 c 0,9,10
 342 -428 342 -428 297.5 -448.5 c 0,11,12
 253 -469 253 -469 201 -469 c 0,13,14
 165 -469 165 -469 137 -459.5 c 0,15,16
 109 -450 109 -450 90 -434 c 0,17,18
 71 -418 71 -418 61 -396.5 c 0,19,20
 51 -375 51 -375 51 -352 c 0,21,22
 51 -317 51 -317 66.5 -287.5 c 0,23,24
 82 -258 82 -258 117 -229 c 0,25,-1
 309 -317 l 0,26,27
 334 -292 334 -292 360 -251.5 c 0,28,29
 386 -211 386 -211 409 -166 c 0,30,31
 432 -121 432 -121 451 -76.5 c 0,32,33
 470 -32 470 -32 481 2 c 0,34,-1
 133 895 l 0,35,-1
 20 907 l 0,36,-1
 20 987 l 0,37,-1
 473 987 l 0,38,-1
 473 907 l 0,39,-1
 375 901 l 0,40,41
 358 899 358 899 348 886 c 0,42,43
 338 873 338 873 344 856 c 0,44,-1
 582 252 l 0,45,-1
 825 856 l 0,46,47
 832 872 832 872 823 885.5 c 0,48,49
 814 899 814 899 797 901 c 0,50,-1
 700 907 l 0,51,-1
 700 987 l 0,52,-1
 1065 987 l 0,53,-1
 1065 907 l 0,54,-1
 958 895 l 0,0,-1
EndSplineSet
EndChar

StartChar: z
Encoding: 93 122 93
Width: 946
Flags: W
LayerCount: 2
Fore
SplineSet
70 0 m 0,0,-1
 70 109 l 0,1,-1
 612 891 l 0,2,-1
 256 891 l 0,3,4
 241 891 241 891 229.5 876.5 c 0,5,6
 218 862 218 862 215 848 c 0,7,-1
 195 696 l 0,8,-1
 90 696 l 0,9,-1
 90 987 l 0,10,-1
 848 987 l 0,11,-1
 848 903 l 0,12,-1
 287 98 l 0,13,-1
 700 98 l 0,14,15
 707 98 707 98 714.5 103 c 0,16,17
 722 108 722 108 728.5 115 c 0,18,19
 735 122 735 122 739.5 130.5 c 0,20,21
 744 139 744 139 745 147 c 0,22,-1
 766 309 l 0,23,-1
 877 309 l 0,24,-1
 877 0 l 0,25,-1
 70 0 l 0,0,-1
EndSplineSet
EndChar

StartChar: braceleft
Encoding: 94 123 94
Width: 999
Flags: W
LayerCount: 2
Fore
SplineSet
858 -252 m 0,0,1
 804 -252 804 -252 751 -248 c 0,2,3
 698 -244 698 -244 651 -233.5 c 0,4,5
 604 -223 604 -223 565.5 -206 c 0,6,7
 527 -189 527 -189 502 -162 c 0,8,9
 467 -126 467 -126 450 -83.5 c 0,10,11
 433 -41 433 -41 425.5 6 c 0,12,13
 418 53 418 53 418 102 c 0,14,-1
 418 278 l 0,15,16
 418 319 418 319 413 359 c 0,17,18
 408 399 408 399 396 435 c 0,19,20
 384 471 384 471 360 494 c 0,21,22
 342 512 342 512 319 522.5 c 0,23,24
 296 533 296 533 267.5 539 c 0,25,26
 239 545 239 545 203.5 547 c 0,27,28
 168 549 168 549 123 549 c 0,29,-1
 123 641 l 0,30,31
 168 641 168 641 203.5 643 c 0,32,33
 239 645 239 645 267.5 651 c 0,34,35
 296 657 296 657 319 667.5 c 0,36,37
 342 678 342 678 360 696 c 0,38,39
 384 719 384 719 396 755 c 0,40,41
 408 791 408 791 413 831 c 0,42,43
 418 871 418 871 418 912 c 0,44,-1
 418 1087 l 0,45,46
 418 1137 418 1137 425.5 1183.5 c 0,47,48
 433 1230 433 1230 450 1273 c 0,49,50
 467 1316 467 1316 502 1352 c 0,51,52
 527 1379 527 1379 565.5 1396 c 0,53,54
 604 1413 604 1413 651 1423.5 c 0,55,56
 698 1434 698 1434 751 1438 c 0,57,58
 804 1442 804 1442 858 1442 c 0,59,-1
 858 1358 l 0,60,61
 845 1358 845 1358 818 1356 c 0,62,63
 791 1354 791 1354 759.5 1348 c 0,64,65
 728 1342 728 1342 698 1329.5 c 0,66,67
 668 1317 668 1317 649 1296 c 0,68,69
 628 1273 628 1273 617.5 1239 c 0,70,71
 607 1205 607 1205 603 1164.5 c 0,72,73
 599 1124 599 1124 599.5 1080 c 0,74,75
 600 1036 600 1036 600 993 c 0,76,77
 600 958 600 958 598.5 919.5 c 0,78,79
 597 881 597 881 591 843.5 c 0,80,81
 585 806 585 806 573.5 772.5 c 0,82,83
 562 739 562 739 541 713 c 0,84,85
 500 660 500 660 443.5 635 c 0,86,87
 387 610 387 610 324 596 c 0,88,89
 387 582 387 582 443.5 556 c 0,90,91
 500 530 500 530 541 477 c 0,92,93
 562 451 562 451 573.5 417.5 c 0,94,95
 585 384 585 384 591 346.5 c 0,96,97
 597 309 597 309 598.5 270.5 c 0,98,99
 600 232 600 232 600 197 c 0,100,101
 600 154 600 154 599.5 110 c 0,102,103
 599 66 599 66 603 25.5 c 0,104,105
 607 -15 607 -15 617.5 -49 c 0,106,107
 628 -83 628 -83 649 -106 c 0,108,109
 668 -127 668 -127 698 -139.5 c 0,110,111
 728 -152 728 -152 759.5 -158 c 0,112,113
 791 -164 791 -164 818 -166 c 0,114,115
 845 -168 845 -168 858 -168 c 0,116,-1
 858 -252 l 0,0,1
EndSplineSet
EndChar

StartChar: bar
Encoding: 95 124 95
Width: 724
Flags: W
LayerCount: 2
Fore
SplineSet
300 -528 m 0,0,-1
 300 1630 l 0,1,-1
 424 1630 l 0,2,-1
 424 -528 l 0,3,-1
 300 -528 l 0,0,-1
EndSplineSet
EndChar

StartChar: braceright
Encoding: 96 125 96
Width: 999
Flags: W
LayerCount: 2
Fore
SplineSet
877 549 m 0,0,1
 788 549 788 549 732 539 c 0,2,3
 676 529 676 529 639 494 c 0,4,5
 615 471 615 471 603 435 c 0,6,7
 591 399 591 399 586.5 359 c 0,8,9
 582 319 582 319 582 278 c 0,10,-1
 582 102 l 0,11,12
 582 53 582 53 574.5 6 c 0,13,14
 567 -41 567 -41 549.5 -83.5 c 0,15,16
 532 -126 532 -126 498 -162 c 0,17,18
 472 -189 472 -189 434 -206 c 0,19,20
 396 -223 396 -223 349 -233.5 c 0,21,22
 302 -244 302 -244 249 -248 c 0,23,24
 196 -252 196 -252 141 -252 c 0,25,-1
 141 -168 l 0,26,27
 154 -168 154 -168 181 -166 c 0,28,29
 208 -164 208 -164 239.5 -158 c 0,30,31
 271 -152 271 -152 301 -139.5 c 0,32,33
 331 -127 331 -127 350 -106 c 0,34,35
 372 -83 372 -83 382 -49 c 0,36,37
 392 -15 392 -15 396 25.5 c 0,38,39
 400 66 400 66 399.5 110 c 0,40,41
 399 154 399 154 399 197 c 0,42,43
 399 232 399 232 400.5 270.5 c 0,44,45
 402 309 402 309 408 346.5 c 0,46,47
 414 384 414 384 426 417.5 c 0,48,49
 438 451 438 451 459 477 c 0,50,51
 499 530 499 530 556 556 c 0,52,53
 613 582 613 582 676 596 c 0,54,55
 644 603 644 603 614 612 c 0,56,57
 584 621 584 621 556 635 c 0,58,59
 528 649 528 649 503.5 668 c 0,60,61
 479 687 479 687 459 713 c 0,62,63
 438 739 438 739 426 772.5 c 0,64,65
 414 806 414 806 408 843.5 c 0,66,67
 402 881 402 881 400.5 919.5 c 0,68,69
 399 958 399 958 399 993 c 0,70,71
 399 1036 399 1036 399.5 1080 c 0,72,73
 400 1124 400 1124 396 1164.5 c 0,74,75
 392 1205 392 1205 382 1239 c 0,76,77
 372 1273 372 1273 350 1296 c 0,78,79
 331 1317 331 1317 301 1329.5 c 0,80,81
 271 1342 271 1342 239.5 1348 c 0,82,83
 208 1354 208 1354 181 1356 c 0,84,85
 154 1358 154 1358 141 1358 c 0,86,-1
 141 1442 l 0,87,88
 196 1442 196 1442 249 1438 c 0,89,90
 302 1434 302 1434 349 1423.5 c 0,91,92
 396 1413 396 1413 434 1396 c 0,93,94
 472 1379 472 1379 498 1352 c 0,95,96
 532 1316 532 1316 549.5 1273 c 0,97,98
 567 1230 567 1230 574.5 1183.5 c 0,99,100
 582 1137 582 1137 582 1087 c 0,101,-1
 582 912 l 0,102,103
 582 871 582 871 586.5 831 c 0,104,105
 591 791 591 791 603 755 c 0,106,107
 615 719 615 719 639 696 c 0,108,109
 676 661 676 661 732 651 c 0,110,111
 788 641 788 641 877 641 c 0,112,-1
 877 549 l 0,0,1
EndSplineSet
EndChar

StartChar: asciitilde
Encoding: 97 126 97
Width: 1706
Flags: W
LayerCount: 2
Fore
SplineSet
1530 627 m 1,0,1
 1473 586 1473 586 1422.5 559 c 128,-1,2
 1372 532 1372 532 1326 516 c 128,-1,3
 1280 500 1280 500 1237 493.5 c 128,-1,4
 1194 487 1194 487 1151 487 c 0,5,6
 1079 487 1079 487 1007.5 507.5 c 128,-1,7
 936 528 936 528 863.5 554 c 128,-1,8
 791 580 791 580 716 600.5 c 128,-1,9
 641 621 641 621 563 621 c 256,10,11
 485 621 485 621 388 579 c 128,-1,12
 291 537 291 537 188 463 c 1,13,-1
 188 594 l 1,14,15
 297 672 297 672 394.5 704.5 c 128,-1,16
 492 737 492 737 573 737 c 0,17,18
 647 737 647 737 722 716.5 c 128,-1,19
 797 696 797 696 870.5 671.5 c 128,-1,20
 944 647 944 647 1014.5 626.5 c 128,-1,21
 1085 606 1085 606 1151 606 c 0,22,23
 1223 606 1223 606 1316 640 c 128,-1,24
 1409 674 1409 674 1532 762 c 1,25,-1
 1530 627 l 1,0,1
EndSplineSet
Refer: 348 -1 N 1 0 0 1 0 0 2
EndChar

StartChar: exclam.taml
Encoding: 99 -1 99
Width: 917
Flags: W
LayerCount: 2
Fore
SplineSet
510 1290 m 0,0,1
 633 1290 633 1290 633 1081 c 1,2,3
 594 794 594 794 557 498 c 0,4,5
 543 387 543 387 524 205 c 1,6,-1
 506 205 l 1,7,8
 483 385 483 385 473 496 c 0,9,10
 440 777 440 777 397 1081 c 0,11,12
 395 1097 395 1097 395 1128 c 0,13,14
 395 1196 395 1196 426 1241 c 128,-1,15
 457 1286 457 1286 510 1290 c 0,0,1
514 20 m 0,16,17
 565 20 565 20 598 -12.5 c 128,-1,18
 631 -45 631 -45 631 -92 c 0,19,20
 631 -143 631 -143 598 -179 c 128,-1,21
 565 -215 565 -215 518 -215 c 256,22,23
 471 -215 471 -215 437 -181 c 128,-1,24
 403 -147 403 -147 403 -94 c 0,25,26
 403 -47 403 -47 436 -14.5 c 128,-1,27
 469 18 469 18 514 20 c 0,16,17
EndSplineSet
EndChar

StartChar: quoteleft.taml
Encoding: 100 -1 100
Width: 716
Flags: W
LayerCount: 2
Fore
SplineSet
506 1858 m 1,0,1
 369 1813 369 1813 287 1702 c 0,2,3
 219 1612 219 1612 219 1544 c 0,4,5
 219 1526 219 1526 230.5 1517.5 c 128,-1,6
 242 1509 242 1509 260 1509 c 256,7,8
 278 1509 278 1509 319 1536 c 128,-1,9
 360 1563 360 1563 385 1563 c 0,10,11
 416 1563 416 1563 438 1546 c 0,12,13
 524 1487 524 1487 524 1384 c 0,14,15
 524 1331 524 1331 496 1292 c 0,16,17
 473 1253 473 1253 433 1237 c 128,-1,18
 393 1221 393 1221 346 1221 c 0,19,20
 315 1221 315 1221 264 1226 c 128,-1,21
 213 1231 213 1231 165 1314 c 128,-1,22
 117 1397 117 1397 117 1493 c 0,23,24
 117 1532 117 1532 121 1550 c 0,25,26
 160 1755 160 1755 334 1868 c 0,27,28
 391 1905 391 1905 502 1944 c 1,29,-1
 506 1858 l 1,0,1
EndSplineSet
EndChar

StartChar: u20A8
Encoding: 101 8360 101
Width: 2293
Flags: W
LayerCount: 2
Fore
SplineSet
1995 246 m 0,0,1
 1995 135 1995 135 1911 59.5 c 128,-1,2
 1827 -16 1827 -16 1716 -16 c 0,3,4
 1665 -16 1665 -16 1582 0 c 128,-1,5
 1499 16 1499 16 1481 16 c 0,6,7
 1450 16 1450 16 1440 -2 c 1,8,-1
 1440 287 l 1,9,10
 1483 135 1483 135 1556 74 c 0,11,12
 1617 21 1617 21 1720 20 c 0,13,14
 1781 20 1781 20 1832.5 68.5 c 128,-1,15
 1884 117 1884 117 1884 168 c 0,16,17
 1884 242 1884 242 1812 299 c 0,18,19
 1767 336 1767 336 1651 393 c 0,20,21
 1528 459 1528 459 1495 489 c 0,22,23
 1436 542 1436 542 1436 639 c 0,24,25
 1436 748 1436 748 1502.5 812.5 c 128,-1,26
 1569 877 1569 877 1677 877 c 0,27,28
 1728 877 1728 877 1795 864.5 c 128,-1,29
 1862 852 1862 852 1866 852 c 0,30,31
 1897 852 1897 852 1907 877 c 1,32,-1
 1935 877 l 1,33,-1
 1935 608 l 1,34,-1
 1911 608 l 1,35,36
 1882 745 1882 745 1824.5 797.5 c 128,-1,37
 1767 850 1767 850 1667 850 c 0,38,39
 1608 850 1608 850 1560.5 814 c 128,-1,40
 1513 778 1513 778 1513 721 c 0,41,42
 1513 655 1513 655 1556 612 c 0,43,44
 1589 579 1589 579 1765 494 c 0,45,46
 1876 435 1876 435 1919 397 c 0,47,48
 1991 332 1991 332 1995 246 c 0,0,1
1278 12 m 1,49,-1
 948 12 l 1,50,-1
 514 618 l 1,51,-1
 369 614 l 1,52,-1
 365 231 l 2,53,54
 365 102 365 102 397 70 c 0,55,56
 420 47 420 47 506 47 c 2,57,-1
 547 47 l 1,58,-1
 547 16 l 1,59,-1
 23 16 l 1,60,-1
 23 47 l 1,61,-1
 49 47 l 2,62,63
 135 47 135 47 160 70 c 0,64,65
 203 107 203 107 203 231 c 2,66,-1
 203 1073 l 2,67,68
 203 1190 203 1190 169 1216.5 c 128,-1,69
 135 1243 135 1243 49 1243 c 2,70,-1
 16 1241 l 1,71,-1
 16 1278 l 1,72,-1
 469 1278 l 2,73,74
 741 1278 741 1278 869 1211.5 c 128,-1,75
 997 1145 997 1145 997 969 c 0,76,77
 997 854 997 854 926 774 c 0,78,79
 844 680 844 680 676 641 c 1,80,81
 809 461 809 461 874 373 c 0,82,83
 1083 99 1083 99 1109 83.5 c 128,-1,84
 1135 68 1135 68 1186 58.5 c 128,-1,85
 1237 49 1237 49 1274 45 c 1,86,-1
 1278 12 l 1,49,-1
811 944 m 0,87,88
 811 1061 811 1061 745 1135 c 0,89,90
 663 1229 663 1229 498 1229 c 0,91,92
 461 1229 461 1229 424 1229 c 0,93,94
 385 1221 385 1221 369 1219 c 1,95,-1
 369 674 l 1,96,97
 394 672 394 672 438 672 c 0,98,99
 604 672 604 672 708.5 750.5 c 128,-1,100
 813 829 813 829 811 944 c 0,87,88
EndSplineSet
EndChar

StartChar: percent.taml
Encoding: 102 -1 102
Width: 1665
Flags: W
LayerCount: 2
Fore
SplineSet
1430 449 m 0,0,1
 1430 244 1430 244 1333 133 c 0,2,3
 1253 43 1253 43 1143 43 c 0,4,5
 1030 43 1030 43 970.5 131 c 128,-1,6
 911 219 911 219 911 387 c 0,7,8
 911 610 911 610 1014 725 c 0,9,10
 1090 811 1090 811 1188 811 c 0,11,12
 1282 811 1282 811 1341 750 c 0,13,14
 1430 656 1430 656 1430 449 c 0,0,1
1221 1446 m 1,15,-1
 395 37 l 1,16,-1
 281 37 l 1,17,-1
 1102 1446 l 1,18,-1
 1221 1446 l 1,15,-1
606 1100 m 0,19,20
 606 877 606 877 504 762 c 0,21,22
 428 676 428 676 328 676 c 0,23,24
 234 676 234 676 174 737 c 0,25,26
 86 831 86 831 86 1034 c 0,27,28
 86 1239 86 1239 182 1350 c 0,29,30
 262 1440 262 1440 373 1440 c 0,31,32
 486 1440 486 1440 545 1352 c 128,-1,33
 604 1264 604 1264 606 1100 c 0,19,20
1311 338 m 0,34,35
 1311 510 1311 510 1255.5 587 c 128,-1,36
 1200 664 1200 664 1114 664 c 0,37,38
 1018 664 1018 664 1018 520 c 0,39,40
 1018 348 1018 348 1072 264 c 128,-1,41
 1126 180 1126 180 1221 180 c 0,42,43
 1311 180 1311 180 1311 338 c 0,34,35
489 956 m 0,44,45
 489 1128 489 1128 435 1212 c 128,-1,46
 381 1296 381 1296 287 1296 c 0,47,48
 197 1296 197 1296 197 1139 c 0,49,50
 197 969 197 969 256 887 c 0,51,52
 307 815 307 815 393 815 c 0,53,54
 489 815 489 815 489 956 c 0,44,45
EndSplineSet
EndChar

StartChar: ampersand.taml
Encoding: 103 -1 103
Width: 1447
Flags: W
LayerCount: 2
Fore
SplineSet
948 819 m 1,0,-1
 1325 819 l 1,1,-1
 1325 786 l 1,2,3
 1257 786 1257 786 1210 754 c 0,4,5
 1187 736 1187 736 1162 697.5 c 128,-1,6
 1137 659 1137 659 1098 586 c 0,7,8
 1026 449 1026 449 918 315 c 1,9,10
 949 278 949 278 991.5 241.5 c 128,-1,11
 1034 205 1034 205 1063 186 c 0,12,13
 1129 149 1129 149 1188 150 c 0,14,15
 1321 150 1321 150 1352 283 c 1,16,-1
 1389 258 l 1,17,18
 1321 10 1321 10 1116 10 c 0,19,20
 1046 10 1046 10 961 49 c 0,21,22
 922 72 922 72 884 102.5 c 128,-1,23
 846 133 846 133 795 184 c 1,24,25
 699 100 699 100 591 53 c 128,-1,26
 483 6 483 6 395 6 c 0,27,28
 264 6 264 6 171 87 c 128,-1,29
 78 168 78 168 78 285 c 0,30,31
 78 385 78 385 157 496.5 c 128,-1,32
 236 608 236 608 453 723 c 1,33,34
 379 891 379 891 379 993 c 0,35,36
 379 1126 379 1126 469 1207 c 128,-1,37
 559 1288 559 1288 696 1288 c 0,38,39
 798 1288 798 1288 868 1226.5 c 128,-1,40
 938 1165 938 1165 938 1071 c 256,41,42
 938 977 938 977 872.5 903 c 128,-1,43
 807 829 807 829 639 743 c 1,44,45
 698 639 698 639 757.5 545 c 128,-1,46
 817 451 817 451 879 371 c 1,47,48
 1035 561 1035 561 1034 690 c 0,49,50
 1034 729 1034 729 1015.5 757.5 c 128,-1,51
 997 786 997 786 952 791 c 1,52,-1
 948 819 l 1,0,-1
606 801 m 1,53,54
 829 910 829 910 829 1071 c 0,55,56
 829 1130 829 1130 789.5 1175.5 c 128,-1,57
 750 1221 750 1221 690 1221 c 0,58,59
 618 1221 618 1221 575 1169.5 c 128,-1,60
 532 1118 532 1118 532 1059 c 0,61,62
 532 1008 532 1008 544.5 956.5 c 128,-1,63
 557 905 557 905 606 801 c 1,53,54
743 229 m 1,64,65
 620 403 620 403 578 471 c 0,66,67
 547 522 547 522 479 653 c 1,68,69
 368 585 368 585 317 518 c 0,70,71
 266 442 266 442 266 360 c 0,72,73
 266 264 266 264 326 188 c 0,74,75
 359 151 359 151 396.5 130 c 128,-1,76
 434 109 434 109 481 109 c 0,77,78
 534 109 534 109 598.5 138.5 c 128,-1,79
 663 168 663 168 743 229 c 1,64,65
EndSplineSet
EndChar

StartChar: quoteright.taml
Encoding: 104 -1 104
Width: 716
Flags: W
LayerCount: 2
Fore
SplineSet
430 1577 m 0,0,1
 391 1372 391 1372 217 1257 c 0,2,3
 160 1220 160 1220 49 1182 c 1,4,-1
 49 1264 l 1,5,6
 186 1309 186 1309 268 1419 c 0,7,8
 336 1509 336 1509 336 1577 c 0,9,10
 336 1595 336 1595 324.5 1603.5 c 128,-1,11
 313 1612 313 1612 295 1612 c 256,12,13
 277 1612 277 1612 236 1585.5 c 128,-1,14
 195 1559 195 1559 170 1559 c 0,15,16
 139 1559 139 1559 117 1575 c 0,17,18
 31 1634 31 1634 31 1737 c 0,19,20
 31 1790 31 1790 59 1829 c 0,21,22
 82 1868 82 1868 122 1884.5 c 128,-1,23
 162 1901 162 1901 209 1901 c 0,24,25
 240 1901 240 1901 291 1895.5 c 128,-1,26
 342 1890 342 1890 390 1807 c 128,-1,27
 438 1724 438 1724 438 1628 c 0,28,29
 438 1589 438 1589 430 1577 c 0,0,1
EndSplineSet
EndChar

StartChar: parenleft.taml
Encoding: 105 -1 105
Width: 802
Flags: W
LayerCount: 2
Fore
SplineSet
862 -705 m 1,0,-1
 846 -723 l 1,1,2
 500 -528 500 -528 317 -182 c 0,3,4
 145 144 145 144 145 541 c 0,5,6
 145 947 145 947 313 1266 c 0,7,8
 493 1610 493 1610 846 1806 c 1,9,-1
 862 1790 l 1,10,11
 622 1600 622 1600 494.5 1266 c 128,-1,12
 367 932 367 932 367 545 c 0,13,14
 367 168 367 168 493.5 -167 c 128,-1,15
 620 -502 620 -502 862 -705 c 1,0,-1
EndSplineSet
EndChar

StartChar: parenright.taml
Encoding: 106 -1 106
Width: 802
Flags: W
LayerCount: 2
Fore
SplineSet
545 541 m 0,0,1
 545 138 545 138 377 -182 c 0,2,3
 197 -524 197 -524 -156 -721 c 1,4,-1
 -172 -702 l 1,5,6
 68 -501 68 -501 199 -154 c 0,7,8
 322 172 322 172 322 547 c 0,9,10
 322 936 322 936 199 1255 c 0,11,12
 68 1599 68 1599 -172 1790 c 1,13,-1
 -156 1806 l 1,14,15
 190 1611 190 1611 373 1266 c 0,16,17
 545 940 545 940 545 541 c 0,0,1
EndSplineSet
EndChar

StartChar: asterisk.taml
Encoding: 107 -1 107
Width: 1720
Flags: W
LayerCount: 2
Fore
SplineSet
840 1149 m 1,0,1
 783 1116 783 1116 725 1061 c 0,2,3
 657 993 657 993 592 926 c 0,4,5
 563 903 563 903 530 903 c 0,6,7
 483 903 483 903 459 946 c 0,8,9
 449 960 449 960 449 989 c 0,10,11
 449 1057 449 1057 490.5 1069 c 128,-1,12
 532 1081 532 1081 686 1124 c 0,13,14
 772 1147 772 1147 825 1178 c 1,15,16
 778 1201 778 1201 725 1217 c 0,17,18
 616 1246 616 1246 508 1276 c 1,19,20
 453 1301 453 1301 453 1362 c 0,21,22
 453 1387 453 1387 461 1403 c 0,23,24
 492 1446 492 1446 543 1446 c 0,25,26
 576 1446 576 1446 594 1427 c 0,27,28
 694 1323 694 1323 727 1290 c 0,29,30
 780 1237 780 1237 840 1198 c 1,31,32
 840 1270 840 1270 810 1371.5 c 128,-1,33
 780 1473 780 1473 770 1534 c 0,34,35
 770 1579 770 1579 795.5 1607.5 c 128,-1,36
 821 1636 821 1636 858 1636 c 256,37,38
 895 1636 895 1636 917.5 1607.5 c 128,-1,39
 940 1579 940 1579 940 1532 c 1,40,41
 901 1389 901 1389 891 1343 c 0,42,43
 873 1269 873 1269 872 1204 c 1,44,45
 929 1237 929 1237 989 1296 c 0,46,47
 1112 1419 1112 1419 1127.5 1431.5 c 128,-1,48
 1143 1444 1143 1444 1174 1444 c 0,49,50
 1225 1444 1225 1444 1255 1405 c 0,51,52
 1263 1382 1263 1382 1264 1364 c 0,53,54
 1264 1292 1264 1292 1206 1278 c 0,55,56
 1198 1276 1198 1276 1022 1231 c 0,57,58
 948 1213 948 1213 887 1182 c 1,59,60
 944 1151 944 1151 1029 1127.5 c 128,-1,61
 1114 1104 1114 1104 1208 1079 c 0,62,63
 1265 1065 1265 1065 1266 997 c 0,64,65
 1266 974 1266 974 1257 958 c 0,66,67
 1228 913 1228 913 1176 913 c 0,68,69
 1147 913 1147 913 1128 932 c 0,70,71
 1085 969 1085 969 991 1059 c 0,72,73
 930 1120 930 1120 877 1151 c 1,74,75
 877 1077 877 1077 905 975 c 0,76,77
 923 899 923 899 946 825 c 1,78,79
 946 780 946 780 922.5 750.5 c 128,-1,80
 899 721 899 721 866 721 c 256,81,82
 833 721 833 721 806.5 750.5 c 128,-1,83
 780 780 780 780 780 825 c 1,84,85
 794 901 794 901 823 999.5 c 128,-1,86
 852 1098 852 1098 840 1149 c 1,0,1
EndSplineSet
EndChar

StartChar: plus.taml
Encoding: 108 -1 108
Width: 1204
Flags: W
LayerCount: 2
Fore
SplineSet
504 741 m 1,0,-1
 504 956 l 2,1,2
 504 981 504 981 532.5 995.5 c 128,-1,3
 561 1010 561 1010 600 1010 c 256,4,5
 639 1010 639 1010 667.5 997.5 c 128,-1,6
 696 985 696 985 696 956 c 2,7,-1
 696 741 l 1,8,-1
 911 741 l 2,9,10
 944 741 944 741 955.5 708.5 c 128,-1,11
 967 676 967 676 967 645 c 0,12,13
 967 608 967 608 951.5 578.5 c 128,-1,14
 936 549 936 549 911 549 c 2,15,-1
 696 549 l 1,16,-1
 696 334 l 2,17,18
 696 301 696 301 663.5 290 c 128,-1,19
 631 279 631 279 600 279 c 0,20,21
 563 279 563 279 533.5 294 c 128,-1,22
 504 309 504 309 504 334 c 2,23,-1
 504 549 l 1,24,-1
 289 549 l 2,25,26
 264 549 264 549 251 577.5 c 128,-1,27
 238 606 238 606 238 645 c 256,28,29
 238 684 238 684 250 712.5 c 128,-1,30
 262 741 262 741 289 741 c 2,31,-1
 504 741 l 1,0,-1
EndSplineSet
EndChar

StartChar: comma.taml
Encoding: 109 -1 109
Width: 630
Flags: W
LayerCount: 2
Fore
SplineSet
440 96 m 0,0,1
 440 -66 440 -66 326 -184 c 0,2,3
 179 -342 179 -342 68 -342 c 1,4,-1
 68 -266 l 1,5,6
 115 -266 115 -266 217 -178 c 0,7,8
 340 -74 340 -74 340 37 c 0,9,10
 340 70 340 70 307 70 c 0,11,12
 291 70 291 70 250 43 c 128,-1,13
 209 16 209 16 184 16 c 0,14,15
 141 16 141 16 94 71.5 c 128,-1,16
 47 127 47 127 47 186 c 0,17,18
 47 252 47 252 95 303 c 128,-1,19
 143 354 143 354 211 354 c 0,20,21
 311 354 311 354 376.5 271 c 128,-1,22
 442 188 442 188 440 96 c 0,0,1
EndSplineSet
EndChar

StartChar: hyphen.taml
Encoding: 110 -1 110
Width: 1269
Flags: W
LayerCount: 2
Fore
SplineSet
1034 547 m 2,0,-1
 231 547 l 2,1,2
 174 547 174 547 141.5 576.5 c 128,-1,3
 109 606 109 606 109 649 c 0,4,5
 109 688 109 688 139.5 716.5 c 128,-1,6
 170 745 170 745 229 745 c 2,7,-1
 1032 745 l 2,8,9
 1091 745 1091 745 1125 714.5 c 128,-1,10
 1159 684 1159 684 1159 641 c 0,11,12
 1159 547 1159 547 1034 547 c 2,0,-1
EndSplineSet
EndChar

StartChar: period.taml
Encoding: 111 -1 111
Width: 630
Flags: W
LayerCount: 2
Fore
SplineSet
438 176 m 256,0,1
 438 102 438 102 384 51 c 128,-1,2
 330 0 330 0 256 0 c 0,3,4
 188 0 188 0 134 51 c 128,-1,5
 80 102 80 102 80 176 c 256,6,7
 80 250 80 250 131 301 c 128,-1,8
 182 352 182 352 256 352 c 256,9,10
 330 352 330 352 384 301 c 128,-1,11
 438 250 438 250 438 176 c 256,0,1
EndSplineSet
EndChar

StartChar: uni2215
Encoding: 113 8725 113
Width: 745
Flags: W
LayerCount: 2
Fore
SplineSet
745 1759 m 1,0,-1
 61 -270 l 1,1,-1
 -53 -270 l 1,2,-1
 635 1759 l 1,3,-1
 745 1759 l 1,0,-1
EndSplineSet
EndChar

StartChar: zero.taml
Encoding: 114 -1 114
Width: 1529
Flags: W
LayerCount: 2
Fore
SplineSet
1186 645 m 0,0,1
 1186 326 1186 326 1010 154 c 0,2,3
 850 0 850 0 584 0 c 0,4,5
 527 0 527 0 467 8 c 0,6,7
 215 41 215 41 104 209 c 0,8,9
 4 361 4 361 4 643 c 0,10,11
 4 924 4 924 104 1075 c 0,12,13
 215 1243 215 1243 467 1274 c 0,14,15
 498 1278 498 1278 530.5 1278 c 128,-1,16
 563 1278 563 1278 580 1278 c 0,17,18
 869 1278 869 1278 1030 1096 c 0,19,20
 1184 921 1184 921 1186 645 c 0,0,1
842 635 m 0,21,22
 842 866 842 866 760 997 c 0,23,24
 664 1149 664 1149 467 1149 c 0,25,26
 293 1149 293 1149 206 1001.5 c 128,-1,27
 119 854 119 854 119 635 c 0,28,29
 119 426 119 426 209 278.5 c 128,-1,30
 299 131 299 131 467 131 c 0,31,32
 662 131 662 131 762 287 c 0,33,34
 844 418 844 418 842 635 c 0,21,22
EndSplineSet
EndChar

StartChar: one.taml
Encoding: 115 -1 115
Width: 993
Flags: W
LayerCount: 2
Fore
SplineSet
649 1214 m 0,0,1
 616 1153 616 1153 594.5 1069 c 128,-1,2
 573 985 573 985 573 895 c 0,3,4
 573 819 573 819 566 617.5 c 128,-1,5
 559 416 559 416 559 385 c 0,6,7
 559 188 559 188 451 86 c 0,8,9
 361 -2 361 -2 217 -2 c 0,10,11
 158 -2 158 -2 158 35 c 0,12,13
 158 47 158 47 172 70 c 0,14,15
 205 131 205 131 226.5 215 c 128,-1,16
 248 299 248 299 248 389 c 0,17,18
 248 418 248 418 266 809 c 0,19,20
 266 870 266 870 268 936 c 1,21,22
 250 877 250 877 207 805 c 128,-1,23
 164 733 164 733 111 688 c 0,24,25
 82 659 82 659 51 659 c 256,26,27
 20 659 20 659 10 688 c 0,28,29
 -2 739 -2 739 31 768 c 0,30,31
 64 791 64 791 100 815 c 0,32,33
 102 819 102 819 117 829 c 0,34,35
 146 852 146 852 176 913 c 0,36,37
 233 1036 233 1036 256 1083 c 0,38,39
 295 1171 295 1171 340 1202 c 0,40,41
 440 1278 440 1278 602 1278 c 0,42,43
 661 1278 661 1278 662 1241 c 0,44,45
 661 1226 661 1226 649 1214 c 0,0,1
EndSplineSet
EndChar

StartChar: two.taml
Encoding: 116 -1 116
Width: 1361
Flags: W
LayerCount: 2
Fore
SplineSet
23 1034 m 0,0,1
 103 1192 103 1192 194 1240 c 128,-1,2
 285 1288 285 1288 424 1288 c 0,3,4
 713 1288 713 1288 844 1186.5 c 128,-1,5
 975 1085 975 1085 975 883 c 0,6,7
 975 621 975 621 745 506 c 1,8,9
 485 397 485 397 229 289 c 0,10,11
 182 264 182 264 158.5 234.5 c 128,-1,12
 135 205 135 205 135 180 c 0,13,14
 135 149 135 149 164 130 c 128,-1,15
 193 111 193 111 238 111 c 0,16,17
 256 111 256 111 303 124 c 128,-1,18
 350 137 350 137 368.5 142 c 128,-1,19
 387 147 387 147 397 147 c 0,20,21
 405 147 405 147 435 145 c 128,-1,22
 465 143 465 143 496 143 c 0,23,24
 568 143 568 143 604.5 132 c 128,-1,25
 641 121 641 121 707 121 c 0,26,27
 795 121 795 121 838 137 c 1,28,29
 885 166 885 166 921.5 184.5 c 128,-1,30
 958 203 958 203 991 203 c 0,31,32
 1063 203 1063 203 1063 145 c 0,33,34
 1063 102 1063 102 1010.5 75.5 c 128,-1,35
 958 49 958 49 911 27.5 c 128,-1,36
 864 6 864 6 764 6 c 0,37,38
 674 6 674 6 631 17.5 c 128,-1,39
 588 29 588 29 500 29 c 0,40,41
 410 29 410 29 350 20 c 0,42,43
 190 -3 190 -3 160 -2 c 0,44,45
 94 -2 94 -2 55 25 c 0,46,47
 -2 64 -2 64 -2 160 c 0,48,49
 -2 285 -2 285 164 378 c 128,-1,50
 330 471 330 471 489 559 c 1,51,52
 659 688 659 688 659 893 c 0,53,54
 659 1040 659 1040 608 1105.5 c 128,-1,55
 557 1171 557 1171 432 1171 c 2,56,-1
 375 1171 l 2,57,58
 275 1171 275 1171 218.5 1124 c 128,-1,59
 162 1077 162 1077 117 987 c 0,60,61
 99 944 99 944 61 944 c 0,62,63
 16 944 16 944 16 995 c 0,64,65
 17 1009 17 1009 23 1034 c 0,0,1
EndSplineSet
EndChar

StartChar: three.taml
Encoding: 117 -1 117
Width: 1214
Flags: W
LayerCount: 2
Fore
SplineSet
59 1169 m 0,0,1
 73 1200 73 1200 142 1237 c 128,-1,2
 211 1274 211 1274 255 1282 c 128,-1,3
 299 1290 299 1290 333 1292 c 128,-1,4
 367 1294 367 1294 397 1294 c 0,5,6
 594 1294 594 1294 725 1200 c 128,-1,7
 856 1106 856 1106 856 961 c 0,8,9
 856 885 856 885 812 805 c 128,-1,10
 768 725 768 725 674 645 c 1,11,12
 770 573 770 573 817 493.5 c 128,-1,13
 864 414 864 414 864 334 c 0,14,15
 864 193 864 193 728 93.5 c 128,-1,16
 592 -6 592 -6 387 -6 c 0,17,18
 348 -6 348 -6 309 -6 c 1,19,20
 272 2 272 2 256 4 c 0,21,22
 53 41 53 41 0 197 c 0,23,24
 -10 226 -10 226 6.5 252.5 c 128,-1,25
 23 279 23 279 51 279 c 0,26,27
 84 279 84 279 112.5 226.5 c 128,-1,28
 141 174 141 174 184 147.5 c 128,-1,29
 227 121 227 121 299 121 c 0,30,31
 393 121 393 121 479 201 c 128,-1,32
 565 281 565 281 565 389 c 0,33,34
 565 455 565 455 522 520.5 c 128,-1,35
 479 586 479 586 389 645 c 1,36,37
 479 706 479 706 522 776 c 128,-1,38
 565 846 565 846 565 913 c 0,39,40
 565 1015 565 1015 485.5 1087 c 128,-1,41
 406 1159 406 1159 301 1159 c 2,42,-1
 264 1159 l 2,43,44
 233 1159 233 1159 211.5 1150 c 128,-1,45
 190 1141 190 1141 161.5 1103 c 128,-1,46
 133 1065 133 1065 102 1065 c 0,47,48
 51 1065 51 1065 51 1124 c 0,49,50
 51 1146 51 1146 59 1169 c 0,0,1
EndSplineSet
EndChar

StartChar: four.taml
Encoding: 118 -1 118
Width: 1458
Flags: W
LayerCount: 2
Fore
SplineSet
563 463 m 1,0,1
 563 576 563 576 600 915 c 0,2,3
 602 974 602 974 606 1034 c 1,4,5
 532 905 532 905 379 711 c 0,6,7
 217 506 217 506 127 432 c 1,8,9
 170 432 170 432 315.5 446.5 c 128,-1,10
 461 461 461 461 563 463 c 1,0,1
872 350 m 1,11,12
 872 170 872 170 762 74 c 0,13,14
 666 -12 666 -12 532 -12 c 0,15,16
 473 -12 473 -12 473 25 c 0,17,18
 473 37 473 37 487 59 c 0,19,20
 520 120 520 120 541.5 192 c 128,-1,21
 563 264 563 264 563 346 c 1,22,-1
 63 336 l 2,23,24
 4 336 4 336 4 389 c 0,25,26
 4 405 4 405 18 428 c 0,27,28
 206 625 206 625 389 856 c 0,29,30
 522 1028 522 1028 655 1202 c 0,31,32
 692 1247 692 1247 754.5 1262.5 c 128,-1,33
 817 1278 817 1278 918 1278 c 0,34,35
 977 1278 977 1278 977 1241 c 0,36,37
 977 1227 977 1227 963 1204 c 0,38,39
 930 1143 930 1143 909.5 1059 c 128,-1,40
 889 975 889 975 889 885 c 2,41,-1
 874 444 l 1,42,-1
 889 444 l 2,43,44
 936 444 936 444 977 463.5 c 128,-1,45
 1018 483 1018 483 1046.5 497.5 c 128,-1,46
 1075 512 1075 512 1100 512 c 0,47,48
 1153 512 1153 512 1153 469 c 0,49,50
 1153 436 1153 436 1106 409.5 c 128,-1,51
 1059 383 1059 383 1014 366.5 c 128,-1,52
 969 350 969 350 918 350 c 2,53,-1
 872 350 l 1,11,12
EndSplineSet
EndChar

StartChar: five.taml
Encoding: 119 -1 119
Width: 1384
Flags: W
LayerCount: 2
Fore
SplineSet
526 1227 m 1,0,1
 579 1227 579 1227 637.5 1223 c 128,-1,2
 696 1219 696 1219 698 1219 c 0,3,4
 759 1219 759 1219 799.5 1228 c 128,-1,5
 840 1237 840 1237 897 1268 c 0,6,7
 936 1286 936 1286 969 1286 c 0,8,9
 1041 1286 1041 1286 1040 1229 c 0,10,11
 1040 1186 1040 1186 983 1157 c 0,12,13
 858 1100 858 1100 756 1100 c 0,14,15
 695 1100 695 1100 628 1104 c 128,-1,16
 561 1108 561 1108 530 1108 c 2,17,-1
 379 1104 l 1,18,-1
 242 889 l 1,19,20
 342 905 342 905 432 905 c 0,21,22
 694 905 694 905 856 788 c 0,23,24
 1032 659 1032 659 1032 426 c 0,25,26
 1032 168 1032 168 827 66 c 0,27,28
 682 -4 682 -4 408 -4 c 0,29,30
 275 -4 275 -4 202 15.5 c 128,-1,31
 129 35 129 35 55 96 c 0,32,33
 37 112 37 112 37 135 c 256,34,35
 37 158 37 158 56.5 174 c 128,-1,36
 76 190 76 190 98 190 c 0,37,38
 116 190 116 190 127 180 c 0,39,40
 188 133 188 133 239.5 121 c 128,-1,41
 291 109 291 109 406 109 c 0,42,43
 523 109 523 109 610.5 197 c 128,-1,44
 698 285 698 285 698 428 c 0,45,46
 698 631 698 631 528 719 c 0,47,48
 409 780 409 780 215 780 c 0,49,50
 127 780 127 780 127 825 c 0,51,52
 127 850 127 850 152 883 c 1,53,-1
 274 1178 l 1,54,-1
 326 1210 l 2,55,56
 355 1224 355 1224 397 1225 c 0,57,58
 420 1225 420 1225 465 1221 c 128,-1,59
 510 1217 510 1217 526 1227 c 1,0,1
EndSplineSet
EndChar

StartChar: six.taml
Encoding: 120 -1 120
Width: 1071
Flags: W
LayerCount: 2
Fore
SplineSet
690 1176 m 0,0,1
 450 1176 450 1176 311 1044 c 0,2,3
 188 927 188 927 188 762 c 1,4,5
 278 815 278 815 422 815 c 0,6,7
 604 815 604 815 727 735 c 0,8,9
 870 645 870 645 870 483 c 0,10,11
 870 260 870 260 797 150 c 0,12,13
 703 7 703 7 473 6 c 0,14,15
 217 6 217 6 123 139 c 0,16,17
 43 250 43 250 43 512 c 0,18,19
 43 879 43 879 182 1069 c 0,20,21
 344 1288 344 1288 696 1288 c 0,22,23
 776 1288 776 1288 776 1231 c 256,24,25
 776 1174 776 1174 690 1176 c 0,0,1
557 418 m 0,26,27
 557 543 557 543 503 600 c 128,-1,28
 449 657 449 657 354 657 c 0,29,30
 186 657 186 657 186 432 c 0,31,32
 186 295 186 295 231 205 c 128,-1,33
 276 115 276 115 350 115 c 0,34,35
 473 115 473 115 514 181.5 c 128,-1,36
 555 248 555 248 557 418 c 0,26,27
EndSplineSet
EndChar

StartChar: seven.taml
Encoding: 121 -1 121
Width: 1304
Flags: W
LayerCount: 2
Fore
SplineSet
80 1161 m 0,0,1
 -2 1192 -2 1192 16 1239 c 0,2,3
 30 1278 30 1278 68 1278 c 0,4,5
 86 1278 86 1278 123 1262.5 c 128,-1,6
 160 1247 160 1247 174 1245 c 0,7,8
 176 1245 176 1245 247.5 1237 c 128,-1,9
 319 1229 319 1229 379 1229 c 0,10,11
 459 1229 459 1229 535.5 1247.5 c 128,-1,12
 612 1266 612 1266 650 1268 c 128,-1,13
 688 1270 688 1270 752.5 1277 c 128,-1,14
 817 1284 817 1284 821 1284 c 0,15,16
 882 1284 882 1284 922.5 1262.5 c 128,-1,17
 963 1241 963 1241 963 1231 c 0,18,19
 963 1223 963 1223 948 1204 c 0,20,21
 915 1157 915 1157 889.5 1095.5 c 128,-1,22
 864 1034 864 1034 854 954 c 2,23,-1
 760 285 l 2,24,25
 742 152 742 152 655 78 c 0,26,27
 581 17 581 17 485 16 c 0,28,29
 460 16 460 16 434 20.5 c 128,-1,30
 408 25 408 25 408 49 c 0,31,32
 408 65 408 65 422 80 c 0,33,34
 455 127 455 127 480.5 189.5 c 128,-1,35
 506 252 506 252 516 326 c 2,36,-1
 610 995 l 2,37,38
 618 1063 618 1063 625.5 1092.5 c 128,-1,39
 633 1122 633 1122 651 1155 c 1,40,41
 565 1139 565 1139 486.5 1126.5 c 128,-1,42
 408 1114 408 1114 313 1114 c 0,43,44
 270 1114 270 1114 192.5 1129.5 c 128,-1,45
 115 1145 115 1145 80 1161 c 0,0,1
EndSplineSet
EndChar

StartChar: eight.taml
Encoding: 122 -1 122
Width: 1142
Flags: W
LayerCount: 2
Fore
SplineSet
512 346 m 0,0,1
 512 475 512 475 464 552 c 128,-1,2
 416 629 416 629 307 629 c 0,3,4
 213 629 213 629 165 548 c 128,-1,5
 117 467 117 467 117 348 c 0,6,7
 117 244 117 244 168 181.5 c 128,-1,8
 219 119 219 119 313 119 c 0,9,10
 422 119 422 119 467 180.5 c 128,-1,11
 512 242 512 242 512 346 c 0,0,1
307 705 m 1,12,13
 389 719 389 719 437 784.5 c 128,-1,14
 485 850 485 850 485 940 c 0,15,16
 485 1059 485 1059 453 1110 c 0,17,18
 410 1171 410 1171 299 1171 c 0,19,20
 213 1171 213 1171 172 1106.5 c 128,-1,21
 131 1042 131 1042 131 938 c 0,22,23
 131 838 131 838 178 769.5 c 128,-1,24
 225 701 225 701 307 705 c 1,12,13
526 670 m 1,25,26
 651 637 651 637 725 571 c 0,27,28
 819 487 819 487 819 356 c 0,29,30
 819 170 819 170 694 80 c 0,31,32
 585 0 585 0 416 0 c 0,33,34
 363 0 363 0 311 8 c 0,35,36
 166 31 166 31 86 119 c 128,-1,37
 6 207 6 207 6 354 c 0,38,39
 6 465 6 465 63 547 c 0,40,41
 110 619 110 619 199 662 c 1,42,43
 125 705 125 705 78 772 c 0,44,45
 21 854 21 854 20 942 c 0,46,47
 20 1081 20 1081 87 1171.5 c 128,-1,48
 154 1262 154 1262 301 1284 c 0,49,50
 360 1292 360 1292 414 1292 c 0,51,52
 602 1292 602 1292 702 1188 c 0,53,54
 792 1094 792 1094 793 942 c 0,55,56
 793 840 793 840 709.5 760 c 128,-1,57
 626 680 626 680 526 670 c 1,25,26
EndSplineSet
EndChar

StartChar: nine.taml
Encoding: 123 -1 123
Width: 1247
Flags: W
LayerCount: 2
Fore
SplineSet
903 807 m 0,0,1
 903 430 903 430 758 233 c 0,2,3
 584 -5 584 -5 180 -4 c 0,4,5
 104 -4 104 -4 104 53 c 0,6,7
 104 108 104 108 186 109 c 0,8,9
 460 109 460 109 618 256 c 0,10,11
 751 385 751 385 752 557 c 1,12,13
 693 491 693 491 612.5 458.5 c 128,-1,14
 532 426 532 426 446 426 c 0,15,16
 274 426 274 426 140 535.5 c 128,-1,17
 6 645 6 645 6 803 c 0,18,19
 6 1026 6 1026 80 1137 c 0,20,21
 174 1280 174 1280 403 1280 c 0,22,23
 671 1280 671 1280 787 1164.5 c 128,-1,24
 903 1049 903 1049 903 807 c 0,0,1
760 883 m 0,25,26
 760 1008 760 1008 684 1085.5 c 128,-1,27
 608 1163 608 1163 526 1163 c 0,28,29
 403 1163 403 1163 356 1086.5 c 128,-1,30
 309 1010 309 1010 309 850 c 0,31,32
 309 725 309 725 374.5 651.5 c 128,-1,33
 440 578 440 578 535 578 c 0,34,35
 654 578 654 578 711 672 c 0,36,37
 758 752 758 752 760 883 c 0,25,26
EndSplineSet
EndChar

StartChar: colon.taml
Encoding: 124 -1 124
Width: 673
Flags: W
LayerCount: 2
Fore
SplineSet
459 950 m 256,0,1
 459 876 459 876 404.5 825 c 128,-1,2
 350 774 350 774 276 774 c 0,3,4
 208 774 208 774 154 825.5 c 128,-1,5
 100 877 100 877 100 950 c 256,6,7
 100 1024 100 1024 151.5 1075 c 128,-1,8
 203 1126 203 1126 276 1126 c 256,9,10
 350 1126 350 1126 404.5 1075 c 128,-1,11
 459 1024 459 1024 459 950 c 256,0,1
459 147 m 256,12,13
 459 73 459 73 404.5 22 c 128,-1,14
 350 -29 350 -29 276 -29 c 0,15,16
 208 -29 208 -29 154 22.5 c 128,-1,17
 100 74 100 74 100 147 c 256,18,19
 100 221 100 221 151.5 272.5 c 128,-1,20
 203 324 203 324 276 324 c 256,21,22
 350 324 350 324 404.5 272.5 c 128,-1,23
 459 221 459 221 459 147 c 256,12,13
EndSplineSet
EndChar

StartChar: semicolon.taml
Encoding: 125 -1 125
Width: 673
Flags: W
LayerCount: 2
Fore
SplineSet
440 950 m 256,0,1
 440 876 440 876 386 825 c 128,-1,2
 332 774 332 774 258 774 c 0,3,4
 190 774 190 774 136 825.5 c 128,-1,5
 82 877 82 877 82 950 c 256,6,7
 82 1024 82 1024 133 1075 c 128,-1,8
 184 1126 184 1126 258 1126 c 256,9,10
 332 1126 332 1126 386 1075 c 128,-1,11
 440 1024 440 1024 440 950 c 256,0,1
440 96 m 0,12,13
 440 -66 440 -66 326 -184 c 0,14,15
 179 -342 179 -342 68 -342 c 1,16,-1
 68 -295 l 1,17,18
 113 -295 113 -295 217 -193 c 0,19,20
 340 -74 340 -74 340 37 c 0,21,22
 340 70 340 70 307 70 c 0,23,24
 291 70 291 70 250 43 c 128,-1,25
 209 16 209 16 184 16 c 0,26,27
 141 16 141 16 94 71.5 c 128,-1,28
 47 127 47 127 47 186 c 0,29,30
 47 252 47 252 95 303 c 128,-1,31
 143 354 143 354 211 354 c 0,32,33
 311 354 311 354 376.5 271 c 128,-1,34
 442 188 442 188 440 96 c 0,12,13
EndSplineSet
EndChar

StartChar: less.taml
Encoding: 126 -1 126
Width: 1509
Flags: W
LayerCount: 2
Fore
SplineSet
1223 137 m 1,0,-1
 1223 -16 l 1,1,-1
 66 510 l 1,2,-1
 66 649 l 1,3,-1
 1223 1174 l 1,4,-1
 1223 1020 l 1,5,-1
 254 580 l 1,6,-1
 1223 137 l 1,0,-1
EndSplineSet
EndChar

StartChar: equal.taml
Encoding: 127 -1 127
Width: 1615
Flags: W
LayerCount: 2
Fore
SplineSet
1386 1028 m 1,0,-1
 1386 881 l 1,1,-1
 229 881 l 1,2,-1
 229 1028 l 1,3,-1
 1386 1028 l 1,0,-1
1386 569 m 1,4,-1
 1386 422 l 1,5,-1
 229 422 l 1,6,-1
 229 569 l 1,7,-1
 1386 569 l 1,4,-1
EndSplineSet
EndChar

StartChar: greater.taml
Encoding: 128 -1 128
Width: 1509
Flags: W
LayerCount: 2
Fore
SplineSet
66 137 m 1,0,-1
 1034 578 l 1,1,-1
 66 1018 l 1,2,-1
 66 1171 l 1,3,-1
 1223 647 l 1,4,-1
 1223 508 l 1,5,-1
 66 -18 l 1,6,-1
 66 137 l 1,0,-1
EndSplineSet
EndChar

StartChar: question.taml
Encoding: 129 -1 129
Width: 1140
Flags: W
LayerCount: 2
Fore
SplineSet
496 119 m 1,0,-1
 457 119 l 1,1,2
 457 209 457 209 485 317 c 0,3,4
 495 362 495 362 524 438 c 2,5,-1
 590 586 l 2,6,7
 619 658 619 658 645.5 760 c 128,-1,8
 672 862 672 862 672 922 c 0,9,10
 672 1039 672 1039 614 1118 c 0,11,12
 546 1212 546 1212 422 1212 c 0,13,14
 348 1212 348 1212 279.5 1171 c 128,-1,15
 211 1130 211 1130 211 1073 c 0,16,17
 211 1048 211 1048 236 1018 c 0,18,19
 295 944 295 944 295 905 c 0,20,21
 295 868 295 868 275.5 841.5 c 128,-1,22
 256 815 256 815 209 815 c 0,23,24
 150 815 150 815 123 855 c 128,-1,25
 96 895 96 895 96 956 c 0,26,27
 96 1114 96 1114 225 1208 c 0,28,29
 329 1284 329 1284 469 1284 c 0,30,31
 565 1284 565 1284 659.5 1246 c 128,-1,32
 754 1208 754 1208 801 1151 c 128,-1,33
 848 1094 848 1094 864.5 1044.5 c 128,-1,34
 881 995 881 995 881 907 c 0,35,36
 881 827 881 827 821 717 c 0,37,38
 776 629 776 629 711 553 c 0,39,40
 611 438 611 438 571 358 c 0,41,42
 525 262 525 262 496 119 c 1,0,-1
485 -270 m 256,43,44
 438 -270 438 -270 408 -248 c 0,45,46
 365 -217 365 -217 365 -156 c 0,47,48
 365 -105 365 -105 400.5 -69 c 128,-1,49
 436 -33 436 -33 487 -33 c 0,50,51
 534 -33 534 -33 571 -69.5 c 128,-1,52
 608 -106 608 -106 608 -154 c 0,53,54
 608 -211 608 -211 570 -240.5 c 128,-1,55
 532 -270 532 -270 485 -270 c 256,43,44
EndSplineSet
EndChar

StartChar: uni0952
Encoding: 133 2386 133
Width: 26
Flags: W
LayerCount: 2
Fore
SplineSet
-631 -311 m 1,0,-1
 -1581 -311 l 1,1,-1
 -1683 -150 l 1,2,-1
 -733 -150 l 1,3,-1
 -631 -311 l 1,0,-1
EndSplineSet
EndChar

StartChar: u0B83
Encoding: 136 2947 136
Width: 1751
Flags: W
LayerCount: 2
Fore
SplineSet
1044 1061 m 256,0,1
 1044 967 1044 967 978.5 901.5 c 128,-1,2
 913 836 913 836 817 836 c 0,3,4
 727 836 727 836 658.5 901.5 c 128,-1,5
 590 967 590 967 590 1061 c 256,6,7
 590 1155 590 1155 656.5 1221.5 c 128,-1,8
 723 1288 723 1288 817 1288 c 256,9,10
 911 1288 911 1288 977.5 1221.5 c 128,-1,11
 1044 1155 1044 1155 1044 1061 c 256,0,1
1405 227 m 256,12,13
 1405 133 1405 133 1339.5 67.5 c 128,-1,14
 1274 2 1274 2 1178 2 c 0,15,16
 1088 2 1088 2 1019 67.5 c 128,-1,17
 950 133 950 133 950 227 c 256,18,19
 950 321 950 321 1016.5 388 c 128,-1,20
 1083 455 1083 455 1178 455 c 256,21,22
 1272 455 1272 455 1338.5 388 c 128,-1,23
 1405 321 1405 321 1405 227 c 256,12,13
631 227 m 256,24,25
 631 133 631 133 565.5 67.5 c 128,-1,26
 500 2 500 2 403 2 c 0,27,28
 313 2 313 2 244.5 67.5 c 128,-1,29
 176 133 176 133 176 227 c 256,30,31
 176 321 176 321 242.5 388 c 128,-1,32
 309 455 309 455 403 455 c 256,33,34
 497 455 497 455 564 388 c 128,-1,35
 631 321 631 321 631 227 c 256,24,25
EndSplineSet
EndChar

StartChar: u0B85
Encoding: 137 2949 137
Width: 2603
Flags: HW
AnchorPoint: "V" 1143.5 1305 basechar 0
AnchorPoint: "N" 1143.5 -123.874 basechar 0
LayerCount: 2
Fore
SplineSet
2259 1257 m 1,0,1
 2226 1196 2226 1196 2204.5 1109 c 128,-1,2
 2183 1022 2183 1022 2183 932 c 2,3,-1
 2183 127 l 2,4,5
 2183 -68 2183 -68 2075 -170 c 0,6,7
 1981 -260 1981 -260 1841 -260 c 0,8,9
 1782 -260 1782 -260 1782 -223 c 0,10,11
 1782 -209 1782 -209 1796 -186 c 0,12,13
 1827 -127 1827 -127 1849.5 -40 c 128,-1,14
 1872 47 1872 47 1872 135 c 2,15,-1
 1872 410 l 1,16,17
 1786 324 1786 324 1577 324 c 1,18,19
 1489 125 1489 125 1260 -6 c 0,20,21
 1012 -149 1012 -149 694 -150 c 0,22,23
 411 -150 411 -150 231 -31 c 0,24,25
 8 116 8 116 8 297 c 0,26,27
 8 365 8 365 55 400.5 c 128,-1,28
 102 436 102 436 172 436 c 2,29,-1
 1280 436 l 1,30,31
 1298 487 1298 487 1309.5 596 c 128,-1,32
 1321 705 1321 705 1321 752 c 0,33,34
 1321 967 1321 967 1233 1077 c 0,35,36
 1159 1171 1159 1171 1034 1171 c 0,37,38
 958 1171 958 1171 905 1141 c 1,39,40
 991 1125 991 1125 1042 1073 c 0,41,42
 1114 1001 1114 1001 1114 874 c 0,43,44
 1114 813 1114 813 1088.5 748.5 c 128,-1,45
 1063 684 1063 684 1008 645 c 0,46,47
 940 594 940 594 809 594 c 0,48,49
 705 594 705 594 643.5 667.5 c 128,-1,50
 582 741 582 741 582 846 c 0,51,52
 582 1065 582 1065 729 1182 c 0,53,54
 862 1286 862 1286 1092 1286 c 0,55,56
 1360 1286 1360 1286 1501 1127.5 c 128,-1,57
 1642 969 1642 969 1642 680 c 0,58,59
 1642 629 1642 629 1637 550 c 128,-1,60
 1632 471 1632 471 1622 434 c 1,61,62
 1702 434 1702 434 1771.5 456.5 c 128,-1,63
 1841 479 1841 479 1878 518 c 1,64,-1
 1878 932 l 2,65,66
 1878 1127 1878 1127 1987 1231 c 0,67,68
 2083 1325 2083 1325 2220 1325 c 0,69,70
 2279 1325 2279 1325 2279 1288 c 0,71,72
 2279 1273 2279 1273 2259 1257 c 1,0,1
907 870 m 0,73,74
 907 936 907 936 878.5 994.5 c 128,-1,75
 850 1053 850 1053 797 1053 c 1,76,77
 752 1043 752 1043 719 976 c 128,-1,78
 686 909 686 909 686 848 c 0,79,80
 686 791 686 791 715.5 746.5 c 128,-1,81
 745 702 745 702 797 702 c 256,82,83
 848 702 848 702 877.5 749 c 128,-1,84
 907 796 907 796 907 870 c 0,73,74
1245 319 m 1,85,-1
 291 319 l 2,86,87
 258 319 258 319 234.5 292.5 c 128,-1,88
 211 266 211 266 211 229 c 0,89,90
 211 133 211 133 313 57 c 0,91,92
 442 -37 442 -37 676 -37 c 0,93,94
 877 -37 877 -37 1036 82 c 0,95,96
 1161 176 1161 176 1245 319 c 1,85,-1
EndSplineSet
EndChar

StartChar: u0B86
Encoding: 138 2950 138
Width: 3012
Flags: HW
AnchorPoint: "V" 1343.5 1305 basechar 0
AnchorPoint: "N" 1343.5 -522.998 basechar 0
LayerCount: 2
Fore
SplineSet
2669 180 m 0,0,1
 2669 -168 2669 -168 2406 -365 c 0,2,3
 2168 -541 2168 -541 1821 -541 c 0,4,5
 1532 -541 1532 -541 1352 -481 c 0,6,7
 1137 -409 1137 -409 1137 -266 c 0,8,9
 1137 -190 1137 -190 1202.5 -149.5 c 128,-1,10
 1268 -109 1268 -109 1364 -109 c 0,11,12
 1423 -109 1423 -109 1481.5 -117 c 128,-1,13
 1540 -125 1540 -125 1591 -147 c 0,14,15
 1605 -155 1605 -155 1606 -170 c 0,16,17
 1606 -193 1606 -193 1582.5 -200 c 128,-1,18
 1559 -207 1559 -207 1542 -203 c 256,19,20
 1526 -199 1526 -199 1495 -195 c 0,21,22
 1423 -181 1423 -181 1364 -180 c 0,23,24
 1303 -180 1303 -180 1255.5 -201.5 c 128,-1,25
 1208 -223 1208 -223 1208 -260 c 0,26,27
 1208 -350 1208 -350 1366 -395 c 0,28,29
 1491 -432 1491 -432 1667 -432 c 0,30,31
 2044 -432 2044 -432 2247 -258 c 0,32,33
 2427 -104 2427 -104 2427 139 c 0,34,35
 2427 227 2427 227 2382 291.5 c 128,-1,36
 2337 356 2337 356 2277 356 c 0,37,38
 2234 356 2234 356 2187 313 c 1,39,-1
 2187 123 l 2,40,41
 2187 -72 2187 -72 2079 -174 c 0,42,43
 1985 -264 1985 -264 1845 -264 c 0,44,45
 1786 -264 1786 -264 1786 -227 c 0,46,47
 1786 -213 1786 -213 1800 -190 c 0,48,49
 1831 -131 1831 -131 1853.5 -44 c 128,-1,50
 1876 43 1876 43 1876 131 c 2,51,-1
 1876 406 l 1,52,53
 1790 320 1790 320 1581 319 c 1,54,55
 1493 120 1493 120 1264 -10 c 0,56,57
 1016 -153 1016 -153 698 -154 c 0,58,59
 415 -154 415 -154 236 -35 c 0,60,61
 13 112 13 112 12 293 c 0,62,63
 12 361 12 361 59 396.5 c 128,-1,64
 106 432 106 432 176 432 c 2,65,-1
 1284 432 l 1,66,67
 1302 483 1302 483 1313.5 591.5 c 128,-1,68
 1325 700 1325 700 1325 748 c 0,69,70
 1325 963 1325 963 1237 1073 c 0,71,72
 1163 1167 1163 1167 1038 1167 c 0,73,74
 962 1167 962 1167 909 1137 c 1,75,76
 995 1121 995 1121 1047 1069 c 0,77,78
 1119 997 1119 997 1118 870 c 0,79,80
 1118 809 1118 809 1092.5 744.5 c 128,-1,81
 1067 680 1067 680 1012 641 c 0,82,83
 944 590 944 590 813 590 c 0,84,85
 709 590 709 590 647.5 663.5 c 128,-1,86
 586 737 586 737 586 842 c 0,87,88
 586 1061 586 1061 733 1178 c 0,89,90
 866 1282 866 1282 1096 1282 c 0,91,92
 1364 1282 1364 1282 1505.5 1123.5 c 128,-1,93
 1647 965 1647 965 1647 676 c 0,94,95
 1647 625 1647 625 1641.5 546 c 128,-1,96
 1636 467 1636 467 1626 430 c 1,97,98
 1706 430 1706 430 1775.5 452.5 c 128,-1,99
 1845 475 1845 475 1882 514 c 1,100,-1
 1882 928 l 2,101,102
 1882 1123 1882 1123 1991 1227 c 0,103,104
 2087 1321 2087 1321 2224 1321 c 0,105,106
 2283 1321 2283 1321 2284 1284 c 0,107,108
 2284 1270 2284 1270 2269 1247 c 0,109,110
 2236 1186 2236 1186 2214.5 1099 c 128,-1,111
 2193 1012 2193 1012 2193 922 c 2,112,-1
 2193 424 l 1,113,114
 2269 500 2269 500 2388 500 c 0,115,116
 2505 500 2505 500 2585 424 c 0,117,118
 2675 336 2675 336 2669 180 c 0,0,1
907 870 m 0,119,120
 907 936 907 936 878.5 994.5 c 128,-1,121
 850 1053 850 1053 797 1053 c 1,122,123
 752 1043 752 1043 719 976 c 128,-1,124
 686 909 686 909 686 848 c 0,125,126
 686 791 686 791 715.5 746.5 c 128,-1,127
 745 702 745 702 797 702 c 256,128,129
 848 702 848 702 877.5 749 c 128,-1,130
 907 796 907 796 907 870 c 0,119,120
1245 319 m 1,131,-1
 291 319 l 2,132,133
 258 319 258 319 234.5 292.5 c 128,-1,134
 211 266 211 266 211 229 c 0,135,136
 211 133 211 133 313 57 c 0,137,138
 442 -37 442 -37 676 -37 c 0,139,140
 877 -37 877 -37 1036 82 c 0,141,142
 1161 176 1161 176 1245 319 c 1,131,-1
EndSplineSet
EndChar

StartChar: u0B87
Encoding: 139 2951 139
Width: 2166
Flags: HW
AnchorPoint: "V" 925.5 1816.46 basechar 0
AnchorPoint: "N" 925.5 -446 basechar 0
LayerCount: 2
Fore
SplineSet
1837 1077 m 0,0,1
 1837 989 1837 989 1822.5 877.5 c 128,-1,2
 1808 766 1808 766 1780 666 c 1,3,4
 1780 623 1780 623 1801.5 583 c 128,-1,5
 1823 543 1823 543 1823 516 c 0,6,7
 1823 487 1823 487 1801.5 465.5 c 128,-1,8
 1780 444 1780 444 1751 444 c 0,9,10
 1712 444 1712 444 1690.5 485 c 128,-1,11
 1669 526 1669 526 1673 569 c 0,12,13
 1696 684 1696 684 1696 788 c 0,14,15
 1696 1089 1696 1089 1516 1290 c 0,16,17
 1321 1505 1321 1505 1004 1505 c 0,18,19
 613 1505 613 1505 389 1239 c 0,20,21
 188 999 188 999 188 647 c 0,22,23
 188 532 188 532 212 435 c 128,-1,24
 236 338 236 338 287 242 c 1,25,26
 432 318 432 318 633 350.5 c 128,-1,27
 834 383 834 383 1077 383 c 1,28,29
 1122 555 1122 555 1122 721 c 256,30,31
 1122 887 1122 887 1061 995 c 0,32,33
 989 1118 989 1118 862 1118 c 0,34,35
 786 1118 786 1118 733 1087 c 1,36,37
 815 1071 815 1071 862 1020 c 0,38,39
 928 948 928 948 928 821 c 0,40,41
 928 760 928 760 899 697.5 c 128,-1,42
 870 635 870 635 805.5 588 c 128,-1,43
 741 541 741 541 610 541 c 0,44,45
 506 541 506 541 449.5 613.5 c 128,-1,46
 393 686 393 686 393 795 c 0,47,48
 393 1006 393 1006 532 1128 c 0,49,50
 661 1239 661 1239 862 1239 c 0,51,52
 1138 1239 1138 1239 1278 1116 c 0,53,54
 1438 977 1438 977 1438 668 c 0,55,56
 1438 500 1438 500 1376 319 c 1,57,58
 1505 266 1505 266 1575 176 c 128,-1,59
 1645 86 1645 86 1645 -45 c 0,60,61
 1645 -227 1645 -227 1507.5 -336.5 c 128,-1,62
 1370 -446 1370 -446 1094 -446 c 0,63,64
 1012 -446 1012 -446 921.5 -423.5 c 128,-1,65
 831 -401 831 -401 750 -362 c 1,66,67
 553 -448 553 -448 338 -449 c 0,68,69
 178 -449 178 -449 94 -373 c 128,-1,70
 10 -297 10 -297 10 -166 c 0,71,72
 10 37 10 37 193 180 c 1,73,74
 125 317 125 317 89 477 c 128,-1,75
 53 637 53 637 53 739 c 0,76,77
 53 958 53 958 106 1143 c 0,78,79
 188 1430 188 1430 383 1602 c 0,80,81
 631 1821 631 1821 1040 1821 c 0,82,83
 1372 1821 1372 1821 1597 1626 c 0,84,85
 1841 1417 1841 1417 1837 1077 c 0,0,1
723 821 m 0,86,87
 723 889 723 889 705 936 c 0,88,89
 676 1002 676 1002 625 1001 c 1,90,91
 578 991 578 991 541 924.5 c 128,-1,92
 504 858 504 858 504 797 c 256,93,94
 504 736 504 736 529.5 694.5 c 128,-1,95
 555 653 555 653 606 653 c 256,96,97
 657 653 657 653 691 701 c 128,-1,98
 725 749 725 749 723 821 c 0,86,87
1446 -90 m 0,99,100
 1446 47 1446 47 1309 158 c 1,101,102
 1233 15 1233 15 1124.5 -102 c 128,-1,103
 1016 -219 1016 -219 883 -299 c 1,104,105
 992 -330 992 -330 1108 -330 c 0,106,107
 1276 -330 1276 -330 1362 -261 c 128,-1,108
 1448 -192 1448 -192 1446 -90 c 0,99,100
1051 270 m 1,109,110
 1022 278 1022 278 971 280.5 c 128,-1,111
 920 283 920 283 911 283 c 0,112,113
 778 283 778 283 632.5 242 c 128,-1,114
 487 201 487 201 373 119 c 1,115,116
 439 17 439 17 547 -80 c 0,117,118
 631 -156 631 -156 731 -217 c 1,119,120
 840 -131 840 -131 922 0 c 0,121,122
 996 118 996 118 1051 270 c 1,109,110
618 -293 m 1,123,124
 514 -225 514 -225 423 -135 c 128,-1,125
 332 -45 332 -45 281 41 c 1,126,127
 242 -4 242 -4 220.5 -55 c 128,-1,128
 199 -106 199 -106 199 -166 c 0,129,130
 199 -242 199 -242 243 -296 c 128,-1,131
 287 -350 287 -350 367 -350 c 0,132,133
 499 -350 499 -350 618 -293 c 1,123,124
EndSplineSet
EndChar

StartChar: u0B88
Encoding: 140 2952 140
Width: 1796
Flags: HW
AnchorPoint: "V" 732 1305 basechar 0
AnchorPoint: "N" 732 -4 basechar 0
LayerCount: 2
Fore
SplineSet
1452 618 m 256,0,1
 1452 561 1452 561 1411 520 c 128,-1,2
 1370 479 1370 479 1313 479 c 256,3,4
 1256 479 1256 479 1215 520 c 128,-1,5
 1174 561 1174 561 1174 618 c 256,6,7
 1174 675 1174 675 1214.5 716.5 c 128,-1,8
 1255 758 1255 758 1313 758 c 256,9,10
 1370 758 1370 758 1411 716.5 c 128,-1,11
 1452 675 1452 675 1452 618 c 256,0,1
1178 1174 m 0,12,13
 1092 1137 1092 1137 1054 1045.5 c 128,-1,14
 1016 954 1016 954 1006 807 c 0,15,16
 1006 764 1006 764 998.5 597 c 128,-1,17
 991 430 991 430 991 383 c 0,18,19
 991 186 991 186 883 84 c 0,20,21
 793 -4 793 -4 649 -4 c 0,22,23
 590 -4 590 -4 590 33 c 0,24,25
 590 45 590 45 604 68 c 0,26,27
 637 129 637 129 658.5 213 c 128,-1,28
 680 297 680 297 680 387 c 0,29,30
 680 469 680 469 687 633 c 128,-1,31
 694 797 694 797 694 807 c 0,32,33
 694 981 694 981 791 1141 c 1,34,35
 744 1151 744 1151 679 1159 c 128,-1,36
 614 1167 614 1167 539 1167 c 0,37,38
 379 1167 379 1167 302 1084 c 128,-1,39
 225 1001 225 1001 225 811 c 0,40,41
 225 508 225 508 205.5 338 c 128,-1,42
 186 168 186 168 115 37 c 0,43,44
 90 -8 90 -8 51 -8 c 256,45,46
 12 -8 12 -8 12 35 c 0,47,48
 12 58 12 58 27 80 c 0,49,50
 80 182 80 182 96.5 329.5 c 128,-1,51
 113 477 113 477 113 707 c 2,52,-1
 113 868 l 2,53,54
 113 1042 113 1042 186 1139 c 0,55,56
 295 1282 295 1282 547 1282 c 0,57,58
 662 1282 662 1282 771.5 1262.5 c 128,-1,59
 881 1243 881 1243 1004 1225 c 0,60,61
 1049 1225 1049 1225 1082.5 1234 c 128,-1,62
 1116 1243 1116 1243 1161 1272 c 0,63,64
 1184 1286 1184 1286 1206 1286 c 0,65,66
 1245 1286 1245 1286 1245 1247 c 0,67,68
 1245 1224 1245 1224 1230 1205 c 128,-1,69
 1215 1186 1215 1186 1178 1174 c 0,12,13
596 616 m 256,70,71
 596 559 596 559 555 518 c 128,-1,72
 514 477 514 477 457 477 c 256,73,74
 400 477 400 477 358.5 518 c 128,-1,75
 317 559 317 559 317 616 c 256,76,77
 317 673 317 673 358 714.5 c 128,-1,78
 399 756 399 756 457 756 c 256,79,80
 514 756 514 756 555 714.5 c 128,-1,81
 596 673 596 673 596 616 c 256,70,71
EndSplineSet
EndChar

StartChar: u0B89
Encoding: 141 2953 141
Width: 2766
Flags: HW
AnchorPoint: "V" 1245 1305 basechar 0
AnchorPoint: "N" 1245 23.2137 basechar 0
LayerCount: 2
Fore
SplineSet
2423 68 m 0,0,1
 2355 37 2355 37 2267 18.5 c 128,-1,2
 2179 0 2179 0 2068 0 c 0,3,4
 1994 0 1994 0 1662.5 14.5 c 128,-1,5
 1331 29 1331 29 1149 29 c 0,6,7
 983 29 983 29 717 16.5 c 128,-1,8
 451 4 451 4 174 -6 c 0,9,10
 108 -6 108 -6 70 20 c 0,11,12
 13 59 13 59 12 156 c 0,13,14
 12 279 12 279 266 307 c 1,15,16
 446 315 446 315 629 324 c 1,17,18
 834 355 834 355 922 500 c 0,19,20
 990 611 990 611 989 793 c 0,21,22
 989 969 989 969 902 1067 c 128,-1,23
 815 1165 815 1165 668 1165 c 0,24,25
 539 1165 539 1165 424 1122 c 128,-1,26
 309 1079 309 1079 264 993 c 1,27,28
 321 1040 321 1040 412 1040 c 256,29,30
 502 1040 502 1040 570.5 974.5 c 128,-1,31
 639 909 639 909 639 795 c 0,32,33
 639 621 639 621 582 535 c 0,34,35
 514 433 514 433 346 432 c 0,36,37
 223 432 223 432 157.5 529.5 c 128,-1,38
 92 627 92 627 92 803 c 0,39,40
 92 993 92 993 231 1126 c 0,41,42
 389 1273 389 1273 657 1274 c 0,43,44
 997 1274 997 1274 1165 1112 c 0,45,46
 1302 981 1302 981 1303 770 c 0,47,48
 1303 604 1303 604 1257.5 496.5 c 128,-1,49
 1212 389 1212 389 1094 315 c 0,50,51
 899 192 899 192 459 193 c 0,52,53
 314 193 314 193 313 139 c 0,54,55
 313 116 313 116 336 106 c 1,56,57
 389 106 389 106 690 120.5 c 128,-1,58
 991 135 991 135 1143 135 c 256,59,60
 1295 135 1295 135 1536.5 126 c 128,-1,61
 1778 117 1778 117 2038 109 c 0,62,63
 2134 109 2134 109 2204.5 124 c 128,-1,64
 2275 139 2275 139 2335 170 c 0,65,66
 2374 188 2374 188 2406 188 c 0,67,68
 2478 188 2478 188 2478 131 c 0,69,70
 2478 88 2478 88 2423 68 c 0,0,1
391 752 m 0,71,72
 391 881 391 881 291 881 c 0,73,74
 252 881 252 881 230.5 847 c 128,-1,75
 209 813 209 813 209 741 c 0,76,77
 209 559 209 559 297 559 c 0,78,79
 350 559 350 559 369.5 610.5 c 128,-1,80
 389 662 389 662 391 752 c 0,71,72
EndSplineSet
EndChar

StartChar: u0B8A
Encoding: 142 2954 142
Width: 3641
Flags: HW
AnchorPoint: "V" 1668 1305 basechar 0
AnchorPoint: "N" 1668 22.4002 basechar 0
LayerCount: 2
Fore
SplineSet
3297 1198 m 0,0,1
 3229 1169 3229 1169 3198.5 1095.5 c 128,-1,2
 3168 1022 3168 1022 3159 909.5 c 128,-1,3
 3150 797 3150 797 3150 565 c 0,4,5
 3150 411 3150 411 3049 326 c 0,6,7
 2963 256 2963 256 2847 256 c 0,8,9
 2810 256 2810 256 2787.5 271.5 c 128,-1,10
 2765 287 2765 287 2781 315 c 0,11,12
 2812 368 2812 368 2827.5 431 c 128,-1,13
 2843 494 2843 494 2843 569 c 2,14,-1
 2853 909 l 2,15,16
 2853 1046 2853 1046 2918 1151 c 1,17,18
 2828 1174 2828 1174 2697 1174 c 1,19,20
 2631 1145 2631 1145 2605.5 1082.5 c 128,-1,21
 2580 1020 2580 1020 2571 907.5 c 128,-1,22
 2562 795 2562 795 2562 563 c 0,23,24
 2562 409 2562 409 2460 324 c 0,25,26
 2374 254 2374 254 2259 254 c 0,27,28
 2187 254 2187 254 2187 293 c 0,29,30
 2187 301 2187 301 2191 311 c 0,31,32
 2250 422 2250 422 2251 567 c 2,33,-1
 2261 907 l 2,34,35
 2261 950 2261 950 2266 975.5 c 128,-1,36
 2271 1001 2271 1001 2286 1047 c 1,37,38
 2253 1094 2253 1094 2179 1126 c 0,39,40
 2091 1169 2091 1169 2003 1169 c 0,41,42
 1864 1169 1864 1169 1758.5 1085 c 128,-1,43
 1653 1001 1653 1001 1608 862 c 1,44,45
 1676 913 1676 913 1778 913 c 0,46,47
 1878 913 1878 913 1937 854 c 0,48,49
 2011 782 2011 782 2011 639 c 0,50,51
 2011 463 2011 463 1954 373 c 0,52,53
 1882 258 1882 258 1714 258 c 0,54,55
 1583 258 1583 258 1523.5 356.5 c 128,-1,56
 1464 455 1464 455 1464 645 c 0,57,58
 1464 934 1464 934 1612.5 1110 c 128,-1,59
 1761 1286 1761 1286 2019 1286 c 0,60,61
 2128 1286 2128 1286 2222 1247 c 0,62,63
 2296 1216 2296 1216 2347 1163 c 1,64,65
 2394 1222 2394 1222 2480 1255 c 128,-1,66
 2566 1288 2566 1288 2695 1288 c 0,67,68
 2781 1288 2781 1288 2924.5 1265.5 c 128,-1,69
 3068 1243 3068 1243 3099 1243 c 0,70,71
 3142 1243 3142 1243 3165.5 1250 c 128,-1,72
 3189 1257 3189 1257 3226 1280 c 0,73,74
 3244 1290 3244 1290 3267 1290 c 0,75,76
 3296 1290 3296 1290 3314 1275 c 128,-1,77
 3332 1260 3332 1260 3332 1237 c 256,78,79
 3332 1214 3332 1214 3297 1198 c 0,0,1
3189 70 m 0,80,81
 3121 39 3121 39 3033 20.5 c 128,-1,82
 2945 2 2945 2 2834 2 c 0,83,84
 2705 2 2705 2 2470.5 7 c 128,-1,85
 2236 12 2236 12 1931 20.5 c 128,-1,86
 1626 29 1626 29 1540 29 c 0,87,88
 1374 29 1374 29 976 16.5 c 128,-1,89
 578 4 578 4 164 -6 c 0,90,91
 98 -6 98 -6 59 20 c 0,92,93
 4 59 4 59 4 156 c 0,94,95
 4 279 4 279 258 307 c 1,96,97
 438 315 438 315 621 324 c 1,98,99
 826 355 826 355 913 500 c 0,100,101
 981 611 981 611 981 793 c 0,102,103
 981 969 981 969 894 1067 c 128,-1,104
 807 1165 807 1165 659 1165 c 0,105,106
 532 1165 532 1165 417.5 1122 c 128,-1,107
 303 1079 303 1079 258 993 c 1,108,109
 313 1040 313 1040 403 1040 c 256,110,111
 493 1040 493 1040 562 974.5 c 128,-1,112
 631 909 631 909 631 795 c 0,113,114
 631 621 631 621 573 535 c 0,115,116
 505 433 505 433 338 432 c 0,117,118
 215 432 215 432 149.5 529.5 c 128,-1,119
 84 627 84 627 84 803 c 0,120,121
 84 993 84 993 223 1126 c 0,122,123
 381 1273 381 1273 649 1274 c 0,124,125
 989 1274 989 1274 1157 1112 c 0,126,127
 1294 981 1294 981 1294 770 c 0,128,129
 1294 604 1294 604 1249 496.5 c 128,-1,130
 1204 389 1204 389 1085 315 c 0,131,132
 890 192 890 192 451 193 c 0,133,134
 306 193 306 193 305 139 c 0,135,136
 305 116 305 116 328 106 c 1,137,138
 430 106 430 106 964.5 120.5 c 128,-1,139
 1499 135 1499 135 1536 135 c 0,140,141
 1694 135 1694 135 2056.5 126 c 128,-1,142
 2419 117 2419 117 2806 109 c 0,143,144
 2902 109 2902 109 2973.5 124 c 128,-1,145
 3045 139 3045 139 3105 170 c 0,146,147
 3144 188 3144 188 3176 188 c 0,148,149
 3248 188 3248 188 3248 131 c 0,150,151
 3248 88 3248 88 3189 70 c 0,80,81
1755 578 m 0,152,153
 1755 646 1755 646 1736.5 679.5 c 128,-1,154
 1718 713 1718 713 1665 713 c 0,155,156
 1606 713 1606 713 1590.5 669 c 128,-1,157
 1575 625 1575 625 1575 571 c 0,158,159
 1575 383 1575 383 1661 383 c 0,160,161
 1718 383 1718 383 1737.5 434.5 c 128,-1,162
 1757 486 1757 486 1755 578 c 0,152,153
391 752 m 0,163,164
 391 881 391 881 291 881 c 0,165,166
 252 881 252 881 231.5 847 c 128,-1,167
 211 813 211 813 211 741 c 0,168,169
 211 559 211 559 299 559 c 0,170,171
 352 559 352 559 371.5 610.5 c 128,-1,172
 391 662 391 662 391 752 c 0,163,164
EndSplineSet
EndChar

StartChar: u0B8E
Encoding: 143 2958 143
Width: 1808
Flags: HW
AnchorPoint: "V" 763 1305 basechar 0
AnchorPoint: "N" 763 -2 basechar 0
LayerCount: 2
Fore
SplineSet
1464 1176 m 0,0,1
 1378 1139 1378 1139 1340.5 1047.5 c 128,-1,2
 1303 956 1303 956 1292 809 c 0,3,4
 1292 766 1292 766 1285 599 c 128,-1,5
 1278 432 1278 432 1278 385 c 0,6,7
 1278 188 1278 188 1169 86 c 0,8,9
 1079 -2 1079 -2 936 -2 c 0,10,11
 877 -2 877 -2 877 35 c 0,12,13
 877 47 877 47 891 70 c 0,14,15
 924 131 924 131 945.5 215 c 128,-1,16
 967 299 967 299 967 389 c 0,17,18
 967 471 967 471 974 635 c 128,-1,19
 981 799 981 799 981 809 c 0,20,21
 981 983 981 983 1077 1143 c 1,22,23
 1026 1153 1026 1153 957.5 1161 c 128,-1,24
 889 1169 889 1169 788 1169 c 0,25,26
 550 1169 550 1169 380.5 1052.5 c 128,-1,27
 211 936 211 936 158 750 c 1,28,29
 252 822 252 822 354 821 c 0,30,31
 501 821 501 821 586 745 c 0,32,33
 688 655 688 655 688 479 c 0,34,35
 688 256 688 256 616 141 c 0,36,37
 528 2 528 2 319 2 c 0,38,39
 153 2 153 2 77.5 125 c 128,-1,40
 2 248 2 248 2 487 c 0,41,42
 2 849 2 849 199 1061 c 0,43,44
 410 1286 410 1286 791 1286 c 0,45,46
 943 1286 943 1286 1054 1266.5 c 128,-1,47
 1165 1247 1165 1247 1282 1229 c 0,48,49
 1327 1229 1327 1229 1361 1238 c 128,-1,50
 1395 1247 1395 1247 1440 1276 c 0,51,52
 1463 1290 1463 1290 1485 1290 c 0,53,54
 1524 1290 1524 1290 1524 1251 c 0,55,56
 1524 1228 1524 1228 1508.5 1209 c 128,-1,57
 1493 1190 1493 1190 1464 1176 c 0,0,1
395 420 m 0,58,59
 395 524 395 524 371 569 c 0,60,61
 338 628 338 628 258 629 c 0,62,63
 168 629 168 629 135 541 c 0,64,65
 117 490 117 490 117 403 c 0,66,67
 117 114 117 114 254 115 c 0,68,69
 340 115 340 115 370.5 198 c 128,-1,70
 401 281 401 281 395 420 c 0,58,59
EndSplineSet
EndChar

StartChar: u0B8F
Encoding: 144 2959 144
Width: 1808
Flags: HW
AnchorPoint: "V" 769 1305 basechar 0
AnchorPoint: "N" 769 -301.515 basechar 0
LayerCount: 2
Fore
SplineSet
1464 1176 m 0,0,1
 1378 1139 1378 1139 1340.5 1047.5 c 128,-1,2
 1303 956 1303 956 1292 809 c 0,3,4
 1292 766 1292 766 1285 599 c 128,-1,5
 1278 432 1278 432 1278 385 c 0,6,7
 1278 223 1278 223 1202 123 c 0,8,9
 1169 76 1169 76 1047 23 c 0,10,11
 951 -20 951 -20 913 -39 c 0,12,13
 852 -70 852 -70 782.5 -118 c 128,-1,14
 713 -166 713 -166 637 -223 c 1,15,16
 606 -270 606 -270 590 -289 c 0,17,18
 559 -322 559 -322 512 -311 c 1,19,20
 469 -293 469 -293 469 -256 c 0,21,22
 469 -231 469 -231 487 -213 c 0,23,24
 561 -168 561 -168 637 -109 c 0,25,26
 690 -70 690 -70 819 41 c 0,27,28
 899 109 899 109 936 199 c 128,-1,29
 973 289 973 289 973 393 c 0,30,31
 973 475 973 475 980 639 c 128,-1,32
 987 803 987 803 987 813 c 0,33,34
 987 987 987 987 1083 1147 c 1,35,36
 1032 1157 1032 1157 963.5 1165.5 c 128,-1,37
 895 1174 895 1174 795 1174 c 0,38,39
 557 1174 557 1174 387 1057 c 128,-1,40
 217 940 217 940 164 754 c 1,41,42
 258 826 258 826 360 825 c 0,43,44
 507 825 507 825 592 750 c 0,45,46
 694 660 694 660 694 483 c 0,47,48
 694 260 694 260 623 145 c 0,49,50
 535 6 535 6 326 6 c 0,51,52
 160 6 160 6 84 129 c 128,-1,53
 8 252 8 252 8 492 c 0,54,55
 8 854 8 854 205 1065 c 0,56,57
 416 1290 416 1290 797 1290 c 0,58,59
 949 1290 949 1290 1060 1270.5 c 128,-1,60
 1171 1251 1171 1251 1288 1233 c 0,61,62
 1333 1233 1333 1233 1367 1242 c 128,-1,63
 1401 1251 1401 1251 1446 1280 c 0,64,65
 1469 1294 1469 1294 1491 1294 c 0,66,67
 1530 1294 1530 1294 1530 1255 c 0,68,69
 1530 1232 1530 1232 1514.5 1213 c 128,-1,70
 1499 1194 1499 1194 1464 1176 c 0,0,1
401 424 m 0,71,72
 401 528 401 528 377 573 c 0,73,74
 344 632 344 632 264 633 c 0,75,76
 174 633 174 633 141 545 c 0,77,78
 123 494 123 494 123 408 c 0,79,80
 123 119 123 119 260 119 c 0,81,82
 346 119 346 119 376.5 202 c 128,-1,83
 407 285 407 285 401 424 c 0,71,72
EndSplineSet
EndChar

StartChar: u0B90
Encoding: 145 2960 145
Width: 2076
Flags: HW
AnchorPoint: "V" 866.5 1305 basechar 0
AnchorPoint: "N" 866.5 -387.498 basechar 0
LayerCount: 2
Fore
SplineSet
334 864 m 0,0,1
 334 911 334 911 310.5 949 c 128,-1,2
 287 987 287 987 248 987 c 0,3,4
 211 987 211 987 185.5 944 c 128,-1,5
 160 901 160 901 160 842 c 0,6,7
 160 768 160 768 176.5 720 c 128,-1,8
 193 672 193 672 240 672 c 0,9,10
 297 672 297 672 315.5 722 c 128,-1,11
 334 772 334 772 334 864 c 0,0,1
997 1112 m 1,12,13
 1022 1180 1022 1180 1096 1227 c 0,14,15
 1182 1284 1182 1284 1298 1284 c 0,16,17
 1708 1284 1708 1284 1708 897 c 0,18,19
 1708 694 1708 694 1489 551 c 0,20,21
 1327 447 1327 447 1053 379 c 0,22,23
 856 334 856 334 667.5 287 c 128,-1,24
 479 240 479 240 403 180 c 0,25,26
 313 110 313 110 313 -27 c 0,27,28
 313 -146 313 -146 356 -228.5 c 128,-1,29
 399 -311 399 -311 475 -311 c 0,30,31
 577 -311 577 -311 657 -252 c 128,-1,32
 737 -193 737 -193 766 -82 c 1,33,-1
 766 -2 l 2,34,35
 766 102 766 102 828.5 174 c 128,-1,36
 891 246 891 246 999 246 c 0,37,38
 1050 246 1050 246 1124 223 c 1,39,40
 1056 127 1056 127 1057 -39 c 0,41,42
 1057 -156 1057 -156 1106 -234.5 c 128,-1,43
 1155 -313 1155 -313 1270 -313 c 0,44,45
 1374 -313 1374 -313 1413 -217 c 0,46,47
 1442 -145 1442 -145 1442 0 c 0,48,49
 1442 100 1442 100 1438 143 c 128,-1,50
 1434 186 1434 186 1409 229 c 1,51,52
 1452 237 1452 237 1489 238 c 0,53,54
 1600 238 1600 238 1664.5 165 c 128,-1,55
 1729 92 1729 92 1729 -27 c 0,56,57
 1729 -222 1729 -222 1628 -317 c 0,58,59
 1517 -426 1517 -426 1286 -426 c 0,60,61
 1126 -426 1126 -426 1024 -354.5 c 128,-1,62
 922 -283 922 -283 883 -172 c 1,63,64
 840 -285 840 -285 754 -344 c 0,65,66
 643 -424 643 -424 446 -424 c 0,67,68
 229 -424 229 -424 116.5 -308.5 c 128,-1,69
 4 -193 4 -193 4 -25 c 0,70,71
 4 157 4 157 166 252 c 0,72,73
 277 318 277 318 549 365 c 0,74,75
 924 433 924 433 983 446 c 0,76,77
 1171 497 1171 497 1276 606 c 0,78,79
 1395 729 1395 729 1395 911 c 0,80,81
 1395 1171 1395 1171 1257 1171 c 0,82,83
 1175 1171 1175 1171 1124 1110 c 0,84,85
 1085 1059 1085 1059 1071 991 c 1,86,87
 1087 940 1087 940 1087 897 c 2,88,-1
 1087 797 l 2,89,90
 1087 701 1087 701 1022.5 628 c 128,-1,91
 958 555 958 555 850 555 c 0,92,93
 807 555 807 555 750 571 c 1,94,95
 781 618 781 618 790 669.5 c 128,-1,96
 799 721 799 721 799 807 c 2,97,-1
 799 924 l 2,98,99
 799 1049 799 1049 741.5 1110 c 128,-1,100
 684 1171 684 1171 584 1171 c 0,101,102
 490 1171 490 1171 424 1153 c 128,-1,103
 358 1135 358 1135 301 1090 c 1,104,105
 317 1092 317 1092 350 1092 c 0,106,107
 602 1092 602 1092 602 829 c 0,108,109
 602 690 602 690 500 618 c 0,110,111
 414 559 414 559 291 559 c 0,112,113
 166 559 166 559 103.5 621.5 c 128,-1,114
 41 684 41 684 41 831 c 0,115,116
 41 1042 41 1042 193.5 1164 c 128,-1,117
 346 1286 346 1286 588 1286 c 0,118,119
 731 1286 731 1286 840 1235 c 0,120,121
 929 1192 929 1192 997 1112 c 1,12,13
EndSplineSet
EndChar

StartChar: u0B92
Encoding: 146 2962 146
Width: 1990
Flags: HW
AnchorPoint: "V" 825.5 1305 basechar 0
AnchorPoint: "N" 825.5 -415.052 basechar 0
LayerCount: 2
Fore
SplineSet
1649 655 m 0,0,1
 1649 438 1649 438 1534 322 c 0,2,3
 1411 195 1411 195 1167 195 c 0,4,5
 1001 195 1001 195 928 326 c 0,6,7
 869 430 869 430 868 602 c 1,8,9
 835 520 835 520 836 438 c 0,10,11
 836 276 836 276 981 182 c 0,12,13
 1106 100 1106 100 1280 100 c 0,14,15
 1323 100 1323 100 1323 49 c 0,16,17
 1323 6 1323 6 1280 6 c 2,18,-1
 1141 6 l 2,19,20
 1065 6 1065 6 962.5 -206 c 128,-1,21
 860 -418 860 -418 565 -418 c 0,22,23
 426 -418 426 -418 332 -327 c 128,-1,24
 238 -236 238 -236 213 -90 c 1,25,-1
 272 -72 l 1,26,27
 297 -181 297 -181 363.5 -243 c 128,-1,28
 430 -305 430 -305 541 -305 c 0,29,30
 629 -305 629 -305 674 -217 c 1,31,32
 719 -92 719 -92 748 -27 c 0,33,34
 766 20 766 20 817 44 c 128,-1,35
 868 68 868 68 973 68 c 1,36,37
 905 82 905 82 831 164 c 0,38,39
 741 266 741 266 741 395 c 0,40,41
 741 549 741 549 799 672 c 0,42,43
 836 748 836 748 924 858 c 0,44,45
 963 905 963 905 1008 905 c 0,46,47
 1033 905 1033 905 1047 891 c 128,-1,48
 1061 877 1061 877 1047 858 c 0,49,50
 988 772 988 772 985 764 c 0,51,52
 960 703 960 703 961 557 c 0,53,54
 961 440 961 440 1008 371.5 c 128,-1,55
 1055 303 1055 303 1159 303 c 0,56,57
 1247 303 1247 303 1290 410.5 c 128,-1,58
 1333 518 1333 518 1333 678 c 0,59,60
 1333 883 1333 883 1219 1010 c 0,61,62
 1080 1168 1080 1168 793 1167 c 0,63,64
 568 1167 568 1167 395 1059 c 0,65,66
 241 963 241 963 205 831 c 1,67,68
 256 864 256 864 324 864 c 0,69,70
 439 864 439 864 520 788 c 0,71,72
 616 700 616 700 616 553 c 0,73,74
 616 397 616 397 526 297 c 0,75,76
 424 186 424 186 244 186 c 0,77,78
 142 186 142 186 76 268 c 0,79,80
 2 362 2 362 2 539 c 0,81,82
 2 899 2 899 244 1102 c 0,83,84
 463 1284 463 1284 805 1284 c 0,85,86
 1157 1284 1157 1284 1382 1139 c 0,87,88
 1643 970 1643 970 1649 655 c 0,0,1
209 709 m 0,89,90
 158 709 158 709 134.5 650.5 c 128,-1,91
 111 592 111 592 111 502 c 0,92,93
 111 389 111 389 137.5 346 c 128,-1,94
 164 303 164 303 217 303 c 0,95,96
 278 303 278 303 301 375 c 0,97,98
 315 420 315 420 315 530 c 0,99,100
 315 711 315 711 209 709 c 0,89,90
EndSplineSet
EndChar

StartChar: u0B93
Encoding: 147 2963 147
Width: 1990
Flags: HW
AnchorPoint: "V" 812 1305 basechar 0
AnchorPoint: "N" 812 -416.817 basechar 0
LayerCount: 2
Fore
SplineSet
354 -229 m 0,0,1
 399 -229 399 -229 422.5 -191.5 c 128,-1,2
 446 -154 446 -154 446 -102 c 0,3,4
 446 27 446 27 352 27 c 0,5,6
 286 27 286 27 264 -14 c 128,-1,7
 242 -55 242 -55 242 -121 c 0,8,9
 242 -154 242 -154 268.5 -190.5 c 128,-1,10
 295 -227 295 -227 354 -229 c 0,0,1
213 713 m 0,11,12
 162 713 162 713 138.5 654.5 c 128,-1,13
 115 596 115 596 115 506 c 0,14,15
 115 393 115 393 141.5 350 c 128,-1,16
 168 307 168 307 221 307 c 0,17,18
 282 307 282 307 305 379 c 0,19,20
 319 424 319 424 319 535 c 0,21,22
 319 715 319 715 213 713 c 0,11,12
530 -305 m 1,23,24
 618 -305 618 -305 664 -217 c 1,25,26
 709 -92 709 -92 737 -27 c 0,27,28
 755 20 755 20 806.5 44 c 128,-1,29
 858 68 858 68 963 68 c 1,30,31
 895 82 895 82 821 164 c 0,32,33
 731 266 731 266 731 395 c 0,34,35
 731 549 731 549 788 672 c 0,36,37
 825 748 825 748 913 858 c 0,38,39
 952 905 952 905 997 905 c 0,40,41
 1022 905 1022 905 1036.5 891 c 128,-1,42
 1051 877 1051 877 1036 858 c 0,43,44
 977 772 977 772 975 764 c 0,45,46
 950 703 950 703 950 557 c 0,47,48
 950 440 950 440 997 371.5 c 128,-1,49
 1044 303 1044 303 1149 303 c 0,50,51
 1237 303 1237 303 1280 410.5 c 128,-1,52
 1323 518 1323 518 1323 678 c 0,53,54
 1323 883 1323 883 1208 1010 c 0,55,56
 1069 1168 1069 1168 782 1167 c 0,57,58
 557 1167 557 1167 385 1059 c 0,59,60
 231 963 231 963 195 831 c 1,61,62
 246 864 246 864 313 864 c 0,63,64
 428 864 428 864 510 788 c 0,65,66
 606 700 606 700 606 553 c 0,67,68
 606 397 606 397 516 297 c 0,69,70
 414 186 414 186 233 186 c 0,71,72
 131 186 131 186 66 268 c 0,73,74
 -8 362 -8 362 -8 539 c 0,75,76
 -8 899 -8 899 233 1102 c 0,77,78
 452 1284 452 1284 795 1284 c 0,79,80
 1147 1284 1147 1284 1372 1139 c 0,81,82
 1632 971 1632 971 1632 653 c 0,83,84
 1632 436 1632 436 1518 319 c 0,85,86
 1395 192 1395 192 1151 193 c 0,87,88
 985 193 985 193 911 324 c 0,89,90
 852 428 852 428 852 600 c 1,91,92
 819 518 819 518 819 436 c 0,93,94
 819 274 819 274 965 180 c 0,95,96
 1090 98 1090 98 1264 98 c 0,97,98
 1307 98 1307 98 1307 47 c 0,99,100
 1307 4 1307 4 1264 4 c 2,101,-1
 1124 4 l 2,102,103
 1048 4 1048 4 946 -208 c 128,-1,104
 844 -420 844 -420 549 -420 c 0,105,106
 369 -420 369 -420 258 -340 c 0,107,108
 135 -252 135 -252 135 -90 c 0,109,110
 135 6 135 6 193.5 67.5 c 128,-1,111
 252 129 252 129 371 129 c 0,112,113
 486 129 486 129 543 68 c 0,114,115
 590 15 590 15 590 -76 c 0,116,117
 590 -156 590 -156 553 -217.5 c 128,-1,118
 516 -279 516 -279 475 -295 c 1,119,120
 485 -297 485 -297 530 -305 c 1,23,24
EndSplineSet
EndChar

StartChar: u0B95
Encoding: 149 2965 149
Width: 1914
Flags: HW
AnchorPoint: "V" 946 1305 basechar 0
AnchorPoint: "N" 946 -4.17111 basechar 0
LayerCount: 2
Fore
SplineSet
1571 430 m 0,0,1
 1571 240 1571 240 1475 123 c 0,2,3
 1366 -8 1366 -8 1169 -8 c 0,4,5
 1110 -8 1110 -8 1110 37 c 0,6,7
 1110 55 1110 55 1124 63 c 0,8,9
 1204 116 1204 116 1235 242 c 0,10,11
 1258 330 1258 330 1257 440 c 0,12,13
 1257 571 1257 571 1200 628.5 c 128,-1,14
 1143 686 1143 686 1001 686 c 1,15,16
 1001 643 1001 643 999 566 c 128,-1,17
 997 489 997 489 997 461 c 0,18,19
 997 244 997 244 882.5 121 c 128,-1,20
 768 -2 768 -2 537 -2 c 0,21,22
 293 -2 293 -2 149.5 86 c 128,-1,23
 6 174 6 174 6 336 c 0,24,25
 6 502 6 502 78 604.5 c 128,-1,26
 150 707 150 707 311 754 c 1,27,-1
 311 864 l 2,28,29
 311 1052 311 1052 385 1155 c 0,30,31
 473 1278 473 1278 657 1278 c 0,32,33
 747 1278 747 1278 809 1264 c 0,34,35
 969 1227 969 1227 997 1227 c 0,36,37
 1048 1227 1048 1227 1082 1234 c 128,-1,38
 1116 1241 1116 1241 1155 1266 c 0,39,40
 1178 1280 1178 1280 1200 1280 c 0,41,42
 1239 1280 1239 1280 1239 1241 c 0,43,44
 1239 1218 1239 1218 1223.5 1199 c 128,-1,45
 1208 1180 1208 1180 1176 1165 c 0,46,47
 1076 1120 1076 1120 1036 1004 c 0,48,49
 1026 973 1026 973 1015 915.5 c 128,-1,50
 1004 858 1004 858 1004 799 c 1,51,52
 1276 799 1276 799 1413 717 c 0,53,54
 1567 623 1567 623 1571 430 c 0,0,1
799 1143 m 1,55,56
 756 1157 756 1157 732.5 1162 c 128,-1,57
 709 1167 709 1167 649 1167 c 0,58,59
 577 1167 577 1167 535.5 1148.5 c 128,-1,60
 494 1130 494 1130 468 1085 c 128,-1,61
 442 1040 442 1040 431 960.5 c 128,-1,62
 420 881 420 881 420 780 c 1,63,64
 430 782 430 782 521 790.5 c 128,-1,65
 612 799 612 799 692 799 c 1,66,67
 700 873 700 873 707.5 913.5 c 128,-1,68
 715 954 715 954 724 985 c 128,-1,69
 733 1016 733 1016 751.5 1053 c 128,-1,70
 770 1090 770 1090 799 1143 c 1,55,56
682 678 m 1,71,72
 614 678 614 678 557 666.5 c 128,-1,73
 500 655 500 655 461 637 c 0,74,75
 385 592 385 592 351 507 c 128,-1,76
 317 422 317 422 317 317 c 0,77,78
 317 206 317 206 361.5 159.5 c 128,-1,79
 406 113 406 113 492 113 c 0,80,81
 609 113 609 113 651 209 c 0,82,83
 680 275 680 275 680 408 c 2,84,-1
 680 467 l 2,85,86
 680 492 680 492 682 564.5 c 128,-1,87
 684 637 684 637 682 678 c 1,71,72
EndSplineSet
EndChar

StartChar: u0B95_u0BBF
Encoding: 150 -1 150
Width: 1945
Flags: HW
AnchorPoint: "V" 946 1886.14 basechar 0
AnchorPoint: "N" 946 -4.17111 basechar 0
LayerCount: 2
Fore
SplineSet
803 1149 m 1,0,1
 760 1163 760 1163 736.5 1168.5 c 128,-1,2
 713 1174 713 1174 653 1174 c 0,3,4
 581 1174 581 1174 539.5 1155.5 c 128,-1,5
 498 1137 498 1137 472 1092 c 128,-1,6
 446 1047 446 1047 435 967 c 128,-1,7
 424 887 424 887 424 786 c 1,8,9
 434 788 434 788 525 796.5 c 128,-1,10
 616 805 616 805 696 805 c 1,11,12
 704 879 704 879 711.5 920 c 128,-1,13
 719 961 719 961 728 991.5 c 128,-1,14
 737 1022 737 1022 755.5 1059 c 128,-1,15
 774 1096 774 1096 803 1149 c 1,0,1
686 684 m 1,16,17
 618 684 618 684 561 673 c 128,-1,18
 504 662 504 662 465 643 c 0,19,20
 389 598 389 598 355.5 513 c 128,-1,21
 322 428 322 428 322 324 c 0,22,23
 322 213 322 213 366 166 c 128,-1,24
 410 119 410 119 496 119 c 0,25,26
 613 119 613 119 655 215 c 0,27,28
 684 281 684 281 684 414 c 2,29,-1
 684 473 l 2,30,31
 684 498 684 498 686 570.5 c 128,-1,32
 688 643 688 643 686 684 c 1,16,17
770 1526 m 0,33,34
 770 1712 770 1712 866 1821 c 0,35,36
 977 1944 977 1944 1192 1944 c 0,37,38
 1397 1944 1397 1944 1501 1804 c 0,39,40
 1597 1675 1597 1675 1597 1444 c 0,41,42
 1597 1342 1597 1342 1582 1258 c 128,-1,43
 1567 1174 1567 1174 1528 1034 c 1,44,45
 1528 995 1528 995 1565 942 c 0,46,47
 1583 913 1583 913 1583 885 c 256,48,49
 1583 856 1583 856 1561.5 834.5 c 128,-1,50
 1540 813 1540 813 1511 813 c 0,51,52
 1468 813 1468 813 1441.5 854 c 128,-1,53
 1415 895 1415 895 1419 938 c 0,54,55
 1427 985 1427 985 1467 1130.5 c 128,-1,56
 1507 1276 1507 1276 1507 1356 c 0,57,58
 1507 1510 1507 1510 1430.5 1595.5 c 128,-1,59
 1354 1681 1354 1681 1194 1681 c 0,60,61
 1042 1681 1042 1681 965.5 1604.5 c 128,-1,62
 889 1528 889 1528 889 1409 c 0,63,64
 889 1366 889 1366 901 1318 c 128,-1,65
 913 1270 913 1270 936 1247 c 1,66,-1
 995 1243 l 2,67,68
 1046 1243 1046 1243 1080 1250 c 128,-1,69
 1114 1257 1114 1257 1153 1282 c 0,70,71
 1176 1296 1176 1296 1198 1296 c 0,72,73
 1237 1296 1237 1296 1237 1257 c 0,74,75
 1237 1234 1237 1234 1221.5 1215 c 128,-1,76
 1206 1196 1206 1196 1174 1182 c 0,77,78
 1074 1137 1074 1137 1034 1020 c 0,79,80
 1024 989 1024 989 1012.5 931.5 c 128,-1,81
 1001 874 1001 874 1001 815 c 1,82,83
 1273 815 1273 815 1411 733 c 0,84,85
 1565 639 1565 639 1565 442 c 0,86,87
 1565 252 1565 252 1468 135 c 0,88,89
 1359 4 1359 4 1163 4 c 0,90,91
 1104 4 1104 4 1104 49 c 0,92,93
 1104 67 1104 67 1118 76 c 0,94,95
 1198 129 1198 129 1229 254 c 0,96,97
 1252 342 1252 342 1251 453 c 0,98,99
 1251 584 1251 584 1194 641 c 128,-1,100
 1137 698 1137 698 995 698 c 1,101,102
 995 655 995 655 993 578.5 c 128,-1,103
 991 502 991 502 991 473 c 0,104,105
 991 256 991 256 876.5 133 c 128,-1,106
 762 10 762 10 530 10 c 0,107,108
 286 10 286 10 143 98 c 128,-1,109
 0 186 0 186 0 348 c 0,110,111
 0 514 0 514 71.5 616.5 c 128,-1,112
 143 719 143 719 305 766 c 1,113,-1
 305 877 l 2,114,115
 305 1065 305 1065 379 1167 c 0,116,117
 467 1290 467 1290 651 1290 c 0,118,119
 696 1290 696 1290 726 1288 c 128,-1,120
 756 1286 756 1286 813 1272 c 1,121,122
 797 1309 797 1309 780.5 1386 c 128,-1,123
 764 1463 764 1463 770 1526 c 0,33,34
EndSplineSet
EndChar

StartChar: u0B95_u0BC0
Encoding: 151 -1 151
Width: 1916
Flags: HW
AnchorPoint: "V" 946 1906.35 basechar 0
AnchorPoint: "N" 946 -4.17111 basechar 0
LayerCount: 2
Fore
SplineSet
692 805 m 1,0,1
 700 879 700 879 707.5 920 c 128,-1,2
 715 961 715 961 724 991.5 c 128,-1,3
 733 1022 733 1022 751.5 1059 c 128,-1,4
 770 1096 770 1096 799 1143 c 1,5,6
 756 1157 756 1157 732.5 1162 c 128,-1,7
 709 1167 709 1167 649 1167 c 0,8,9
 577 1167 577 1167 535.5 1148.5 c 128,-1,10
 494 1130 494 1130 468 1085 c 128,-1,11
 442 1040 442 1040 431 960.5 c 128,-1,12
 420 881 420 881 420 780 c 1,13,14
 430 782 430 782 521 790.5 c 128,-1,15
 612 799 612 799 692 805 c 1,0,1
684 682 m 1,16,17
 616 682 616 682 559 670.5 c 128,-1,18
 502 659 502 659 463 641 c 0,19,20
 387 596 387 596 353 511 c 128,-1,21
 319 426 319 426 319 322 c 0,22,23
 319 211 319 211 363.5 164 c 128,-1,24
 408 117 408 117 494 117 c 0,25,26
 611 117 611 117 653 213 c 0,27,28
 682 279 682 279 682 412 c 2,29,-1
 682 471 l 2,30,31
 682 496 682 496 684 568.5 c 128,-1,32
 686 641 686 641 684 682 c 1,16,17
1270 1653 m 0,33,34
 1270 1698 1270 1698 1241 1728.5 c 128,-1,35
 1212 1759 1212 1759 1167 1759 c 256,36,37
 1122 1759 1122 1759 1091.5 1730.5 c 128,-1,38
 1061 1702 1061 1702 1061 1657 c 256,39,40
 1061 1612 1061 1612 1088.5 1581 c 128,-1,41
 1116 1550 1116 1550 1161 1550 c 0,42,43
 1270 1551 1270 1551 1270 1653 c 0,33,34
698 1534 m 0,44,45
 698 1708 698 1708 823 1825 c 0,46,47
 960 1954 960 1954 1198 1954 c 0,48,49
 1345 1954 1345 1954 1458 1880 c 128,-1,50
 1571 1806 1571 1806 1571 1683 c 0,51,52
 1571 1593 1571 1593 1509 1518 c 0,53,54
 1423 1414 1423 1414 1266 1413 c 0,55,56
 1106 1413 1106 1413 1026 1489 c 0,57,58
 965 1550 965 1550 965 1651 c 0,59,60
 965 1696 965 1696 979 1743 c 1,61,62
 903 1720 903 1720 859 1651.5 c 128,-1,63
 815 1583 815 1583 815 1511 c 256,64,65
 815 1439 815 1439 853 1365.5 c 128,-1,66
 891 1292 891 1292 950 1241 c 1,67,-1
 1001 1239 l 2,68,69
 1052 1239 1052 1239 1086 1246 c 128,-1,70
 1120 1253 1120 1253 1159 1278 c 0,71,72
 1182 1292 1182 1292 1204 1292 c 0,73,74
 1243 1292 1243 1292 1243 1253 c 0,75,76
 1243 1230 1243 1230 1227.5 1211 c 128,-1,77
 1212 1192 1212 1192 1180 1178 c 0,78,79
 1080 1133 1080 1133 1040 1016 c 0,80,81
 1030 985 1030 985 1019 927.5 c 128,-1,82
 1008 870 1008 870 1008 811 c 1,83,84
 1280 811 1280 811 1417 729 c 0,85,86
 1571 635 1571 635 1571 438 c 0,87,88
 1571 248 1571 248 1475 131 c 0,89,90
 1366 0 1366 0 1169 0 c 0,91,92
 1110 0 1110 0 1110 45 c 0,93,94
 1110 63 1110 63 1124 72 c 0,95,96
 1204 125 1204 125 1235 250 c 0,97,98
 1258 338 1258 338 1257 449 c 0,99,100
 1257 580 1257 580 1200 637 c 128,-1,101
 1143 694 1143 694 1001 694 c 1,102,103
 1001 651 1001 651 999 574.5 c 128,-1,104
 997 498 997 498 997 469 c 0,105,106
 997 252 997 252 882.5 129 c 128,-1,107
 768 6 768 6 537 6 c 0,108,109
 293 6 293 6 149.5 94 c 128,-1,110
 6 182 6 182 6 344 c 0,111,112
 6 510 6 510 78 612.5 c 128,-1,113
 150 715 150 715 311 762 c 1,114,-1
 311 872 l 2,115,116
 311 1060 311 1060 385 1163 c 0,117,118
 473 1286 473 1286 657 1286 c 2,119,-1
 760 1286 l 1,120,121
 731 1337 731 1337 714.5 1395.5 c 128,-1,122
 698 1454 698 1454 698 1534 c 0,44,45
EndSplineSet
EndChar

StartChar: u0B95_u0BC1
Encoding: 152 -1 152
Width: 2344
Flags: HW
AnchorPoint: "V" 946 1305 basechar 0
AnchorPoint: "N" 946 -4.17111 basechar 0
LayerCount: 2
Fore
SplineSet
1122 805 m 1,0,1
 1136 936 1136 936 1155 995 c 0,2,3
 1163 1024 1163 1024 1181.5 1061 c 128,-1,4
 1200 1098 1200 1098 1229 1145 c 1,5,6
 1186 1159 1186 1159 1162.5 1164 c 128,-1,7
 1139 1169 1139 1169 1079 1169 c 0,8,9
 1007 1169 1007 1169 964.5 1151 c 128,-1,10
 922 1133 922 1133 896 1087.5 c 128,-1,11
 870 1042 870 1042 859 962.5 c 128,-1,12
 848 883 848 883 848 782 c 1,13,14
 858 784 858 784 949 792.5 c 128,-1,15
 1040 801 1040 801 1122 805 c 1,0,1
1110 684 m 1,16,17
 1042 684 1042 684 985 673 c 128,-1,18
 928 662 928 662 889 643 c 0,19,20
 813 598 813 598 779 513 c 128,-1,21
 745 428 745 428 745 324 c 0,22,23
 745 213 745 213 789.5 166 c 128,-1,24
 834 119 834 119 920 119 c 0,25,26
 1037 119 1037 119 1079 215 c 0,27,28
 1108 281 1108 281 1108 414 c 2,29,-1
 1108 473 l 2,30,31
 1108 498 1108 498 1110 570.5 c 128,-1,32
 1112 643 1112 643 1110 684 c 1,16,17
1681 328 m 0,33,34
 1681 529 1681 529 1624 608.5 c 128,-1,35
 1567 688 1567 688 1423 688 c 1,36,37
 1423 645 1423 645 1421 568.5 c 128,-1,38
 1419 492 1419 492 1419 463 c 0,39,40
 1419 246 1419 246 1304.5 123 c 128,-1,41
 1190 0 1190 0 958 0 c 0,42,43
 716 0 716 0 573 88 c 128,-1,44
 430 176 430 176 430 338 c 0,45,46
 430 504 430 504 501.5 606.5 c 128,-1,47
 573 709 573 709 735 756 c 1,48,-1
 735 866 l 2,49,50
 735 1054 735 1054 809 1157 c 0,51,52
 897 1280 897 1280 1083 1280 c 0,53,54
 1173 1280 1173 1280 1235 1266 c 0,55,56
 1395 1229 1395 1229 1423 1229 c 0,57,58
 1474 1229 1474 1229 1508 1236 c 128,-1,59
 1542 1243 1542 1243 1581 1268 c 0,60,61
 1604 1282 1604 1282 1626 1282 c 0,62,63
 1665 1282 1665 1282 1665 1243 c 0,64,65
 1665 1220 1665 1220 1649.5 1201 c 128,-1,66
 1634 1182 1634 1182 1602 1167 c 0,67,68
 1502 1122 1502 1122 1462 1006 c 0,69,70
 1452 975 1452 975 1441 917.5 c 128,-1,71
 1430 860 1430 860 1430 801 c 1,72,73
 1706 801 1706 801 1837 700 c 0,74,75
 1991 583 1991 583 1991 311 c 0,76,77
 1991 -76 1991 -76 1765 -309 c 0,78,79
 1493 -590 1493 -590 930 -590 c 0,80,81
 473 -590 473 -590 234.5 -342 c 128,-1,82
 -4 -94 -4 -94 -4 346 c 0,83,84
 -4 672 -4 672 90 874 c 0,85,86
 137 976 137 976 250 1100 c 0,87,88
 275 1125 275 1125 303 1124 c 0,89,90
 348 1124 348 1124 348 1079 c 0,91,92
 348 1061 348 1061 332 1030 c 0,93,94
 266 930 266 930 205 829 c 1,95,96
 109 624 109 624 109 340 c 0,97,98
 109 -43 109 -43 348 -256 c 0,99,100
 573 -457 573 -457 926 -457 c 0,101,102
 1288 -457 1288 -457 1481.5 -247 c 128,-1,103
 1675 -37 1675 -37 1681 328 c 0,33,34
EndSplineSet
EndChar

StartChar: u0B95_u0BC2
Encoding: 153 -1 153
Width: 3147
Flags: HW
AnchorPoint: "V" 946 1305 basechar 0
AnchorPoint: "N" 946 -4.17111 basechar 0
LayerCount: 2
Fore
SplineSet
2804 51 m 0,0,1
 2736 20 2736 20 2648 2 c 128,-1,2
 2560 -16 2560 -16 2449 -16 c 0,3,4
 2377 -16 2377 -16 2300.5 -16 c 128,-1,5
 2224 -16 2224 -16 2142 -18 c 2,6,-1
 2085 -18 l 2,7,8
 1860 -18 1860 -18 1731 0 c 0,9,10
 1708 4 1708 4 1708 27 c 256,11,12
 1708 50 1708 50 1731 66 c 0,13,14
 1819 132 1819 132 1870 205 c 0,15,16
 1938 305 1938 305 1937 410 c 0,17,18
 1937 539 1937 539 1864 641 c 0,19,20
 1774 770 1774 770 1614 770 c 0,21,22
 1561 770 1561 770 1493 741 c 1,23,24
 1624 690 1624 690 1677 588 c 0,25,26
 1722 504 1722 504 1722 365 c 0,27,28
 1722 263 1722 263 1620 135 c 0,29,30
 1503 -10 1503 -10 1364 -10 c 0,31,32
 1210 -10 1210 -10 1140.5 70 c 128,-1,33
 1071 150 1071 150 1071 281 c 0,34,35
 1071 398 1071 398 1100.5 482.5 c 128,-1,36
 1130 567 1130 567 1192 643 c 1,37,38
 1153 666 1153 666 1109 675 c 128,-1,39
 1065 684 1065 684 1012 684 c 1,40,41
 1012 641 1012 641 1010 564 c 128,-1,42
 1008 487 1008 487 1008 459 c 0,43,44
 1008 242 1008 242 893 119 c 128,-1,45
 778 -4 778 -4 547 -4 c 0,46,47
 303 -4 303 -4 159.5 84 c 128,-1,48
 16 172 16 172 16 334 c 0,49,50
 16 500 16 500 88 602.5 c 128,-1,51
 160 705 160 705 322 752 c 1,52,-1
 322 862 l 2,53,54
 322 1050 322 1050 395 1153 c 0,55,56
 483 1276 483 1276 668 1276 c 0,57,58
 758 1276 758 1276 819 1262 c 0,59,60
 979 1225 979 1225 1008 1225 c 0,61,62
 1059 1225 1059 1225 1092.5 1232 c 128,-1,63
 1126 1239 1126 1239 1165 1264 c 0,64,65
 1188 1278 1188 1278 1210 1278 c 0,66,67
 1249 1278 1249 1278 1249 1239 c 0,68,69
 1249 1216 1249 1216 1234 1197 c 128,-1,70
 1219 1178 1219 1178 1186 1163 c 0,71,72
 1086 1118 1086 1118 1047 1001 c 0,73,74
 1037 970 1037 970 1025.5 913 c 128,-1,75
 1014 856 1014 856 1014 797 c 1,76,77
 1037 799 1037 799 1058 800 c 128,-1,78
 1079 801 1079 801 1106 801 c 0,79,80
 1159 801 1159 801 1218.5 793.5 c 128,-1,81
 1278 786 1278 786 1346 776 c 1,82,83
 1446 835 1446 835 1554.5 864 c 128,-1,84
 1663 893 1663 893 1757 893 c 0,85,86
 1997 893 1997 893 2128 760 c 0,87,88
 2245 641 2245 641 2245 453 c 0,89,90
 2245 365 2245 365 2187 260 c 0,91,92
 2119 133 2119 133 2030 115 c 1,93,94
 2083 107 2083 107 2187.5 104.5 c 128,-1,95
 2292 102 2292 102 2421 102 c 0,96,97
 2525 102 2525 102 2587.5 115.5 c 128,-1,98
 2650 129 2650 129 2710 160 c 0,99,100
 2749 178 2749 178 2781 178 c 0,101,102
 2853 178 2853 178 2853 123 c 0,103,104
 2853 80 2853 80 2804 51 c 0,0,1
1343 356 m 0,105,106
 1343 374 1343 374 1347.5 412.5 c 128,-1,107
 1352 451 1352 451 1352 453 c 0,108,109
 1352 492 1352 492 1336.5 525.5 c 128,-1,110
 1321 559 1321 559 1278 590 c 1,111,112
 1225 524 1225 524 1195 450.5 c 128,-1,113
 1165 377 1165 377 1165 276 c 0,114,115
 1165 208 1165 208 1174.5 165.5 c 128,-1,116
 1184 123 1184 123 1241 123 c 0,117,118
 1284 123 1284 123 1313.5 199.5 c 128,-1,119
 1343 276 1343 276 1343 356 c 0,105,106
797 1141 m 1,120,121
 754 1155 754 1155 730.5 1160 c 128,-1,122
 707 1165 707 1165 647 1165 c 0,123,124
 575 1165 575 1165 533.5 1146.5 c 128,-1,125
 492 1128 492 1128 466 1083 c 128,-1,126
 440 1038 440 1038 429 958.5 c 128,-1,127
 418 879 418 879 418 778 c 1,128,129
 428 780 428 780 519 788.5 c 128,-1,130
 610 797 610 797 690 797 c 1,131,132
 698 871 698 871 705.5 911.5 c 128,-1,133
 713 952 713 952 722 983 c 128,-1,134
 731 1014 731 1014 749.5 1051 c 128,-1,135
 768 1088 768 1088 797 1141 c 1,120,121
680 676 m 1,136,137
 612 676 612 676 555 664.5 c 128,-1,138
 498 653 498 653 459 635 c 0,139,140
 383 590 383 590 349 505 c 128,-1,141
 315 420 315 420 315 315 c 0,142,143
 315 204 315 204 359 157.5 c 128,-1,144
 403 111 403 111 489 111 c 0,145,146
 606 111 606 111 649 207 c 0,147,148
 678 273 678 273 678 406 c 2,149,-1
 678 465 l 2,150,151
 678 490 678 490 680 562.5 c 128,-1,152
 682 635 682 635 680 676 c 1,136,137
EndSplineSet
EndChar

StartChar: u0B95_u0BC2.old
Encoding: 154 -1 154
Width: 2693
Flags: HW
AnchorPoint: "V" 946 1305 basechar 0
AnchorPoint: "N" 946 -4.17111 basechar 0
LayerCount: 2
Fore
SplineSet
1374 657 m 1,0,1
 1440 766 1440 766 1745 766 c 0,2,3
 1907 766 1907 766 2032 680 c 128,-1,4
 2157 594 2157 594 2157 436 c 0,5,6
 2157 332 2157 332 2093.5 246 c 128,-1,7
 2030 160 2030 160 1944 102 c 1,8,-1
 2402 102 l 1,9,-1
 2402 2 l 1,10,-1
 1649 2 l 1,11,-1
 1649 102 l 1,12,13
 1911 247 1911 247 1911 422 c 0,14,15
 1911 485 1911 485 1880 535.5 c 128,-1,16
 1849 586 1849 586 1794 616.5 c 128,-1,17
 1739 647 1739 647 1671 647 c 0,18,19
 1618 647 1618 647 1574 639 c 128,-1,20
 1530 631 1530 631 1491 612 c 0,21,22
 1421 577 1421 577 1407 520 c 1,23,-1
 1407 2 l 1,24,-1
 1192 2 l 1,25,-1
 1192 647 l 1,26,-1
 909 647 l 1,27,-1
 909 307 l 2,28,29
 909 229 909 229 842.5 160.5 c 128,-1,30
 776 92 776 92 667.5 49 c 128,-1,31
 559 6 559 6 453 6 c 0,32,33
 250 6 250 6 129 107.5 c 128,-1,34
 8 209 8 209 8 410 c 0,35,36
 8 519 8 519 55 595.5 c 128,-1,37
 102 672 102 672 164.5 708.5 c 128,-1,38
 227 745 227 745 266 745 c 1,39,-1
 266 1292 l 1,40,-1
 1196 1292 l 1,41,-1
 1196 1192 l 1,42,-1
 909 1192 l 1,43,-1
 909 750 l 1,44,-1
 1262 750 l 2,45,46
 1293 750 1293 750 1327 729 c 0,47,48
 1364 708 1364 708 1374 657 c 1,0,1
692 752 m 1,49,-1
 692 1194 l 1,50,-1
 362 1194 l 1,51,-1
 362 752 l 1,52,-1
 692 752 l 1,49,-1
692 301 m 2,53,-1
 692 649 l 1,54,-1
 317 649 l 2,55,56
 278 649 278 649 228 624.5 c 128,-1,57
 178 600 178 600 141 540.5 c 128,-1,58
 104 481 104 481 104 387 c 0,59,60
 104 108 104 108 416 109 c 0,61,62
 447 109 447 109 472.5 114 c 128,-1,63
 498 119 498 119 535 135 c 0,64,65
 601 162 601 162 645.5 207 c 128,-1,66
 690 252 690 252 692 301 c 2,53,-1
EndSplineSet
EndChar

StartChar: u0B95_u0BCD
Encoding: 155 -1 155
Width: 1914
Flags: W
AnchorPoint: "N" 946 -4.17111 basechar 0
LayerCount: 2
Fore
SplineSet
1122 1681 m 0,0,1
 1122 1607 1122 1607 1071 1556 c 128,-1,2
 1020 1505 1020 1505 946 1505 c 256,3,4
 872 1505 872 1505 821 1556.5 c 128,-1,5
 770 1608 770 1608 770 1681 c 256,6,7
 770 1755 770 1755 820 1807.5 c 128,-1,8
 870 1860 870 1860 946 1860 c 0,9,10
 1020 1860 1020 1860 1071 1808.5 c 128,-1,11
 1122 1757 1122 1757 1122 1681 c 0,0,1
1569 428 m 0,12,13
 1569 238 1569 238 1473 121 c 0,14,15
 1364 -10 1364 -10 1167 -10 c 0,16,17
 1108 -10 1108 -10 1108 35 c 0,18,19
 1108 53 1108 53 1122 61 c 0,20,21
 1202 114 1202 114 1233 240 c 0,22,23
 1256 328 1256 328 1255 438 c 0,24,25
 1255 569 1255 569 1198 626.5 c 128,-1,26
 1141 684 1141 684 999 684 c 1,27,28
 999 641 999 641 997 564 c 128,-1,29
 995 487 995 487 995 459 c 0,30,31
 995 242 995 242 880.5 119 c 128,-1,32
 766 -4 766 -4 535 -4 c 0,33,34
 291 -4 291 -4 147.5 84 c 128,-1,35
 4 172 4 172 4 334 c 0,36,37
 4 500 4 500 75.5 602.5 c 128,-1,38
 147 705 147 705 309 752 c 1,39,-1
 309 862 l 2,40,41
 309 1050 309 1050 383 1153 c 0,42,43
 471 1276 471 1276 655 1276 c 0,44,45
 745 1276 745 1276 807 1262 c 0,46,47
 967 1225 967 1225 995 1225 c 0,48,49
 1046 1225 1046 1225 1080 1232 c 128,-1,50
 1114 1239 1114 1239 1153 1264 c 0,51,52
 1176 1278 1176 1278 1198 1278 c 0,53,54
 1237 1278 1237 1278 1237 1239 c 0,55,56
 1237 1216 1237 1216 1221.5 1197 c 128,-1,57
 1206 1178 1206 1178 1174 1163 c 0,58,59
 1074 1118 1074 1118 1034 1001 c 0,60,61
 1024 970 1024 970 1012.5 913 c 128,-1,62
 1001 856 1001 856 1001 797 c 1,63,64
 1273 797 1273 797 1411 715 c 0,65,66
 1565 621 1565 621 1569 428 c 0,12,13
797 1141 m 1,67,68
 754 1155 754 1155 730.5 1160 c 128,-1,69
 707 1165 707 1165 647 1165 c 0,70,71
 575 1165 575 1165 533.5 1146.5 c 128,-1,72
 492 1128 492 1128 466 1083 c 128,-1,73
 440 1038 440 1038 429 958.5 c 128,-1,74
 418 879 418 879 418 778 c 1,75,76
 428 780 428 780 519 788.5 c 128,-1,77
 610 797 610 797 690 797 c 1,78,79
 698 871 698 871 705.5 911.5 c 128,-1,80
 713 952 713 952 722 983 c 128,-1,81
 731 1014 731 1014 749.5 1051 c 128,-1,82
 768 1088 768 1088 797 1141 c 1,67,68
680 676 m 1,83,84
 612 676 612 676 555 664.5 c 128,-1,85
 498 653 498 653 459 635 c 0,86,87
 383 590 383 590 349 505 c 128,-1,88
 315 420 315 420 315 315 c 0,89,90
 315 204 315 204 359 157.5 c 128,-1,91
 403 111 403 111 489 111 c 0,92,93
 606 111 606 111 649 207 c 0,94,95
 678 273 678 273 678 406 c 2,96,-1
 678 465 l 2,97,98
 678 490 678 490 680 562.5 c 128,-1,99
 682 635 682 635 680 676 c 1,83,84
EndSplineSet
EndChar

StartChar: u0B99
Encoding: 156 2969 156
Width: 2402
Flags: HW
AnchorPoint: "V" 946 1305 basechar 0
AnchorPoint: "N" 946 -2.94118 basechar 0
LayerCount: 2
Fore
SplineSet
2058 1257 m 0,0,1
 2025 1196 2025 1196 2003.5 1109 c 128,-1,2
 1982 1022 1982 1022 1982 932 c 2,3,-1
 1982 414 l 2,4,5
 1982 211 1982 211 1865.5 96.5 c 128,-1,6
 1749 -18 1749 -18 1563 -18 c 1,7,8
 1477 -8 1477 -8 1423 -6 c 0,9,10
 1261 6 1261 6 1145 6 c 0,11,12
 1065 6 1065 6 1014 -2 c 0,13,14
 977 -6 977 -6 948.5 7 c 128,-1,15
 920 20 920 20 920 51 c 0,16,17
 920 88 920 88 985 150 c 0,18,19
 1028 187 1028 187 1053.5 255.5 c 128,-1,20
 1079 324 1079 324 1079 418 c 0,21,22
 1079 551 1079 551 1036 628 c 128,-1,23
 993 705 993 705 920 705 c 0,24,25
 869 705 869 705 803 662 c 1,26,-1
 799 373 l 2,27,28
 799 176 799 176 690 74 c 0,29,30
 600 -14 600 -14 457 -14 c 0,31,32
 398 -14 398 -14 397 23 c 0,33,34
 397 35 397 35 412 57 c 0,35,36
 445 118 445 118 466 202.5 c 128,-1,37
 487 287 487 287 487 377 c 0,38,39
 487 459 487 459 494.5 622.5 c 128,-1,40
 502 786 502 786 502 797 c 0,41,42
 502 883 502 883 535 977 c 0,43,44
 560 1051 560 1051 610 1133 c 1,45,46
 577 1141 577 1141 540.5 1149 c 128,-1,47
 504 1157 504 1157 444 1157 c 0,48,49
 333 1157 333 1157 282 1078 c 128,-1,50
 231 999 231 999 231 801 c 0,51,52
 231 498 231 498 212 328 c 128,-1,53
 193 158 193 158 121 27 c 0,54,55
 96 -18 96 -18 57 -18 c 256,56,57
 18 -18 18 -18 18 25 c 0,58,59
 18 48 18 48 33 70 c 0,60,61
 86 172 86 172 102.5 319.5 c 128,-1,62
 119 467 119 467 119 696 c 2,63,-1
 119 858 l 2,64,65
 119 1046 119 1046 202 1159 c 128,-1,66
 285 1272 285 1272 453 1272 c 0,67,68
 549 1272 549 1272 648.5 1246.5 c 128,-1,69
 748 1221 748 1221 807 1221 c 0,70,71
 858 1221 858 1221 892 1228 c 128,-1,72
 926 1235 926 1235 965 1260 c 0,73,74
 988 1274 988 1274 1010 1274 c 0,75,76
 1049 1274 1049 1274 1049 1235 c 0,77,78
 1049 1212 1049 1212 1033.5 1193 c 128,-1,79
 1018 1174 1018 1174 985 1159 c 0,80,81
 899 1120 899 1120 861 1025 c 128,-1,82
 823 930 823 930 809 770 c 1,83,84
 926 838 926 838 1044 838 c 0,85,86
 1196 838 1196 838 1286 737 c 0,87,88
 1388 626 1388 626 1389 424 c 0,89,90
 1389 324 1389 324 1309 221 c 0,91,92
 1243 139 1243 139 1182 109 c 1,93,94
 1239 101 1239 101 1280 95.5 c 128,-1,95
 1321 90 1321 90 1364 90 c 0,96,97
 1423 90 1423 90 1466 98 c 128,-1,98
 1509 106 1509 106 1571.5 135 c 128,-1,99
 1634 164 1634 164 1657 287 c 0,100,101
 1671 363 1671 363 1671 494 c 2,102,-1
 1671 926 l 2,103,104
 1671 1121 1671 1121 1780 1225 c 0,105,106
 1876 1319 1876 1319 2013 1319 c 0,107,108
 2072 1319 2072 1319 2073 1282 c 0,109,110
 2072 1267 2072 1267 2058 1257 c 0,0,1
EndSplineSet
EndChar

StartChar: u0B99_u0BBF
Encoding: 157 -1 157
Width: 2748
Flags: HW
AnchorPoint: "V" 946 1305 basechar 0
AnchorPoint: "N" 946 -2.94118 basechar 0
LayerCount: 2
Fore
SplineSet
1708 1137 m 1,0,1
 1634 1219 1634 1219 1603.5 1314 c 128,-1,2
 1573 1409 1573 1409 1573 1524 c 0,3,4
 1573 1710 1573 1710 1669 1819 c 0,5,6
 1780 1942 1780 1942 1995 1942 c 0,7,8
 2200 1942 2200 1942 2304 1802 c 0,9,10
 2400 1673 2400 1673 2400 1442 c 0,11,12
 2400 1340 2400 1340 2385 1255.5 c 128,-1,13
 2370 1171 2370 1171 2331 1032 c 1,14,15
 2331 993 2331 993 2367 940 c 0,16,17
 2385 911 2385 911 2386 883 c 256,18,19
 2386 854 2386 854 2364.5 832.5 c 128,-1,20
 2343 811 2343 811 2314 811 c 0,21,22
 2271 811 2271 811 2244.5 852 c 128,-1,23
 2218 893 2218 893 2222 936 c 0,24,25
 2230 983 2230 983 2270 1128.5 c 128,-1,26
 2310 1274 2310 1274 2310 1354 c 0,27,28
 2310 1508 2310 1508 2233.5 1593.5 c 128,-1,29
 2157 1679 2157 1679 1997 1679 c 0,30,31
 1845 1679 1845 1679 1768.5 1602.5 c 128,-1,32
 1692 1526 1692 1526 1692 1407 c 0,33,34
 1692 1296 1692 1296 1753 1217 c 1,35,36
 1800 1274 1800 1274 1865.5 1303.5 c 128,-1,37
 1931 1333 1931 1333 2005 1333 c 0,38,39
 2064 1333 2064 1333 2064 1296 c 0,40,41
 2064 1282 2064 1282 2050 1260 c 0,42,43
 2017 1199 2017 1199 1995.5 1111.5 c 128,-1,44
 1974 1024 1974 1024 1974 934 c 2,45,-1
 1974 416 l 2,46,47
 1974 213 1974 213 1857.5 98.5 c 128,-1,48
 1741 -16 1741 -16 1554 -16 c 1,49,50
 1468 -6 1468 -6 1415 -4 c 0,51,52
 1253 8 1253 8 1137 8 c 0,53,54
 1057 8 1057 8 1006 0 c 0,55,56
 969 -4 969 -4 940 9.5 c 128,-1,57
 911 23 911 23 911 53 c 0,58,59
 911 90 911 90 977 152 c 0,60,61
 1020 189 1020 189 1045.5 257.5 c 128,-1,62
 1071 326 1071 326 1071 420 c 0,63,64
 1071 553 1071 553 1028 630 c 128,-1,65
 985 707 985 707 911 707 c 0,66,67
 860 707 860 707 795 664 c 1,68,-1
 791 375 l 2,69,70
 791 178 791 178 682 76 c 0,71,72
 592 -12 592 -12 449 -12 c 0,73,74
 390 -12 390 -12 389 25 c 0,75,76
 389 37 389 37 403 59 c 0,77,78
 436 120 436 120 457.5 204.5 c 128,-1,79
 479 289 479 289 479 379 c 0,80,81
 479 461 479 461 486.5 624.5 c 128,-1,82
 494 788 494 788 494 799 c 0,83,84
 494 885 494 885 526 979 c 0,85,86
 551 1053 551 1053 602 1135 c 1,87,88
 569 1143 569 1143 532.5 1151 c 128,-1,89
 496 1159 496 1159 436 1159 c 0,90,91
 325 1159 325 1159 274 1080 c 128,-1,92
 223 1001 223 1001 223 803 c 0,93,94
 223 500 223 500 203.5 330 c 128,-1,95
 184 160 184 160 113 29 c 0,96,97
 88 -16 88 -16 49 -16 c 256,98,99
 10 -16 10 -16 10 27 c 0,100,101
 10 50 10 50 25 72 c 0,102,103
 78 174 78 174 94.5 321.5 c 128,-1,104
 111 469 111 469 111 698 c 2,105,-1
 111 860 l 2,106,107
 111 1048 111 1048 193.5 1161 c 128,-1,108
 276 1274 276 1274 444 1274 c 0,109,110
 540 1274 540 1274 639.5 1248.5 c 128,-1,111
 739 1223 739 1223 799 1223 c 0,112,113
 850 1223 850 1223 884 1230 c 128,-1,114
 918 1237 918 1237 956 1262 c 0,115,116
 979 1276 979 1276 1001 1276 c 0,117,118
 1040 1276 1040 1276 1040 1237 c 0,119,120
 1040 1214 1040 1214 1025 1195 c 128,-1,121
 1010 1176 1010 1176 977 1161 c 0,122,123
 891 1122 891 1122 853 1027 c 128,-1,124
 815 932 815 932 801 772 c 1,125,126
 918 840 918 840 1036 840 c 0,127,128
 1188 840 1188 840 1278 739 c 0,129,130
 1380 628 1380 628 1380 426 c 0,131,132
 1380 326 1380 326 1300 223 c 0,133,134
 1234 141 1234 141 1174 111 c 1,135,136
 1231 103 1231 103 1272 97.5 c 128,-1,137
 1313 92 1313 92 1356 92 c 0,138,139
 1415 92 1415 92 1458 100.5 c 128,-1,140
 1501 109 1501 109 1563.5 137.5 c 128,-1,141
 1626 166 1626 166 1649 289 c 0,142,143
 1663 365 1663 365 1663 496 c 2,144,-1
 1663 928 l 2,145,146
 1663 1043 1663 1043 1708 1137 c 1,0,1
EndSplineSet
EndChar

